{
.appVersion = "1057";
classes = (
{
code = "b c d f g h j k l m n p q r s t v w x y z";
name = Con0;
},
{
code = "b.ss01 c.ss01 d.ss01 f.ss01 g.ss01 h.ss01 j.ss01 k.ss01 l.ss01 m.ss01 n.ss01 p.ss01 q.ss01 r.ss01 s.ss01 t.ss01 v.ss01 w.ss01 x.ss01 y.ss01 z.ss01";
name = Con1;
},
{
code = "b.ss02 c.ss02 d.ss02 f.ss02 g.ss02 h.ss02 j.ss02 k.ss02 l.ss02 m.ss02 n.ss02 p.ss02 q.ss02 r.ss02 s.ss02 t.ss02 v.ss02 w.ss02 x.ss02 y.ss02 z.ss02";
name = Con2;
},
{
code = "A B C D E F G H I J K L M N O P Q R S T U V W X Y Z space period comma colon semicolon equal exclam exclamdown hyphen uni00AD parenleft parenright quotedbl quotesingle quoteleft quoteright quotesinglbase quotedblleft quotedblright quotedblbase f_i t_t f_f f_f_i f_t";
name = Etc;
},
{
code = "a e i o u";
name = Voc0;
},
{
code = "a.ss01 e.ss01 i.ss01 o.ss01 u.ss01";
name = Voc1;
},
{
code = "a.ss02 e.ss02 i.ss02 o.ss02 u.ss02";
name = Voc2;
}
);
customParameters = (
{
name = panose;
value = (
0,
0,
0,
0,
0,
0,
0,
0,
0,
0
);
},
{
name = glyphOrder;
value = (
A,
B,
C,
CR,
D,
E,
F,
H,
I,
K,
L,
N,
NULL,
O,
S,
T,
U,
X,
Y,
Z,
c,
c.ss01,
c.ss02,
comma,
d.ss01,
e,
e.ss01,
e.ss02,
espaciador,
exclam,
i,
i.ss01,
i.ss02,
parenleft,
parenright,
quotedblleft,
quotedblright,
quotesingle,
r.ss01,
space,
uni00A0,
x,
l.ss02,
l.ss01,
Q,
P,
M,
a.ss02,
a.ss01,
a,
l,
d,
d.ss02,
o.ss01,
o,
o.ss02,
s.ss02,
s.ss01,
s,
h.ss01,
n.ss01,
n.ss02,
n,
r,
r.ss02,
f,
f.ss01,
f.ss02,
h,
h.ss02,
k.ss01,
k.ss02,
k,
m.ss02,
m.ss01,
m,
u.ss01,
u.ss02,
b.ss01,
b.ss02,
b,
p.ss01,
p.ss02,
p,
q,
q.ss02,
q.ss01,
t,
t.ss01,
t.ss02,
j,
j.ss01,
j.ss02,
v,
v.ss02,
v.ss01,
x.ss01,
x.ss02,
u,
g,
g.ss01,
g.ss02,
w.ss01,
w.ss02,
w,
z.ss02,
z,
z.ss01,
y.ss01,
y.ss02,
y,
colon,
period,
semicolon,
hyphen,
exclamdown,
uni00AD,
W,
V,
R,
J,
G,
quotedbl,
quoteleft,
quoteright,
quotesinglbase,
quotedblbase,
equal,
f_i,
f_f,
f_f_i,
f_t,
t_t
);
}
);
date = "2017-09-01 11:03:00 +0000";
designer = "Pablo Impallari";
disablesAutomaticAlignment = 1;

glyphs = (
{
color = (31,255,0,1);
glyphname = A;
lastChange = "2017-09-01 11:03:00 +0000";
layers = (
{
background = {
paths = (
{
closed = 1;
nodes = (
"182 618 OFFCURVE",
"174 606 OFFCURVE",
"167 591 CURVE SMOOTH",
"154 567 OFFCURVE",
"149 556 OFFCURVE",
"149 554 CURVE",
"140 529 OFFCURVE",
"142 524 OFFCURVE",
"141 522 CURVE SMOOTH",
"131 496 OFFCURVE",
"130 494 OFFCURVE",
"130 493 CURVE SMOOTH",
"121 473 OFFCURVE",
"118 467 OFFCURVE",
"118 463 CURVE",
"113 449 OFFCURVE",
"112 446 OFFCURVE",
"112 445 CURVE",
"105 424 LINE SMOOTH",
"102 417 OFFCURVE",
"99 411 OFFCURVE",
"99 405 CURVE",
"90 383 OFFCURVE",
"90 379 OFFCURVE",
"90 377 CURVE",
"80 352 OFFCURVE",
"71 336 OFFCURVE",
"72 326 CURVE",
"63 300 OFFCURVE",
"71 299 OFFCURVE",
"68 298 CURVE",
"63 278 OFFCURVE",
"63 266 OFFCURVE",
"62 256 CURVE",
"63 241 OFFCURVE",
"63 233 OFFCURVE",
"64 233 CURVE",
"59 204 OFFCURVE",
"58 203 OFFCURVE",
"56 203 CURVE",
"48 175 LINE",
"44 153 OFFCURVE",
"43 150 OFFCURVE",
"42 149 CURVE",
"39 138 OFFCURVE",
"37 127 OFFCURVE",
"38 110 CURVE SMOOTH",
"38 94 OFFCURVE",
"37 88 OFFCURVE",
"36 87 CURVE",
"33 58 OFFCURVE",
"32 37 OFFCURVE",
"31 36 CURVE",
"37 6 OFFCURVE",
"38 4 OFFCURVE",
"39 10 CURVE",
"50 -12 OFFCURVE",
"54 -24 OFFCURVE",
"66 -28 CURVE",
"77 -35 OFFCURVE",
"88 -37 OFFCURVE",
"100 -35 CURVE",
"124 -26 OFFCURVE",
"123 -33 OFFCURVE",
"130 -31 CURVE",
"136 -17 OFFCURVE",
"141 -2 OFFCURVE",
"144 2 CURVE",
"129 31 OFFCURVE",
"133 47 OFFCURVE",
"131 48 CURVE",
"133 49 OFFCURVE",
"133 54 OFFCURVE",
"139 95 CURVE SMOOTH",
"143 114 OFFCURVE",
"147 141 OFFCURVE",
"149 156 CURVE",
"154 173 OFFCURVE",
"155 187 OFFCURVE",
"155 188 CURVE SMOOTH",
"155 192 OFFCURVE",
"157 195 OFFCURVE",
"174 195 CURVE SMOOTH",
"215 197 OFFCURVE",
"220 197 OFFCURVE",
"254 209 CURVE SMOOTH",
"289 223 LINE",
"303 201 OFFCURVE",
"303 196 OFFCURVE",
"303 178 CURVE SMOOTH",
"303 166 OFFCURVE",
"303 164 OFFCURVE",
"304 158 CURVE SMOOTH",
"306 130 OFFCURVE",
"306 129 OFFCURVE",
"311 120 CURVE",
"313 87 OFFCURVE",
"317 81 OFFCURVE",
"318 82 CURVE",
"317 76 OFFCURVE",
"320 64 OFFCURVE",
"322 61 CURVE",
"326 51 OFFCURVE",
"329 44 OFFCURVE",
"331 44 CURVE",
"342 18 OFFCURVE",
"347 14 OFFCURVE",
"352 14 CURVE",
"364 1 OFFCURVE",
"371 6 OFFCURVE",
"377 -5 CURVE",
"388 -10 OFFCURVE",
"396 -12 OFFCURVE",
"396 -12 CURVE",
"409 -20 OFFCURVE",
"425 -18 OFFCURVE",
"430 -17 CURVE SMOOTH",
"447 -11 OFFCURVE",
"453 4 OFFCURVE",
"447 13 CURVE",
"441 38 OFFCURVE",
"440 42 OFFCURVE",
"439 43 CURVE SMOOTH",
"434 52 OFFCURVE",
"432 58 OFFCURVE",
"426 74 CURVE",
"417 96 OFFCURVE",
"416 101 OFFCURVE",
"415 105 CURVE SMOOTH",
"408 124 LINE SMOOTH",
"405 132 OFFCURVE",
"403 140 OFFCURVE",
"402 143 CURVE SMOOTH",
"396 163 OFFCURVE",
"394 171 OFFCURVE",
"393 175 CURVE SMOOTH",
"384 219 OFFCURVE",
"376 275 OFFCURVE",
"372 298 CURVE SMOOTH",
"371 303 OFFCURVE",
"370 315 OFFCURVE",
"370 321 CURVE SMOOTH",
"365 364 LINE SMOOTH",
"362 393 OFFCURVE",
"361 428 OFFCURVE",
"359 482 CURVE SMOOTH",
"358 510 OFFCURVE",
"356 546 OFFCURVE",
"354 563 CURVE",
"353 592 OFFCURVE",
"353 595 OFFCURVE",
"356 596 CURVE",
"355 609 OFFCURVE",
"348 610 OFFCURVE",
"341 610 CURVE",
"312 613 OFFCURVE",
"310 613 OFFCURVE",
"308 615 CURVE",
"283 629 OFFCURVE",
"279 630 OFFCURVE",
"276 632 CURVE",
"247 635 OFFCURVE",
"234 635 OFFCURVE",
"233 636 CURVE SMOOTH",
"232 637 OFFCURVE",
"213 637 OFFCURVE",
"209 636 CURVE"
);
},
{
closed = 1;
nodes = (
"246 516 LINE",
"253 492 OFFCURVE",
"253 486 OFFCURVE",
"257 472 CURVE SMOOTH",
"261 455 OFFCURVE",
"263 438 OFFCURVE",
"263 427 CURVE",
"265 415 OFFCURVE",
"266 407 OFFCURVE",
"265 407 CURVE",
"268 376 OFFCURVE",
"268 373 OFFCURVE",
"268 370 CURVE SMOOTH",
"270 352 OFFCURVE",
"272 305 OFFCURVE",
"269 305 CURVE",
"256 298 OFFCURVE",
"247 297 OFFCURVE",
"244 296 CURVE SMOOTH",
"219 285 OFFCURVE",
"198 285 OFFCURVE",
"197 284 CURVE SMOOTH",
"185 276 OFFCURVE",
"182 275 OFFCURVE",
"180 275 CURVE",
"174 283 OFFCURVE",
"180 322 OFFCURVE",
"188 357 CURVE",
"191 364 OFFCURVE",
"193 373 OFFCURVE",
"194 378 CURVE SMOOTH",
"198 393 OFFCURVE",
"208 428 OFFCURVE",
"217 455 CURVE",
"225 485 OFFCURVE",
"235 516 OFFCURVE",
"236 519 CURVE"
);
}
);
};
layerId = UUID0;
paths = (
{
closed = 1;
nodes = (
"149 570 OFFCURVE",
"143 557 OFFCURVE",
"141 553 CURVE",
"136 540 OFFCURVE",
"134 528 OFFCURVE",
"133 523 CURVE",
"131 516 OFFCURVE",
"127 508 OFFCURVE",
"125 501 CURVE",
"122 493 OFFCURVE",
"122 492 OFFCURVE",
"122 492 CURVE",
"120 486 LINE",
"114 472 OFFCURVE",
"110 465 OFFCURVE",
"110 463 CURVE",
"107 457 OFFCURVE",
"105 448 OFFCURVE",
"104 445 CURVE SMOOTH",
"97 424 LINE",
"93 414 OFFCURVE",
"91 408 OFFCURVE",
"91 404 CURVE",
"84 385 OFFCURVE",
"82 380 OFFCURVE",
"82 378 CURVE",
"80 374 OFFCURVE",
"76 362 OFFCURVE",
"74 359 CURVE",
"69 345 OFFCURVE",
"65 333 OFFCURVE",
"65 327 CURVE",
"62 317 OFFCURVE",
"61 306 OFFCURVE",
"61 301 CURVE",
"57 286 OFFCURVE",
"57 274 OFFCURVE",
"56 264 CURVE",
"56 262 OFFCURVE",
"55 259 OFFCURVE",
"55 257 CURVE SMOOTH",
"55 252 OFFCURVE",
"56 248 OFFCURVE",
"56 245 CURVE SMOOTH",
"56 241 OFFCURVE",
"56 237 OFFCURVE",
"57 235 CURVE",
"52 210 OFFCURVE",
"54 207 OFFCURVE",
"49 205 CURVE",
"41 177 LINE",
"36 154 OFFCURVE",
"35 151 OFFCURVE",
"35 151 CURVE",
"32 140 OFFCURVE",
"30 129 OFFCURVE",
"31 112 CURVE",
"31 96 OFFCURVE",
"30 90 OFFCURVE",
"29 89 CURVE",
"26 56 LINE SMOOTH",
"25 46 OFFCURVE",
"24 39 OFFCURVE",
"24 39 CURVE",
"22 0 OFFCURVE",
"37 -13 OFFCURVE",
"65 -28 CURVE",
"73 -35 OFFCURVE",
"87 -37 OFFCURVE",
"105 -34 CURVE",
"117 -30 OFFCURVE",
"119 -31 OFFCURVE",
"122 -31 CURVE SMOOTH",
"148 -27 OFFCURVE",
"143 25 OFFCURVE",
"140 47 CURVE",
"141 55 OFFCURVE",
"141 58 OFFCURVE",
"143 71 CURVE SMOOTH",
"147 96 LINE",
"151 114 OFFCURVE",
"155 142 OFFCURVE",
"157 157 CURVE",
"161 172 OFFCURVE",
"163 188 OFFCURVE",
"163 189 CURVE SMOOTH",
"163 191 OFFCURVE",
"164 193 OFFCURVE",
"174 193 CURVE SMOOTH",
"217 195 OFFCURVE",
"222 195 OFFCURVE",
"256 207 CURVE SMOOTH",
"265 210 OFFCURVE",
"274 214 OFFCURVE",
"283 218 CURVE",
"293 200 OFFCURVE",
"293 196 OFFCURVE",
"293 179 CURVE SMOOTH",
"293 169 OFFCURVE",
"293 164 OFFCURVE",
"294 160 CURVE",
"296 135 OFFCURVE",
"296 132 OFFCURVE",
"302 121 CURVE",
"302 100 OFFCURVE",
"305 89 OFFCURVE",
"309 84 CURVE",
"307 78 OFFCURVE",
"311 65 OFFCURVE",
"313 61 CURVE",
"317 54 OFFCURVE",
"319 48 OFFCURVE",
"324 45 CURVE",
"331 24 OFFCURVE",
"337 16 OFFCURVE",
"344 14 CURVE",
"349 9 OFFCURVE",
"357 6 OFFCURVE",
"361 4 CURVE",
"364 3 OFFCURVE",
"366 3 OFFCURVE",
"368 -3 CURVE",
"381 -9 OFFCURVE",
"389 -11 OFFCURVE",
"391 -12 CURVE",
"404 -21 OFFCURVE",
"424 -18 OFFCURVE",
"431 -17 CURVE",
"450 -10 OFFCURVE",
"457 6 OFFCURVE",
"452 17 CURVE",
"447 34 OFFCURVE",
"445 43 OFFCURVE",
"443 47 CURVE",
"440 52 OFFCURVE",
"440 53 OFFCURVE",
"433 71 CURVE SMOOTH",
"431 77 LINE",
"420 107 LINE",
"413 127 LINE",
"408 142 LINE",
"398 177 LINE",
"393 208 OFFCURVE",
"387 244 OFFCURVE",
"383 271 CURVE SMOOTH",
"378 300 LINE SMOOTH",
"377 305 OFFCURVE",
"376 316 OFFCURVE",
"376 321 CURVE",
"371 364 LINE SMOOTH",
"368 387 OFFCURVE",
"368 422 OFFCURVE",
"366 462 CURVE SMOOTH",
"366 468 OFFCURVE",
"365 474 OFFCURVE",
"365 481 CURVE SMOOTH",
"364 506 OFFCURVE",
"362 543 OFFCURVE",
"360 561 CURVE",
"362 594 OFFCURVE",
"352 604 OFFCURVE",
"322 615 CURVE",
"302 627 OFFCURVE",
"278 631 OFFCURVE",
"276 632 CURVE",
"244 635 LINE",
"205 637 OFFCURVE",
"182 628 OFFCURVE",
"160 590 CURVE"
);
},
{
closed = 1;
nodes = (
"248 470 LINE SMOOTH",
"252 453 OFFCURVE",
"254 436 OFFCURVE",
"254 426 CURVE",
"256 416 OFFCURVE",
"257 409 OFFCURVE",
"256 409 CURVE",
"259 379 OFFCURVE",
"259 374 OFFCURVE",
"259 370 CURVE",
"261 353 OFFCURVE",
"265 308 OFFCURVE",
"264 308 CURVE",
"252 302 OFFCURVE",
"247 301 OFFCURVE",
"244 300 CURVE",
"220 290 OFFCURVE",
"205 289 OFFCURVE",
"199 288 CURVE",
"192 288 OFFCURVE",
"190 286 OFFCURVE",
"190 286 CURVE",
"184 280 LINE",
"182 291 OFFCURVE",
"188 324 OFFCURVE",
"195 356 CURVE",
"198 366 OFFCURVE",
"200 374 OFFCURVE",
"201 377 CURVE SMOOTH",
"205 391 OFFCURVE",
"215 426 OFFCURVE",
"224 453 CURVE SMOOTH",
"239 505 LINE",
"242 495 OFFCURVE",
"243 490 OFFCURVE",
"244 485 CURVE"
);
},
{
closed = 1;
nodes = (
"237 513 LINE",
"238 510 OFFCURVE",
"239 507 OFFCURVE",
"239 505 CURVE",
"241 511 LINE"
);
}
);
width = 467;
}
);
unicode = 0041;
},
{
color = (31,255,0,1);
glyphname = B;
lastChange = "2017-09-01 11:03:00 +0000";
layers = (
{
background = {
paths = (
{
closed = 1;
nodes = (
"184 637 OFFCURVE",
"172 637 OFFCURVE",
"159 632 CURVE SMOOTH",
"140 624 LINE",
"122 618 OFFCURVE",
"119 617 OFFCURVE",
"118 617 CURVE SMOOTH",
"100 610 OFFCURVE",
"91 604 OFFCURVE",
"90 602 CURVE",
"80 595 OFFCURVE",
"76 593 OFFCURVE",
"70 590 CURVE",
"57 574 OFFCURVE",
"57 574 OFFCURVE",
"54 574 CURVE",
"48 557 OFFCURVE",
"48 551 OFFCURVE",
"49 549 CURVE SMOOTH",
"54 537 OFFCURVE",
"59 531 OFFCURVE",
"62 527 CURVE",
"74 517 OFFCURVE",
"77 513 OFFCURVE",
"78 512 CURVE SMOOTH",
"92 501 OFFCURVE",
"91 500 OFFCURVE",
"89 494 CURVE",
"85 463 OFFCURVE",
"78 430 OFFCURVE",
"80 415 CURVE SMOOTH",
"80 411 OFFCURVE",
"81 400 OFFCURVE",
"80 392 CURVE SMOOTH",
"78 385 OFFCURVE",
"76 376 OFFCURVE",
"77 373 CURVE",
"77 350 OFFCURVE",
"77 344 OFFCURVE",
"78 341 CURVE SMOOTH",
"78 339 OFFCURVE",
"75 325 OFFCURVE",
"73 310 CURVE",
"74 295 OFFCURVE",
"67 241 OFFCURVE",
"72 238 CURVE",
"74 231 OFFCURVE",
"59 190 OFFCURVE",
"65 187 CURVE",
"65 159 LINE",
"62 150 OFFCURVE",
"60 141 OFFCURVE",
"61 139 CURVE",
"64 121 OFFCURVE",
"65 118 OFFCURVE",
"65 111 CURVE",
"67 101 OFFCURVE",
"67 96 OFFCURVE",
"64 87 CURVE SMOOTH",
"59 74 OFFCURVE",
"59 68 OFFCURVE",
"61 65 CURVE",
"63 51 OFFCURVE",
"64 46 OFFCURVE",
"64 42 CURVE SMOOTH",
"63 27 OFFCURVE",
"63 24 OFFCURVE",
"63 22 CURVE SMOOTH",
"63 19 OFFCURVE",
"81 -3 OFFCURVE",
"93 -13 CURVE SMOOTH",
"108 -24 OFFCURVE",
"117 -28 OFFCURVE",
"133 -36 CURVE",
"155 -43 OFFCURVE",
"206 -52 OFFCURVE",
"206 -49 CURVE",
"227 -47 OFFCURVE",
"233 -46 OFFCURVE",
"234 -46 CURVE SMOOTH",
"258 -42 OFFCURVE",
"261 -41 OFFCURVE",
"262 -40 CURVE",
"280 -36 OFFCURVE",
"282 -35 OFFCURVE",
"283 -36 CURVE",
"285 -36 OFFCURVE",
"318 -17 OFFCURVE",
"321 -15 CURVE SMOOTH",
"328 -11 OFFCURVE",
"334 -6 OFFCURVE",
"342 -1 CURVE",
"347 4 OFFCURVE",
"353 11 OFFCURVE",
"358 13 CURVE",
"365 18 OFFCURVE",
"389 38 OFFCURVE",
"392 42 CURVE SMOOTH",
"408 61 LINE",
"415 66 OFFCURVE",
"431 84 OFFCURVE",
"435 94 CURVE SMOOTH",
"442 109 OFFCURVE",
"452 126 OFFCURVE",
"453 131 CURVE",
"462 152 OFFCURVE",
"463 157 OFFCURVE",
"464 166 CURVE",
"462 185 LINE SMOOTH",
"461 193 OFFCURVE",
"459 197 OFFCURVE",
"449 206 CURVE",
"442 218 OFFCURVE",
"436 226 OFFCURVE",
"434 227 CURVE SMOOTH",
"420 239 OFFCURVE",
"418 240 OFFCURVE",
"416 241 CURVE",
"407 252 OFFCURVE",
"406 259 OFFCURVE",
"404 260 CURVE SMOOTH",
"391 271 OFFCURVE",
"388 273 OFFCURVE",
"385 277 CURVE",
"368 286 OFFCURVE",
"366 288 OFFCURVE",
"364 291 CURVE",
"354 297 OFFCURVE",
"343 303 OFFCURVE",
"329 308 CURVE",
"354 339 OFFCURVE",
"392 390 OFFCURVE",
"396 407 CURVE",
"406 430 OFFCURVE",
"412 450 OFFCURVE",
"411 463 CURVE",
"403 479 OFFCURVE",
"402 480 OFFCURVE",
"402 481 CURVE SMOOTH",
"403 485 OFFCURVE",
"358 540 OFFCURVE",
"348 551 CURVE SMOOTH",
"336 563 OFFCURVE",
"333 565 OFFCURVE",
"333 565 CURVE",
"325 575 OFFCURVE",
"321 578 OFFCURVE",
"314 581 CURVE",
"300 593 OFFCURVE",
"288 602 OFFCURVE",
"287 602 CURVE",
"267 613 LINE",
"248 626 OFFCURVE",
"244 627 OFFCURVE",
"242 628 CURVE SMOOTH",
"236 632 OFFCURVE",
"215 637 OFFCURVE",
"213 636 CURVE"
);
},
{
closed = 1;
nodes = (
"330 247 OFFCURVE",
"343 236 OFFCURVE",
"345 233 CURVE",
"365 226 OFFCURVE",
"368 221 OFFCURVE",
"373 219 CURVE SMOOTH",
"376 217 OFFCURVE",
"379 203 OFFCURVE",
"379 198 CURVE",
"371 182 OFFCURVE",
"371 179 OFFCURVE",
"371 178 CURVE",
"365 159 LINE",
"352 143 OFFCURVE",
"348 130 OFFCURVE",
"339 128 CURVE",
"334 125 OFFCURVE",
"326 113 OFFCURVE",
"320 105 CURVE",
"298 86 LINE",
"281 78 OFFCURVE",
"267 73 OFFCURVE",
"265 71 CURVE",
"263 71 OFFCURVE",
"261 70 OFFCURVE",
"247 56 CURVE",
"237 49 OFFCURVE",
"231 46 OFFCURVE",
"228 45 CURVE SMOOTH",
"223 43 OFFCURVE",
"208 38 OFFCURVE",
"202 34 CURVE",
"192 30 OFFCURVE",
"187 27 OFFCURVE",
"169 29 CURVE",
"166 36 OFFCURVE",
"167 49 OFFCURVE",
"167 58 CURVE",
"165 75 OFFCURVE",
"165 78 OFFCURVE",
"166 78 CURVE",
"173 90 OFFCURVE",
"173 95 OFFCURVE",
"169 104 CURVE",
"167 116 OFFCURVE",
"167 123 OFFCURVE",
"166 129 CURVE SMOOTH",
"165 146 OFFCURVE",
"167 149 OFFCURVE",
"167 149 CURVE",
"168 162 OFFCURVE",
"168 166 OFFCURVE",
"167 169 CURVE SMOOTH",
"163 189 OFFCURVE",
"162 205 OFFCURVE",
"168 220 CURVE",
"168 235 OFFCURVE",
"166 263 OFFCURVE",
"166 266 CURVE",
"172 258 OFFCURVE",
"186 243 OFFCURVE",
"194 243 CURVE SMOOTH",
"198 243 OFFCURVE",
"212 248 OFFCURVE",
"214 249 CURVE SMOOTH",
"216 250 OFFCURVE",
"255 258 OFFCURVE",
"261 259 CURVE SMOOTH",
"273 262 OFFCURVE",
"293 253 OFFCURVE",
"306 251 CURVE SMOOTH"
);
},
{
closed = 1;
nodes = (
"294 511 OFFCURVE",
"302 507 OFFCURVE",
"309 503 CURVE",
"314 498 OFFCURVE",
"318 490 OFFCURVE",
"319 479 CURVE",
"321 473 OFFCURVE",
"320 461 OFFCURVE",
"321 458 CURVE",
"321 453 OFFCURVE",
"320 443 OFFCURVE",
"318 436 CURVE SMOOTH",
"313 424 OFFCURVE",
"309 416 OFFCURVE",
"308 415 CURVE SMOOTH",
"297 401 OFFCURVE",
"297 390 OFFCURVE",
"292 391 CURVE",
"283 378 OFFCURVE",
"277 376 OFFCURVE",
"275 372 CURVE",
"265 361 OFFCURVE",
"261 356 OFFCURVE",
"258 355 CURVE",
"245 342 OFFCURVE",
"240 336 OFFCURVE",
"233 333 CURVE",
"226 328 OFFCURVE",
"221 323 OFFCURVE",
"216 320 CURVE SMOOTH",
"210 316 OFFCURVE",
"194 312 OFFCURVE",
"194 311 CURVE",
"173 309 OFFCURVE",
"171 309 OFFCURVE",
"170 310 CURVE SMOOTH",
"169 311 OFFCURVE",
"170 316 OFFCURVE",
"180 418 CURVE",
"187 467 OFFCURVE",
"191 510 OFFCURVE",
"191 512 CURVE",
"215 525 OFFCURVE",
"228 523 OFFCURVE",
"251 519 CURVE",
"262 519 OFFCURVE",
"274 518 OFFCURVE",
"275 518 CURVE"
);
}
);
};
layerId = UUID0;
paths = (
{
closed = 1;
nodes = (
"183 637 OFFCURVE",
"169 637 OFFCURVE",
"156 632 CURVE SMOOTH",
"137 624 LINE",
"119 618 OFFCURVE",
"116 617 OFFCURVE",
"115 617 CURVE",
"94 609 OFFCURVE",
"84 603 OFFCURVE",
"83 601 CURVE",
"65 590 OFFCURVE",
"53 582 OFFCURVE",
"48 575 CURVE",
"41 557 OFFCURVE",
"41 549 OFFCURVE",
"43 546 CURVE",
"47 536 OFFCURVE",
"51 529 OFFCURVE",
"54 526 CURVE",
"67 515 OFFCURVE",
"67 514 OFFCURVE",
"68 513 CURVE",
"79 503 OFFCURVE",
"80 498 OFFCURVE",
"81 495 CURVE",
"77 465 LINE SMOOTH",
"74 444 OFFCURVE",
"72 424 OFFCURVE",
"73 414 CURVE",
"73 392 LINE",
"71 386 OFFCURVE",
"69 377 OFFCURVE",
"70 372 CURVE",
"70 366 OFFCURVE",
"70 346 OFFCURVE",
"71 340 CURVE",
"71 339 OFFCURVE",
"71 336 OFFCURVE",
"70 334 CURVE",
"66 310 LINE",
"66 304 OFFCURVE",
"66 292 OFFCURVE",
"65 280 CURVE SMOOTH",
"61 218 LINE",
"58 162 LINE",
"55 153 OFFCURVE",
"53 143 OFFCURVE",
"55 140 CURVE",
"56 129 LINE SMOOTH",
"57 121 OFFCURVE",
"58 112 OFFCURVE",
"58 112 CURVE",
"60 103 OFFCURVE",
"59 98 OFFCURVE",
"57 90 CURVE SMOOTH",
"53 75 OFFCURVE",
"53 69 OFFCURVE",
"55 65 CURVE",
"55 62 OFFCURVE",
"55 59 OFFCURVE",
"55 57 CURVE",
"56 53 OFFCURVE",
"57 46 OFFCURVE",
"57 44 CURVE",
"56 33 OFFCURVE",
"56 27 OFFCURVE",
"56 25 CURVE SMOOTH",
"56 22 OFFCURVE",
"75 -1 OFFCURVE",
"88 -12 CURVE SMOOTH",
"101 -22 OFFCURVE",
"111 -26 OFFCURVE",
"125 -33 CURVE",
"149 -42 OFFCURVE",
"196 -49 OFFCURVE",
"209 -47 CURVE",
"220 -48 OFFCURVE",
"227 -46 OFFCURVE",
"231 -46 CURVE",
"261 -41 OFFCURVE",
"266 -40 OFFCURVE",
"267 -39 CURVE",
"275 -37 LINE",
"281 -36 OFFCURVE",
"320 -16 OFFCURVE",
"323 -14 CURVE SMOOTH",
"334 -7 LINE",
"335 -6 OFFCURVE",
"334 -6 OFFCURVE",
"346 0 CURVE",
"353 7 OFFCURVE",
"357 11 OFFCURVE",
"359 12 CURVE",
"367 18 OFFCURVE",
"392 38 OFFCURVE",
"396 43 CURVE SMOOTH",
"411 61 LINE",
"418 66 OFFCURVE",
"434 85 OFFCURVE",
"439 95 CURVE SMOOTH",
"448 114 LINE",
"457 132 LINE",
"467 156 OFFCURVE",
"468 160 OFFCURVE",
"469 167 CURVE",
"467 186 LINE SMOOTH",
"466 194 OFFCURVE",
"463 198 OFFCURVE",
"451 209 CURVE",
"446 219 OFFCURVE",
"438 228 OFFCURVE",
"435 231 CURVE",
"420 244 LINE",
"410 259 LINE",
"408 260 OFFCURVE",
"403 263 OFFCURVE",
"402 264 CURVE",
"398 270 OFFCURVE",
"396 271 OFFCURVE",
"391 278 CURVE",
"374 287 OFFCURVE",
"372 289 OFFCURVE",
"370 292 CURVE",
"361 297 OFFCURVE",
"350 304 OFFCURVE",
"336 309 CURVE",
"362 341 OFFCURVE",
"398 391 OFFCURVE",
"402 405 CURVE SMOOTH",
"410 429 OFFCURVE",
"417 449 OFFCURVE",
"412 482 CURVE",
"410 491 OFFCURVE",
"388 529 OFFCURVE",
"378 540 CURVE SMOOTH",
"370 548 OFFCURVE",
"361 554 OFFCURVE",
"361 554 CURVE",
"356 564 OFFCURVE",
"352 566 OFFCURVE",
"343 570 CURVE",
"329 581 OFFCURVE",
"317 590 OFFCURVE",
"313 592 CURVE",
"296 602 LINE",
"278 614 OFFCURVE",
"247 627 OFFCURVE",
"246 628 CURVE",
"239 632 OFFCURVE",
"220 635 OFFCURVE",
"212 636 CURVE"
);
},
{
closed = 1;
nodes = (
"303 249 LINE",
"323 246 OFFCURVE",
"334 236 OFFCURVE",
"336 233 CURVE",
"362 216 OFFCURVE",
"369 198 OFFCURVE",
"361 180 CURVE",
"355 162 LINE",
"341 142 OFFCURVE",
"329 128 OFFCURVE",
"315 111 CURVE",
"292 90 LINE",
"268 75 OFFCURVE",
"259 70 OFFCURVE",
"240 60 CURVE",
"234 55 OFFCURVE",
"228 52 OFFCURVE",
"225 51 CURVE",
"221 51 OFFCURVE",
"220 50 OFFCURVE",
"218 49 CURVE",
"210 46 OFFCURVE",
"201 42 OFFCURVE",
"197 40 CURVE SMOOTH",
"188 36 OFFCURVE",
"185 35 OFFCURVE",
"176 35 CURVE",
"174 41 OFFCURVE",
"175 47 OFFCURVE",
"175 55 CURVE",
"169 73 OFFCURVE",
"183 90 OFFCURVE",
"176 107 CURVE",
"176 113 OFFCURVE",
"175 119 OFFCURVE",
"175 123 CURVE SMOOTH",
"175 126 OFFCURVE",
"174 129 OFFCURVE",
"174 131 CURVE",
"173 147 OFFCURVE",
"175 150 OFFCURVE",
"175 150 CURVE",
"176 165 OFFCURVE",
"176 168 OFFCURVE",
"175 171 CURVE",
"171 191 OFFCURVE",
"170 207 OFFCURVE",
"176 222 CURVE",
"176 228 OFFCURVE",
"175 240 OFFCURVE",
"175 250 CURVE",
"181 245 OFFCURVE",
"187 241 OFFCURVE",
"193 241 CURVE SMOOTH",
"199 241 OFFCURVE",
"215 246 OFFCURVE",
"217 247 CURVE",
"261 257 LINE",
"267 259 OFFCURVE",
"277 256 OFFCURVE",
"288 253 CURVE",
"287 253 OFFCURVE",
"297 250 OFFCURVE",
"302 249 CURVE"
);
},
{
closed = 1;
nodes = (
"294 504 OFFCURVE",
"307 500 OFFCURVE",
"309 476 CURVE",
"310 472 OFFCURVE",
"310 468 OFFCURVE",
"310 464 CURVE SMOOTH",
"310 461 OFFCURVE",
"311 458 OFFCURVE",
"311 457 CURVE SMOOTH",
"311 452 OFFCURVE",
"310 443 OFFCURVE",
"308 436 CURVE SMOOTH",
"304 424 OFFCURVE",
"298 414 OFFCURVE",
"296 412 CURVE",
"290 398 LINE",
"268 368 OFFCURVE",
"274 381 OFFCURVE",
"272 379 CURVE",
"267 373 LINE",
"266 371 OFFCURVE",
"263 369 OFFCURVE",
"262 367 CURVE",
"257 361 OFFCURVE",
"253 358 OFFCURVE",
"251 357 CURVE",
"245 351 LINE SMOOTH",
"236 342 OFFCURVE",
"232 337 OFFCURVE",
"226 335 CURVE",
"218 328 LINE",
"218 328 OFFCURVE",
"214 325 OFFCURVE",
"212 323 CURVE",
"196 317 LINE SMOOTH",
"190 315 OFFCURVE",
"188 314 OFFCURVE",
"187 313 CURVE",
"180 312 OFFCURVE",
"177 312 OFFCURVE",
"176 312 CURVE",
"176 312 OFFCURVE",
"178 313 OFFCURVE",
"181 348 CURVE SMOOTH",
"187 417 LINE SMOOTH",
"193 461 OFFCURVE",
"197 501 OFFCURVE",
"198 509 CURVE",
"219 520 OFFCURVE",
"230 518 OFFCURVE",
"249 514 CURVE",
"256 514 OFFCURVE",
"266 513 OFFCURVE",
"271 513 CURVE"
);
}
);
width = 482;
}
);
unicode = 0042;
},
{
color = (31,255,0,1);
glyphname = C;
lastChange = "2017-09-01 11:03:00 +0000";
layers = (
{
background = {
paths = (
{
closed = 1;
nodes = (
"203 630 OFFCURVE",
"197 629 OFFCURVE",
"191 627 CURVE",
"178 617 OFFCURVE",
"177 616 OFFCURVE",
"174 616 CURVE",
"158 607 OFFCURVE",
"157 606 OFFCURVE",
"155 603 CURVE",
"144 597 OFFCURVE",
"139 591 OFFCURVE",
"137 589 CURVE",
"122 573 OFFCURVE",
"120 571 OFFCURVE",
"118 570 CURVE",
"106 556 OFFCURVE",
"106 554 OFFCURVE",
"106 553 CURVE",
"94 543 OFFCURVE",
"90 537 OFFCURVE",
"91 534 CURVE",
"87 529 OFFCURVE",
"68 493 OFFCURVE",
"67 487 CURVE",
"63 477 OFFCURVE",
"61 469 OFFCURVE",
"60 460 CURVE",
"54 448 OFFCURVE",
"52 436 OFFCURVE",
"51 422 CURVE",
"51 398 OFFCURVE",
"50 391 OFFCURVE",
"50 387 CURVE",
"47 374 OFFCURVE",
"47 372 OFFCURVE",
"50 366 CURVE",
"49 351 OFFCURVE",
"49 350 OFFCURVE",
"50 345 CURVE",
"50 330 OFFCURVE",
"50 326 OFFCURVE",
"49 322 CURVE",
"49 318 OFFCURVE",
"49 290 OFFCURVE",
"47 286 CURVE",
"47 266 OFFCURVE",
"47 263 OFFCURVE",
"46 261 CURVE",
"45 237 OFFCURVE",
"46 233 OFFCURVE",
"47 233 CURVE",
"49 216 OFFCURVE",
"49 210 OFFCURVE",
"50 210 CURVE",
"52 192 OFFCURVE",
"52 192 OFFCURVE",
"51 190 CURVE",
"51 171 OFFCURVE",
"51 170 OFFCURVE",
"52 169 CURVE",
"54 150 OFFCURVE",
"55 149 OFFCURVE",
"56 149 CURVE",
"65 133 OFFCURVE",
"66 131 OFFCURVE",
"65 131 CURVE",
"66 113 OFFCURVE",
"66 112 OFFCURVE",
"67 111 CURVE SMOOTH",
"83 97 OFFCURVE",
"83 97 OFFCURVE",
"82 98 CURVE",
"106 81 OFFCURVE",
"121 75 OFFCURVE",
"122 56 CURVE",
"134 46 OFFCURVE",
"136 43 OFFCURVE",
"135 40 CURVE",
"153 27 LINE",
"170 27 OFFCURVE",
"180 20 OFFCURVE",
"192 15 CURVE",
"211 11 OFFCURVE",
"212 11 OFFCURVE",
"212 10 CURVE",
"233 9 OFFCURVE",
"249 -4 OFFCURVE",
"260 2 CURVE",
"276 -2 OFFCURVE",
"284 -1 OFFCURVE",
"283 -2 CURVE",
"319 0 OFFCURVE",
"324 2 OFFCURVE",
"324 5 CURVE",
"344 14 OFFCURVE",
"359 44 OFFCURVE",
"361 48 CURVE",
"379 70 OFFCURVE",
"388 94 OFFCURVE",
"391 120 CURVE",
"394 138 OFFCURVE",
"394 149 OFFCURVE",
"393 149 CURVE",
"406 171 OFFCURVE",
"379 181 OFFCURVE",
"378 181 CURVE",
"369 174 OFFCURVE",
"356 162 OFFCURVE",
"356 163 CURVE",
"341 157 OFFCURVE",
"345 151 OFFCURVE",
"345 150 CURVE",
"334 145 OFFCURVE",
"329 139 OFFCURVE",
"325 132 CURVE",
"310 126 OFFCURVE",
"302 110 OFFCURVE",
"296 92 CURVE",
"282 85 OFFCURVE",
"276 81 OFFCURVE",
"265 81 CURVE",
"240 86 OFFCURVE",
"224 95 OFFCURVE",
"223 95 CURVE SMOOTH",
"222 95 OFFCURVE",
"209 107 OFFCURVE",
"204 111 CURVE",
"195 126 OFFCURVE",
"194 130 OFFCURVE",
"190 130 CURVE",
"177 152 LINE",
"175 158 OFFCURVE",
"173 166 OFFCURVE",
"171 175 CURVE SMOOTH",
"163 204 LINE",
"161 222 OFFCURVE",
"159 291 OFFCURVE",
"160 292 CURVE",
"160 294 OFFCURVE",
"161 317 OFFCURVE",
"161 323 CURVE",
"163 337 OFFCURVE",
"163 342 OFFCURVE",
"163 345 CURVE",
"165 362 OFFCURVE",
"165 367 OFFCURVE",
"167 370 CURVE",
"168 380 OFFCURVE",
"174 405 OFFCURVE",
"174 410 CURVE",
"177 425 OFFCURVE",
"180 439 OFFCURVE",
"185 448 CURVE SMOOTH",
"190 462 OFFCURVE",
"196 470 OFFCURVE",
"201 476 CURVE",
"207 494 OFFCURVE",
"211 504 OFFCURVE",
"225 525 CURVE SMOOTH",
"232 534 OFFCURVE",
"238 538 OFFCURVE",
"248 542 CURVE",
"262 545 OFFCURVE",
"278 541 OFFCURVE",
"282 536 CURVE",
"287 529 OFFCURVE",
"305 518 OFFCURVE",
"304 517 CURVE",
"315 501 OFFCURVE",
"316 484 OFFCURVE",
"308 464 CURVE",
"307 456 OFFCURVE",
"299 438 OFFCURVE",
"299 435 CURVE SMOOTH",
"299 428 OFFCURVE",
"305 421 OFFCURVE",
"305 420 CURVE",
"313 412 OFFCURVE",
"324 407 OFFCURVE",
"327 407 CURVE",
"350 401 OFFCURVE",
"381 407 OFFCURVE",
"389 408 CURVE",
"397 419 OFFCURVE",
"399 422 OFFCURVE",
"399 423 CURVE",
"401 427 OFFCURVE",
"406 439 OFFCURVE",
"408 446 CURVE",
"410 461 OFFCURVE",
"412 464 OFFCURVE",
"412 472 CURVE",
"414 481 OFFCURVE",
"413 499 OFFCURVE",
"410 511 CURVE",
"406 545 OFFCURVE",
"391 574 OFFCURVE",
"365 594 CURVE",
"356 600 OFFCURVE",
"339 612 OFFCURVE",
"333 615 CURVE",
"307 623 LINE SMOOTH",
"296 627 OFFCURVE",
"275 630 OFFCURVE",
"269 630 CURVE SMOOTH",
"247 631 LINE SMOOTH",
"229 632 OFFCURVE",
"223 632 OFFCURVE",
"221 631 CURVE"
);
}
);
};
layerId = UUID0;
paths = (
{
closed = 1;
nodes = (
"173 617 OFFCURVE",
"172 616 OFFCURVE",
"169 616 CURVE",
"154 608 OFFCURVE",
"150 605 OFFCURVE",
"148 603 CURVE",
"137 597 OFFCURVE",
"133 593 OFFCURVE",
"131 590 CURVE",
"116 573 OFFCURVE",
"114 571 OFFCURVE",
"112 570 CURVE",
"99 556 OFFCURVE",
"98 552 OFFCURVE",
"98 551 CURVE",
"87 542 OFFCURVE",
"83 534 OFFCURVE",
"83 531 CURVE",
"77 521 OFFCURVE",
"60 491 OFFCURVE",
"59 486 CURVE",
"56 475 OFFCURVE",
"54 467 OFFCURVE",
"53 459 CURVE",
"48 446 OFFCURVE",
"45 434 OFFCURVE",
"44 421 CURVE",
"44 404 OFFCURVE",
"43 396 OFFCURVE",
"43 391 CURVE",
"40 376 OFFCURVE",
"40 373 OFFCURVE",
"44 365 CURVE",
"42 352 OFFCURVE",
"42 348 OFFCURVE",
"43 344 CURVE",
"43 339 OFFCURVE",
"43 326 OFFCURVE",
"42 323 CURVE",
"42 319 OFFCURVE",
"42 289 OFFCURVE",
"40 285 CURVE",
"40 266 OFFCURVE",
"40 263 OFFCURVE",
"39 261 CURVE",
"38 244 OFFCURVE",
"40 236 OFFCURVE",
"43 233 CURVE",
"41 228 OFFCURVE",
"42 223 OFFCURVE",
"42 219 CURVE",
"43 211 LINE",
"45 192 OFFCURVE",
"45 192 OFFCURVE",
"44 190 CURVE",
"44 178 OFFCURVE",
"44 173 OFFCURVE",
"45 170 CURVE",
"46 158 OFFCURVE",
"49 152 OFFCURVE",
"52 149 CURVE",
"58 136 OFFCURVE",
"53 124 OFFCURVE",
"61 111 CURVE",
"81 62 OFFCURVE",
"126 42 OFFCURVE",
"157 19 CURVE",
"165 14 OFFCURVE",
"171 13 OFFCURVE",
"175 13 CURVE",
"188 10 LINE",
"192 10 OFFCURVE",
"204 6 OFFCURVE",
"211 4 CURVE",
"219 1 OFFCURVE",
"230 -1 OFFCURVE",
"238 1 CURVE",
"244 0 OFFCURVE",
"250 -1 OFFCURVE",
"254 -1 CURVE SMOOTH",
"297 1 OFFCURVE",
"329 5 OFFCURVE",
"330 9 CURVE",
"349 22 OFFCURVE",
"364 45 OFFCURVE",
"366 50 CURVE",
"384 73 OFFCURVE",
"393 96 OFFCURVE",
"396 122 CURVE SMOOTH",
"397 136 OFFCURVE",
"396 147 OFFCURVE",
"393 152 CURVE",
"378 169 OFFCURVE",
"359 171 OFFCURVE",
"336 154 CURVE",
"326 148 OFFCURVE",
"320 141 OFFCURVE",
"316 135 CURVE",
"297 113 OFFCURVE",
"281 91 OFFCURVE",
"266 88 CURVE SMOOTH",
"250 85 OFFCURVE",
"236 96 OFFCURVE",
"229 99 CURVE",
"227 99 OFFCURVE",
"225 100 OFFCURVE",
"223 100 CURVE",
"226 101 OFFCURVE",
"221 104 OFFCURVE",
"217 108 CURVE",
"215 111 OFFCURVE",
"211 113 OFFCURVE",
"209 115 CURVE",
"204 125 OFFCURVE",
"200 131 OFFCURVE",
"196 133 CURVE",
"183 155 LINE",
"178 177 LINE SMOOTH",
"176 186 OFFCURVE",
"172 196 OFFCURVE",
"170 205 CURVE",
"169 227 OFFCURVE",
"166 290 OFFCURVE",
"168 292 CURVE",
"168 301 LINE SMOOTH",
"168 308 OFFCURVE",
"169 318 OFFCURVE",
"169 323 CURVE SMOOTH",
"169 331 OFFCURVE",
"170 343 OFFCURVE",
"170 345 CURVE SMOOTH",
"170 349 OFFCURVE",
"171 352 OFFCURVE",
"171 355 CURVE",
"172 364 OFFCURVE",
"172 368 OFFCURVE",
"174 370 CURVE",
"174 374 OFFCURVE",
"176 383 OFFCURVE",
"178 390 CURVE SMOOTH",
"180 397 OFFCURVE",
"181 404 OFFCURVE",
"181 408 CURVE",
"184 424 OFFCURVE",
"187 440 OFFCURVE",
"193 449 CURVE",
"198 462 OFFCURVE",
"204 470 OFFCURVE",
"209 476 CURVE",
"215 494 OFFCURVE",
"219 503 OFFCURVE",
"231 521 CURVE SMOOTH",
"237 531 OFFCURVE",
"242 534 OFFCURVE",
"250 537 CURVE",
"259 539 OFFCURVE",
"270 536 OFFCURVE",
"274 533 CURVE",
"277 529 OFFCURVE",
"286 523 OFFCURVE",
"291 519 CURVE SMOOTH",
"295 516 OFFCURVE",
"295 513 OFFCURVE",
"295 513 CURVE",
"305 498 OFFCURVE",
"306 481 OFFCURVE",
"297 459 CURVE",
"297 462 OFFCURVE",
"294 451 OFFCURVE",
"292 445 CURVE SMOOTH",
"290 439 OFFCURVE",
"289 434 OFFCURVE",
"289 434 CURVE",
"289 428 OFFCURVE",
"291 425 OFFCURVE",
"292 423 CURVE",
"303 410 OFFCURVE",
"317 404 OFFCURVE",
"323 403 CURVE",
"344 398 OFFCURVE",
"371 401 OFFCURVE",
"384 403 CURVE",
"386 403 OFFCURVE",
"390 404 OFFCURVE",
"391 404 CURVE",
"403 421 LINE",
"413 444 LINE",
"416 459 LINE",
"417 461 OFFCURVE",
"417 467 OFFCURVE",
"417 470 CURVE",
"419 479 OFFCURVE",
"418 499 OFFCURVE",
"415 510 CURVE",
"411 543 OFFCURVE",
"395 573 OFFCURVE",
"368 594 CURVE",
"367 594 OFFCURVE",
"362 597 OFFCURVE",
"358 600 CURVE",
"349 605 OFFCURVE",
"335 613 OFFCURVE",
"333 615 CURVE",
"308 623 LINE SMOOTH",
"297 627 OFFCURVE",
"275 630 OFFCURVE",
"268 630 CURVE SMOOTH",
"263 630 OFFCURVE",
"252 631 OFFCURVE",
"246 631 CURVE",
"231 632 OFFCURVE",
"218 632 OFFCURVE",
"216 631 CURVE",
"199 630 OFFCURVE",
"192 629 OFFCURVE",
"187 627 CURVE"
);
}
);
width = 443;
}
);
unicode = 0043;
},
{
color = (31,255,0,1);
glyphname = D;
lastChange = "2017-09-01 11:03:00 +0000";
layers = (
{
background = {
paths = (
{
closed = 1;
nodes = (
"128 462 LINE",
"129 446 OFFCURVE",
"128 409 OFFCURVE",
"125 406 CURVE",
"126 388 OFFCURVE",
"125 385 OFFCURVE",
"124 382 CURVE",
"122 376 OFFCURVE",
"122 343 OFFCURVE",
"123 337 CURVE",
"120 331 OFFCURVE",
"119 305 OFFCURVE",
"121 304 CURVE",
"121 302 OFFCURVE",
"119 295 OFFCURVE",
"119 284 CURVE",
"115 256 OFFCURVE",
"116 241 OFFCURVE",
"117 240 CURVE",
"114 218 OFFCURVE",
"112 198 OFFCURVE",
"112 193 CURVE SMOOTH",
"112 169 OFFCURVE",
"110 160 OFFCURVE",
"110 160 CURVE",
"106 140 OFFCURVE",
"106 139 OFFCURVE",
"106 139 CURVE",
"106 120 OFFCURVE",
"106 119 OFFCURVE",
"107 117 CURVE",
"107 90 OFFCURVE",
"107 90 OFFCURVE",
"108 89 CURVE",
"110 72 OFFCURVE",
"111 68 OFFCURVE",
"111 66 CURVE",
"113 55 OFFCURVE",
"120 21 OFFCURVE",
"125 18 CURVE",
"136 6 OFFCURVE",
"139 5 OFFCURVE",
"142 3 CURVE",
"154 -9 OFFCURVE",
"157 -12 OFFCURVE",
"158 -12 CURVE",
"178 -32 OFFCURVE",
"188 -32 OFFCURVE",
"190 -34 CURVE",
"191 -36 OFFCURVE",
"208 -36 OFFCURVE",
"216 -35 CURVE",
"221 -34 OFFCURVE",
"239 -29 OFFCURVE",
"244 -26 CURVE",
"254 -17 OFFCURVE",
"283 -7 OFFCURVE",
"307 6 CURVE",
"324 13 OFFCURVE",
"331 19 OFFCURVE",
"334 20 CURVE",
"351 34 OFFCURVE",
"357 37 OFFCURVE",
"363 46 CURVE",
"389 70 OFFCURVE",
"390 72 OFFCURVE",
"392 74 CURVE",
"404 89 OFFCURVE",
"423 113 OFFCURVE",
"434 130 CURVE",
"442 144 OFFCURVE",
"456 165 OFFCURVE",
"456 169 CURVE",
"462 181 OFFCURVE",
"466 192 OFFCURVE",
"467 199 CURVE",
"470 205 OFFCURVE",
"478 219 OFFCURVE",
"478 224 CURVE",
"494 269 OFFCURVE",
"496 289 OFFCURVE",
"500 332 CURVE",
"500 377 OFFCURVE",
"500 380 OFFCURVE",
"499 400 CURVE",
"492 448 OFFCURVE",
"479 486 OFFCURVE",
"453 534 CURVE",
"445 550 OFFCURVE",
"425 574 OFFCURVE",
"422 572 CURVE",
"410 585 OFFCURVE",
"407 586 OFFCURVE",
"405 589 CURVE",
"360 612 LINE",
"355 614 OFFCURVE",
"341 618 OFFCURVE",
"331 626 CURVE",
"314 632 OFFCURVE",
"296 627 OFFCURVE",
"295 630 CURVE",
"276 633 OFFCURVE",
"275 634 OFFCURVE",
"274 634 CURVE",
"270 640 OFFCURVE",
"263 633 OFFCURVE",
"251 637 CURVE",
"237 635 OFFCURVE",
"232 636 OFFCURVE",
"230 637 CURVE",
"213 634 OFFCURVE",
"200 634 OFFCURVE",
"200 633 CURVE",
"180 628 OFFCURVE",
"177 625 OFFCURVE",
"176 624 CURVE",
"147 612 OFFCURVE",
"144 612 OFFCURVE",
"142 612 CURVE",
"126 608 OFFCURVE",
"124 605 OFFCURVE",
"122 602 CURVE",
"102 586 OFFCURVE",
"99 580 OFFCURVE",
"99 576 CURVE",
"74 548 OFFCURVE",
"73 548 OFFCURVE",
"75 548 CURVE",
"72 533 OFFCURVE",
"72 533 OFFCURVE",
"67 528 CURVE",
"64 523 OFFCURVE",
"54 510 OFFCURVE",
"52 508 CURVE",
"41 476 OFFCURVE",
"36 467 OFFCURVE",
"29 457 CURVE",
"21 441 OFFCURVE",
"20 433 OFFCURVE",
"18 432 CURVE",
"12 411 OFFCURVE",
"12 415 OFFCURVE",
"11 409 CURVE",
"13 395 OFFCURVE",
"21 391 OFFCURVE",
"30 389 CURVE SMOOTH",
"49 383 OFFCURVE",
"55 383 OFFCURVE",
"62 387 CURVE",
"77 410 OFFCURVE",
"91 424 OFFCURVE",
"101 432 CURVE",
"108 440 OFFCURVE",
"112 442 OFFCURVE",
"117 445 CURVE",
"127 455 OFFCURVE",
"149 471 OFFCURVE",
"150 471 CURVE",
"223 494 LINE",
"249 508 OFFCURVE",
"274 524 OFFCURVE",
"286 523 CURVE",
"299 527 OFFCURVE",
"319 524 OFFCURVE",
"341 519 CURVE",
"357 516 OFFCURVE",
"370 487 OFFCURVE",
"380 475 CURVE",
"386 468 OFFCURVE",
"395 452 OFFCURVE",
"395 450 CURVE",
"405 415 OFFCURVE",
"409 407 OFFCURVE",
"409 387 CURVE",
"410 376 OFFCURVE",
"411 368 OFFCURVE",
"411 357 CURVE",
"409 348 OFFCURVE",
"409 334 OFFCURVE",
"408 326 CURVE SMOOTH",
"408 320 OFFCURVE",
"407 300 OFFCURVE",
"407 294 CURVE",
"402 275 OFFCURVE",
"400 270 OFFCURVE",
"399 268 CURVE",
"391 235 OFFCURVE",
"391 231 OFFCURVE",
"379 215 CURVE",
"370 195 LINE",
"361 179 OFFCURVE",
"360 172 OFFCURVE",
"358 171 CURVE",
"340 149 OFFCURVE",
"337 139 OFFCURVE",
"332 136 CURVE",
"320 125 OFFCURVE",
"317 122 OFFCURVE",
"313 121 CURVE",
"306 114 OFFCURVE",
"291 104 OFFCURVE",
"282 96 CURVE SMOOTH",
"261 79 LINE SMOOTH",
"250 68 OFFCURVE",
"237 63 OFFCURVE",
"235 63 CURVE",
"217 56 OFFCURVE",
"216 57 OFFCURVE",
"214 60 CURVE",
"213 64 OFFCURVE",
"220 192 OFFCURVE",
"224 245 CURVE SMOOTH",
"230 325 OFFCURVE",
"233 337 OFFCURVE",
"233 350 CURVE",
"236 375 OFFCURVE",
"237 387 OFFCURVE",
"239 398 CURVE",
"240 411 OFFCURVE",
"240 421 OFFCURVE",
"240 422 CURVE",
"241 423 OFFCURVE",
"241 440 OFFCURVE",
"245 458 CURVE",
"245 469 OFFCURVE",
"247 511 OFFCURVE",
"247 518 CURVE"
);
}
);
};
layerId = UUID0;
paths = (
{
closed = 1;
nodes = (
"118 388 OFFCURVE",
"117 385 OFFCURVE",
"116 383 CURVE",
"114 377 OFFCURVE",
"114 343 OFFCURVE",
"115 337 CURVE",
"112 315 OFFCURVE",
"119 300 OFFCURVE",
"111 284 CURVE",
"108 260 OFFCURVE",
"108 242 OFFCURVE",
"110 239 CURVE",
"106 219 OFFCURVE",
"104 199 OFFCURVE",
"104 194 CURVE SMOOTH",
"104 171 OFFCURVE",
"102 163 OFFCURVE",
"102 163 CURVE",
"98 143 OFFCURVE",
"98 141 OFFCURVE",
"98 141 CURVE",
"98 123 OFFCURVE",
"98 122 OFFCURVE",
"100 118 CURVE",
"99 101 OFFCURVE",
"99 94 OFFCURVE",
"100 91 CURVE",
"102 73 LINE",
"102 71 OFFCURVE",
"103 68 OFFCURVE",
"103 67 CURVE",
"105 57 OFFCURVE",
"112 29 OFFCURVE",
"119 19 CURVE",
"125 13 OFFCURVE",
"133 8 OFFCURVE",
"137 5 CURVE",
"145 -5 OFFCURVE",
"149 -10 OFFCURVE",
"153 -11 CURVE",
"165 -24 OFFCURVE",
"175 -29 OFFCURVE",
"182 -32 CURVE",
"188 -37 OFFCURVE",
"208 -36 OFFCURVE",
"218 -35 CURVE",
"223 -34 OFFCURVE",
"241 -29 OFFCURVE",
"246 -26 CURVE",
"252 -21 OFFCURVE",
"266 -15 OFFCURVE",
"279 -9 CURVE SMOOTH",
"309 6 LINE SMOOTH",
"320 12 OFFCURVE",
"327 15 OFFCURVE",
"331 18 CURVE",
"337 21 LINE",
"349 31 LINE SMOOTH",
"358 38 OFFCURVE",
"366 46 OFFCURVE",
"367 47 CURVE SMOOTH",
"395 73 LINE",
"409 92 OFFCURVE",
"430 118 OFFCURVE",
"438 130 CURVE SMOOTH",
"447 145 LINE SMOOTH",
"455 157 OFFCURVE",
"461 167 OFFCURVE",
"461 170 CURVE",
"467 182 OFFCURVE",
"471 194 OFFCURVE",
"472 200 CURVE",
"477 209 OFFCURVE",
"482 219 OFFCURVE",
"483 224 CURVE",
"498 266 OFFCURVE",
"501 289 OFFCURVE",
"505 332 CURVE",
"505 377 OFFCURVE",
"505 380 OFFCURVE",
"504 399 CURVE",
"497 445 OFFCURVE",
"483 486 OFFCURVE",
"457 533 CURVE SMOOTH",
"418 580 OFFCURVE",
"414 583 OFFCURVE",
"412 585 CURVE",
"361 612 LINE",
"353 614 OFFCURVE",
"341 619 OFFCURVE",
"334 625 CURVE",
"321 630 OFFCURVE",
"309 629 OFFCURVE",
"301 629 CURVE",
"271 641 OFFCURVE",
"233 640 OFFCURVE",
"204 634 CURVE",
"199 634 OFFCURVE",
"196 633 OFFCURVE",
"196 633 CURVE",
"174 627 OFFCURVE",
"171 624 OFFCURVE",
"170 623 CURVE",
"144 612 OFFCURVE",
"142 612 OFFCURVE",
"140 612 CURVE",
"119 607 OFFCURVE",
"117 605 OFFCURVE",
"115 602 CURVE",
"96 585 OFFCURVE",
"91 577 OFFCURVE",
"91 574 CURVE",
"75 556 LINE",
"71 551 OFFCURVE",
"69 548 OFFCURVE",
"68 546 CURVE",
"65 531 OFFCURVE",
"65 531 OFFCURVE",
"60 526 CURVE",
"57 521 OFFCURVE",
"46 507 OFFCURVE",
"44 505 CURVE",
"33 476 OFFCURVE",
"29 468 OFFCURVE",
"24 460 CURVE",
"19 448 OFFCURVE",
"14 436 OFFCURVE",
"14 438 CURVE",
"8 419 OFFCURVE",
"6 415 OFFCURVE",
"6 414 CURVE",
"4 410 OFFCURVE",
"4 410 OFFCURVE",
"4 408 CURVE",
"7 393 OFFCURVE",
"18 388 OFFCURVE",
"29 385 CURVE SMOOTH",
"47 380 OFFCURVE",
"61 380 OFFCURVE",
"70 389 CURVE SMOOTH",
"92 410 OFFCURVE",
"100 425 OFFCURVE",
"109 432 CURVE",
"109 432 OFFCURVE",
"115 436 OFFCURVE",
"120 440 CURVE",
"120 424 OFFCURVE",
"119 407 OFFCURVE",
"117 405 CURVE"
);
},
{
closed = 1;
nodes = (
"297 521 OFFCURVE",
"318 521 OFFCURVE",
"337 510 CURVE SMOOTH",
"381 485 OFFCURVE",
"396 440 OFFCURVE",
"399 386 CURVE",
"401 376 OFFCURVE",
"401 362 OFFCURVE",
"401 357 CURVE",
"400 351 OFFCURVE",
"399 343 OFFCURVE",
"399 337 CURVE SMOOTH",
"399 333 OFFCURVE",
"398 329 OFFCURVE",
"398 326 CURVE SMOOTH",
"398 323 OFFCURVE",
"397 316 OFFCURVE",
"397 310 CURVE SMOOTH",
"397 295 LINE",
"392 276 OFFCURVE",
"390 271 OFFCURVE",
"389 269 CURVE",
"389 266 OFFCURVE",
"387 264 OFFCURVE",
"387 261 CURVE",
"380 234 OFFCURVE",
"378 227 OFFCURVE",
"370 216 CURVE",
"361 197 LINE",
"350 175 LINE",
"320 139 OFFCURVE",
"334 153 OFFCURVE",
"331 149 CURVE",
"327 143 OFFCURVE",
"325 140 OFFCURVE",
"324 140 CURVE",
"312 128 OFFCURVE",
"310 126 OFFCURVE",
"305 125 CURVE",
"300 120 OFFCURVE",
"294 115 OFFCURVE",
"291 112 CURVE",
"286 108 OFFCURVE",
"279 104 OFFCURVE",
"275 100 CURVE",
"252 81 LINE",
"243 72 OFFCURVE",
"233 68 OFFCURVE",
"231 68 CURVE",
"223 65 OFFCURVE",
"222 64 OFFCURVE",
"221 64 CURVE",
"220 68 OFFCURVE",
"227 193 OFFCURVE",
"231 246 CURVE SMOOTH",
"234 290 OFFCURVE",
"237 314 OFFCURVE",
"238 328 CURVE SMOOTH",
"240 350 LINE",
"240 357 OFFCURVE",
"242 364 OFFCURVE",
"242 371 CURVE",
"243 383 OFFCURVE",
"245 390 OFFCURVE",
"246 397 CURVE SMOOTH",
"247 405 OFFCURVE",
"247 416 OFFCURVE",
"247 420 CURVE",
"247 420 OFFCURVE",
"248 424 OFFCURVE",
"248 428 CURVE",
"252 457 LINE",
"252 463 OFFCURVE",
"252 479 OFFCURVE",
"253 493 CURVE",
"253 504 LINE",
"267 512 OFFCURVE",
"281 518 OFFCURVE",
"287 518 CURVE"
);
}
);
width = 534;
}
);
unicode = 0044;
},
{
color = (31,255,0,1);
glyphname = E;
lastChange = "2017-09-01 11:03:00 +0000";
layers = (
{
background = {
paths = (
{
closed = 1;
nodes = (
"181 243 LINE",
"194 245 OFFCURVE",
"196 245 OFFCURVE",
"211 255 CURVE",
"230 264 OFFCURVE",
"232 267 OFFCURVE",
"238 270 CURVE SMOOTH",
"256 279 LINE SMOOTH",
"263 283 OFFCURVE",
"275 287 OFFCURVE",
"286 294 CURVE SMOOTH",
"309 306 OFFCURVE",
"321 314 OFFCURVE",
"326 318 CURVE",
"343 328 LINE",
"355 336 OFFCURVE",
"361 341 OFFCURVE",
"363 344 CURVE SMOOTH",
"369 356 OFFCURVE",
"370 360 OFFCURVE",
"371 363 CURVE",
"353 368 OFFCURVE",
"346 367 OFFCURVE",
"346 366 CURVE",
"329 367 OFFCURVE",
"326 366 OFFCURVE",
"324 365 CURVE",
"300 361 LINE",
"285 357 OFFCURVE",
"281 355 OFFCURVE",
"278 355 CURVE SMOOTH",
"263 352 OFFCURVE",
"261 352 OFFCURVE",
"257 352 CURVE",
"252 353 OFFCURVE",
"231 353 OFFCURVE",
"231 351 CURVE",
"219 346 OFFCURVE",
"217 346 OFFCURVE",
"210 344 CURVE SMOOTH",
"205 342 OFFCURVE",
"202 342 OFFCURVE",
"193 340 CURVE",
"171 333 LINE",
"172 335 OFFCURVE",
"172 335 OFFCURVE",
"172 335 CURVE",
"171 335 OFFCURVE",
"172 345 OFFCURVE",
"177 373 CURVE",
"186 404 OFFCURVE",
"188 418 OFFCURVE",
"200 457 CURVE SMOOTH",
"205 478 OFFCURVE",
"207 481 OFFCURVE",
"207 482 CURVE SMOOTH",
"213 500 OFFCURVE",
"226 506 OFFCURVE",
"232 510 CURVE",
"242 514 OFFCURVE",
"241 514 OFFCURVE",
"276 530 CURVE SMOOTH",
"322 555 LINE",
"333 559 OFFCURVE",
"345 565 OFFCURVE",
"350 568 CURVE",
"375 578 OFFCURVE",
"382 588 OFFCURVE",
"384 595 CURVE",
"372 616 OFFCURVE",
"367 619 OFFCURVE",
"367 620 CURVE SMOOTH",
"355 630 OFFCURVE",
"347 635 OFFCURVE",
"344 636 CURVE",
"329 636 OFFCURVE",
"320 636 OFFCURVE",
"315 637 CURVE SMOOTH",
"302 637 OFFCURVE",
"277 635 OFFCURVE",
"274 634 CURVE",
"255 634 OFFCURVE",
"253 633 OFFCURVE",
"251 632 CURVE",
"232 631 OFFCURVE",
"224 633 OFFCURVE",
"218 637 CURVE SMOOTH",
"210 642 OFFCURVE",
"210 642 OFFCURVE",
"197 647 CURVE",
"185 649 OFFCURVE",
"177 651 OFFCURVE",
"174 649 CURVE",
"164 646 OFFCURVE",
"157 643 OFFCURVE",
"153 637 CURVE SMOOTH",
"140 619 LINE",
"129 597 LINE",
"117 571 LINE",
"117 570 OFFCURVE",
"115 564 OFFCURVE",
"109 549 CURVE SMOOTH",
"106 535 OFFCURVE",
"100 520 OFFCURVE",
"100 515 CURVE",
"94 495 OFFCURVE",
"94 492 OFFCURVE",
"94 487 CURVE",
"86 470 LINE",
"85 455 OFFCURVE",
"81 445 OFFCURVE",
"80 443 CURVE SMOOTH",
"76 429 OFFCURVE",
"75 425 OFFCURVE",
"75 425 CURVE",
"70 405 OFFCURVE",
"70 403 OFFCURVE",
"69 403 CURVE",
"64 384 OFFCURVE",
"63 382 OFFCURVE",
"63 377 CURVE",
"58 357 OFFCURVE",
"57 346 OFFCURVE",
"58 345 CURVE",
"56 330 OFFCURVE",
"56 327 OFFCURVE",
"54 322 CURVE",
"52 308 OFFCURVE",
"49 300 OFFCURVE",
"49 289 CURVE",
"44 274 OFFCURVE",
"42 259 OFFCURVE",
"42 250 CURVE",
"40 234 OFFCURVE",
"39 228 OFFCURVE",
"39 226 CURVE SMOOTH",
"37 198 OFFCURVE",
"40 187 OFFCURVE",
"43 168 CURVE SMOOTH",
"48 145 OFFCURVE",
"50 136 OFFCURVE",
"51 135 CURVE",
"52 118 OFFCURVE",
"53 111 OFFCURVE",
"57 104 CURVE",
"61 89 OFFCURVE",
"62 86 OFFCURVE",
"63 86 CURVE",
"70 66 OFFCURVE",
"71 65 OFFCURVE",
"72 64 CURVE SMOOTH",
"84 47 OFFCURVE",
"84 46 OFFCURVE",
"84 45 CURVE",
"90 31 OFFCURVE",
"90 27 OFFCURVE",
"94 25 CURVE SMOOTH",
"107 15 OFFCURVE",
"107 15 OFFCURVE",
"107 12 CURVE",
"122 3 OFFCURVE",
"123 2 OFFCURVE",
"123 2 CURVE",
"138 -3 OFFCURVE",
"139 -4 OFFCURVE",
"139 -7 CURVE",
"159 -11 OFFCURVE",
"162 -12 OFFCURVE",
"162 -12 CURVE",
"180 -17 OFFCURVE",
"183 -18 OFFCURVE",
"183 -17 CURVE",
"199 -22 OFFCURVE",
"203 -23 OFFCURVE",
"206 -22 CURVE SMOOTH",
"226 -26 OFFCURVE",
"226 -26 OFFCURVE",
"227 -26 CURVE SMOOTH",
"243 -30 OFFCURVE",
"248 -29 OFFCURVE",
"254 -26 CURVE",
"272 -14 OFFCURVE",
"276 -12 OFFCURVE",
"282 -12 CURVE",
"295 -5 OFFCURVE",
"321 17 OFFCURVE",
"329 26 CURVE SMOOTH",
"340 38 OFFCURVE",
"351 50 OFFCURVE",
"351 51 CURVE SMOOTH",
"358 63 OFFCURVE",
"365 74 OFFCURVE",
"367 82 CURVE",
"375 98 OFFCURVE",
"375 101 OFFCURVE",
"376 106 CURVE",
"361 125 OFFCURVE",
"359 125 OFFCURVE",
"355 124 CURVE",
"338 111 OFFCURVE",
"335 108 OFFCURVE",
"334 108 CURVE SMOOTH",
"318 97 OFFCURVE",
"316 95 OFFCURVE",
"312 95 CURVE",
"299 90 OFFCURVE",
"297 88 OFFCURVE",
"293 88 CURVE",
"274 80 OFFCURVE",
"268 79 OFFCURVE",
"267 77 CURVE",
"251 71 OFFCURVE",
"244 67 OFFCURVE",
"242 67 CURVE SMOOTH",
"224 60 OFFCURVE",
"218 60 OFFCURVE",
"210 60 CURVE",
"190 65 LINE",
"176 84 OFFCURVE",
"174 87 OFFCURVE",
"174 88 CURVE SMOOTH",
"167 104 OFFCURVE",
"166 107 OFFCURVE",
"166 112 CURVE",
"160 132 OFFCURVE",
"160 135 OFFCURVE",
"161 136 CURVE",
"156 141 OFFCURVE",
"156 158 OFFCURVE",
"155 182 CURVE SMOOTH",
"154 210 OFFCURVE",
"153 223 OFFCURVE",
"155 233 CURVE SMOOTH",
"156 238 OFFCURVE",
"155 245 OFFCURVE",
"157 254 CURVE"
);
}
);
};
layerId = UUID0;
paths = (
{
closed = 1;
nodes = (
"178 241 LINE",
"195 243 OFFCURVE",
"198 244 OFFCURVE",
"213 253 CURVE",
"226 259 OFFCURVE",
"231 263 OFFCURVE",
"235 265 CURVE SMOOTH",
"259 276 LINE",
"270 282 LINE",
"288 291 LINE SMOOTH",
"307 301 OFFCURVE",
"321 310 OFFCURVE",
"328 315 CURVE",
"339 322 LINE SMOOTH",
"359 335 OFFCURVE",
"363 340 OFFCURVE",
"360 355 CURVE SMOOTH",
"358 365 OFFCURVE",
"344 371 OFFCURVE",
"340 369 CURVE",
"322 370 OFFCURVE",
"320 369 OFFCURVE",
"318 368 CURVE",
"296 364 LINE",
"281 360 LINE SMOOTH",
"277 359 OFFCURVE",
"272 358 OFFCURVE",
"274 358 CURVE",
"260 355 OFFCURVE",
"259 355 OFFCURVE",
"256 355 CURVE",
"253 356 OFFCURVE",
"236 355 OFFCURVE",
"227 354 CURVE",
"218 350 OFFCURVE",
"213 348 OFFCURVE",
"212 348 CURVE",
"200 345 LINE",
"195 345 OFFCURVE",
"192 344 OFFCURVE",
"189 343 CURVE",
"185 342 OFFCURVE",
"183 342 OFFCURVE",
"178 340 CURVE",
"178 342 OFFCURVE",
"180 348 OFFCURVE",
"184 372 CURVE",
"193 404 LINE SMOOTH",
"197 418 OFFCURVE",
"200 433 OFFCURVE",
"207 455 CURVE SMOOTH",
"213 476 OFFCURVE",
"214 482 OFFCURVE",
"215 483 CURVE",
"219 495 OFFCURVE",
"228 500 OFFCURVE",
"234 504 CURVE",
"243 508 OFFCURVE",
"245 509 OFFCURVE",
"251 512 CURVE",
"256 515 OFFCURVE",
"265 518 OFFCURVE",
"278 525 CURVE SMOOTH",
"324 550 LINE",
"336 555 OFFCURVE",
"348 560 OFFCURVE",
"352 563 CURVE",
"376 576 OFFCURVE",
"392 588 OFFCURVE",
"371 617 CURVE",
"356 636 OFFCURVE",
"341 636 OFFCURVE",
"315 637 CURVE",
"301 637 OFFCURVE",
"275 635 OFFCURVE",
"270 634 CURVE",
"250 634 OFFCURVE",
"248 633 OFFCURVE",
"246 632 CURVE",
"232 632 OFFCURVE",
"226 633 OFFCURVE",
"221 636 CURVE",
"215 641 OFFCURVE",
"215 641 OFFCURVE",
"199 647 CURVE",
"197 647 OFFCURVE",
"194 648 OFFCURVE",
"192 648 CURVE",
"181 651 OFFCURVE",
"172 652 OFFCURVE",
"167 648 CURVE",
"159 645 OFFCURVE",
"150 640 OFFCURVE",
"146 636 CURVE",
"134 620 LINE",
"122 596 LINE",
"109 568 LINE",
"109 566 OFFCURVE",
"107 560 OFFCURVE",
"101 545 CURVE",
"96 528 LINE",
"94 523 OFFCURVE",
"92 518 OFFCURVE",
"92 514 CURVE",
"88 499 OFFCURVE",
"86 491 OFFCURVE",
"86 486 CURVE",
"78 467 LINE",
"77 452 OFFCURVE",
"72 440 OFFCURVE",
"71 438 CURVE",
"68 426 OFFCURVE",
"67 425 OFFCURVE",
"67 425 CURVE",
"65 419 OFFCURVE",
"65 414 OFFCURVE",
"64 411 CURVE",
"62 406 OFFCURVE",
"62 405 OFFCURVE",
"62 405 CURVE",
"58 392 LINE SMOOTH",
"56 385 OFFCURVE",
"55 383 OFFCURVE",
"55 378 CURVE",
"51 361 OFFCURVE",
"50 348 OFFCURVE",
"51 344 CURVE",
"50 342 OFFCURVE",
"50 339 OFFCURVE",
"50 337 CURVE",
"49 328 OFFCURVE",
"48 325 OFFCURVE",
"47 321 CURVE",
"47 317 OFFCURVE",
"45 312 OFFCURVE",
"45 308 CURVE",
"44 301 OFFCURVE",
"42 289 OFFCURVE",
"42 288 CURVE",
"36 273 OFFCURVE",
"35 258 OFFCURVE",
"35 251 CURVE",
"34 245 OFFCURVE",
"33 240 OFFCURVE",
"33 237 CURVE",
"32 233 OFFCURVE",
"32 228 OFFCURVE",
"32 227 CURVE",
"31 203 OFFCURVE",
"33 192 OFFCURVE",
"35 177 CURVE",
"35 174 OFFCURVE",
"36 171 OFFCURVE",
"36 168 CURVE",
"40 149 OFFCURVE",
"42 140 OFFCURVE",
"45 136 CURVE",
"45 121 OFFCURVE",
"46 114 OFFCURVE",
"50 105 CURVE",
"51 96 OFFCURVE",
"53 90 OFFCURVE",
"55 87 CURVE",
"60 73 OFFCURVE",
"63 66 OFFCURVE",
"66 64 CURVE",
"75 49 LINE",
"75 48 OFFCURVE",
"78 40 OFFCURVE",
"80 36 CURVE",
"82 30 OFFCURVE",
"83 28 OFFCURVE",
"90 25 CURVE",
"99 18 OFFCURVE",
"99 18 OFFCURVE",
"99 14 CURVE",
"117 3 LINE",
"130 -2 OFFCURVE",
"131 -3 OFFCURVE",
"131 -6 CURVE",
"156 -11 OFFCURVE",
"159 -12 OFFCURVE",
"159 -12 CURVE",
"160 -12 OFFCURVE",
"164 -14 OFFCURVE",
"166 -14 CURVE",
"178 -17 OFFCURVE",
"185 -17 OFFCURVE",
"185 -16 CURVE",
"198 -21 OFFCURVE",
"200 -22 OFFCURVE",
"203 -22 CURVE",
"219 -26 OFFCURVE",
"221 -26 OFFCURVE",
"224 -26 CURVE",
"243 -30 OFFCURVE",
"263 -21 OFFCURVE",
"284 -12 CURVE",
"298 -4 OFFCURVE",
"325 18 OFFCURVE",
"333 27 CURVE SMOOTH",
"345 40 OFFCURVE",
"357 53 OFFCURVE",
"357 54 CURVE",
"366 69 OFFCURVE",
"371 78 OFFCURVE",
"373 83 CURVE SMOOTH",
"386 113 OFFCURVE",
"366 138 OFFCURVE",
"333 116 CURVE",
"322 108 LINE SMOOTH",
"313 101 OFFCURVE",
"310 100 OFFCURVE",
"307 100 CURVE",
"293 94 LINE",
"279 90 OFFCURVE",
"266 85 OFFCURVE",
"268 85 CURVE",
"262 82 LINE",
"242 74 LINE SMOOTH",
"220 65 OFFCURVE",
"215 65 OFFCURVE",
"209 65 CURVE",
"195 69 LINE",
"187 80 OFFCURVE",
"181 88 OFFCURVE",
"181 89 CURVE",
"174 105 OFFCURVE",
"173 108 OFFCURVE",
"173 115 CURVE",
"168 135 OFFCURVE",
"167 137 OFFCURVE",
"168 138 CURVE",
"164 142 OFFCURVE",
"163 156 OFFCURVE",
"162 175 CURVE",
"162 196 LINE",
"161 215 OFFCURVE",
"160 226 OFFCURVE",
"162 233 CURVE",
"162 235 OFFCURVE",
"163 238 OFFCURVE",
"163 241 CURVE SMOOTH",
"163 247 LINE"
);
}
);
width = 401;
}
);
unicode = 0045;
},
{
color = (31,255,0,1);
glyphname = F;
lastChange = "2017-09-01 11:03:00 +0000";
layers = (
{
background = {
paths = (
{
closed = 1;
nodes = (
"237 497 LINE",
"239 509 LINE",
"239 528 OFFCURVE",
"259 527 OFFCURVE",
"276 532 CURVE",
"290 532 OFFCURVE",
"319 541 OFFCURVE",
"340 545 CURVE SMOOTH",
"347 547 OFFCURVE",
"348 544 OFFCURVE",
"364 549 CURVE SMOOTH",
"368 551 OFFCURVE",
"384 552 OFFCURVE",
"387 555 CURVE",
"401 560 OFFCURVE",
"413 565 OFFCURVE",
"427 567 CURVE",
"456 578 LINE",
"461 579 OFFCURVE",
"479 577 OFFCURVE",
"483 575 CURVE",
"476 596 OFFCURVE",
"474 600 OFFCURVE",
"472 606 CURVE",
"456 635 OFFCURVE",
"455 638 OFFCURVE",
"454 638 CURVE SMOOTH",
"442 649 OFFCURVE",
"432 653 OFFCURVE",
"431 653 CURVE",
"424 662 OFFCURVE",
"405 665 OFFCURVE",
"395 663 CURVE SMOOTH",
"370 658 OFFCURVE",
"368 656 OFFCURVE",
"367 654 CURVE",
"354 649 OFFCURVE",
"344 647 OFFCURVE",
"343 647 CURVE SMOOTH",
"337 648 OFFCURVE",
"329 644 OFFCURVE",
"322 640 CURVE SMOOTH",
"313 637 OFFCURVE",
"305 632 OFFCURVE",
"301 632 CURVE",
"279 626 OFFCURVE",
"278 626 OFFCURVE",
"277 624 CURVE",
"242 617 LINE SMOOTH",
"213 612 OFFCURVE",
"211 612 OFFCURVE",
"210 610 CURVE",
"179 607 OFFCURVE",
"175 606 OFFCURVE",
"173 606 CURVE SMOOTH",
"138 596 LINE",
"123 593 OFFCURVE",
"113 589 OFFCURVE",
"108 588 CURVE",
"86 584 OFFCURVE",
"76 579 OFFCURVE",
"66 574 CURVE",
"40 554 OFFCURVE",
"48 540 OFFCURVE",
"47 540 CURVE",
"41 514 OFFCURVE",
"41 514 OFFCURVE",
"42 513 CURVE",
"42 492 OFFCURVE",
"49 489 OFFCURVE",
"58 485 CURVE",
"83 479 OFFCURVE",
"107 489 OFFCURVE",
"131 489 CURVE",
"129 465 LINE",
"130 459 OFFCURVE",
"130 451 OFFCURVE",
"129 445 CURVE",
"126 440 OFFCURVE",
"126 404 OFFCURVE",
"128 401 CURVE",
"128 393 OFFCURVE",
"125 357 OFFCURVE",
"123 344 CURVE",
"124 296 LINE",
"121 252 LINE",
"124 237 OFFCURVE",
"118 214 OFFCURVE",
"118 208 CURVE SMOOTH",
"117 181 OFFCURVE",
"114 175 OFFCURVE",
"115 173 CURVE",
"115 172 OFFCURVE",
"117 153 OFFCURVE",
"117 146 CURVE",
"121 135 OFFCURVE",
"122 107 OFFCURVE",
"121 107 CURVE",
"117 93 OFFCURVE",
"117 90 OFFCURVE",
"117 88 CURVE SMOOTH",
"126 59 OFFCURVE",
"126 57 OFFCURVE",
"125 55 CURVE",
"130 32 OFFCURVE",
"131 27 OFFCURVE",
"131 24 CURVE",
"148 1 LINE",
"171 -17 OFFCURVE",
"171 -18 OFFCURVE",
"186 -19 CURVE SMOOTH",
"202 -21 OFFCURVE",
"214 -19 OFFCURVE",
"219 -17 CURVE SMOOTH",
"224 -14 OFFCURVE",
"232 -4 OFFCURVE",
"236 0 CURVE SMOOTH",
"240 5 OFFCURVE",
"238 17 OFFCURVE",
"239 44 CURVE",
"234 81 LINE",
"234 98 OFFCURVE",
"230 186 OFFCURVE",
"228 225 CURVE",
"229 275 OFFCURVE",
"226 291 OFFCURVE",
"232 388 CURVE SMOOTH",
"233 409 OFFCURVE",
"236 477 OFFCURVE",
"237 486 CURVE SMOOTH",
"237 489 LINE"
);
},
{
closed = 1;
nodes = (
"240 275 LINE",
"247 275 OFFCURVE",
"278 275 OFFCURVE",
"294 278 CURVE SMOOTH",
"309 280 OFFCURVE",
"324 279 OFFCURVE",
"339 281 CURVE SMOOTH",
"362 285 LINE",
"386 293 OFFCURVE",
"396 303 OFFCURVE",
"388 321 CURVE",
"366 347 OFFCURVE",
"359 350 OFFCURVE",
"354 353 CURVE SMOOTH",
"322 367 LINE SMOOTH",
"313 371 OFFCURVE",
"253 366 OFFCURVE",
"242 364 CURVE SMOOTH",
"180 349 LINE",
"186 263 LINE"
);
},
{
closed = 1;
nodes = (
"189 354 LINE",
"175 344 OFFCURVE",
"153 340 OFFCURVE",
"148 337 CURVE SMOOTH",
"129 325 OFFCURVE",
"116 320 OFFCURVE",
"115 319 CURVE SMOOTH",
"103 314 OFFCURVE",
"99 311 OFFCURVE",
"98 309 CURVE",
"82 295 OFFCURVE",
"76 287 OFFCURVE",
"77 283 CURVE",
"77 275 OFFCURVE",
"85 262 OFFCURVE",
"94 263 CURVE SMOOTH",
"106 264 OFFCURVE",
"117 256 OFFCURVE",
"123 253 CURVE SMOOTH",
"132 250 OFFCURVE",
"175 262 OFFCURVE",
"188 265 CURVE"
);
}
);
};
layerId = UUID0;
paths = (
{
closed = 1;
nodes = (
"173 350 LINE",
"164 346 OFFCURVE",
"160 345 OFFCURVE",
"155 344 CURVE SMOOTH",
"145 342 OFFCURVE",
"145 341 OFFCURVE",
"144 340 CURVE SMOOTH",
"131 332 OFFCURVE",
"120 327 OFFCURVE",
"115 324 CURVE SMOOTH",
"97 316 OFFCURVE",
"92 312 OFFCURVE",
"91 310 CURVE",
"76 296 OFFCURVE",
"69 287 OFFCURVE",
"70 282 CURVE SMOOTH",
"71 274 OFFCURVE",
"81 259 OFFCURVE",
"95 261 CURVE SMOOTH",
"102 262 OFFCURVE",
"110 257 OFFCURVE",
"116 253 CURVE",
"117 253 OFFCURVE",
"121 251 OFFCURVE",
"122 251 CURVE SMOOTH",
"131 247 OFFCURVE",
"159 256 OFFCURVE",
"178 260 CURVE",
"178 259 LINE",
"239 273 LINE",
"252 273 OFFCURVE",
"282 274 OFFCURVE",
"294 275 CURVE SMOOTH",
"300 276 OFFCURVE",
"307 276 OFFCURVE",
"314 276 CURVE SMOOTH",
"322 276 OFFCURVE",
"330 277 OFFCURVE",
"338 278 CURVE SMOOTH",
"364 282 LINE",
"391 291 OFFCURVE",
"402 303 OFFCURVE",
"393 322 CURVE",
"373 346 OFFCURVE",
"365 350 OFFCURVE",
"360 353 CURVE SMOOTH",
"323 370 LINE SMOOTH",
"313 374 OFFCURVE",
"251 369 OFFCURVE",
"239 367 CURVE"
);
},
{
closed = 1;
nodes = (
"244 495 LINE",
"246 507 LINE",
"246 521 OFFCURVE",
"257 522 OFFCURVE",
"269 525 CURVE SMOOTH",
"278 527 LINE",
"288 527 OFFCURVE",
"301 530 OFFCURVE",
"315 534 CURVE SMOOTH",
"324 536 OFFCURVE",
"331 539 OFFCURVE",
"339 540 CURVE SMOOTH",
"344 541 OFFCURVE",
"344 541 OFFCURVE",
"345 541 CURVE SMOOTH",
"350 541 OFFCURVE",
"356 541 OFFCURVE",
"369 545 CURVE SMOOTH",
"382 548 OFFCURVE",
"389 549 OFFCURVE",
"391 551 CURVE",
"385 550 LINE",
"395 552 LINE",
"406 557 OFFCURVE",
"418 562 OFFCURVE",
"429 563 CURVE",
"456 573 LINE",
"474 574 OFFCURVE",
"482 589 OFFCURVE",
"478 599 CURVE",
"473 608 OFFCURVE",
"467 620 OFFCURVE",
"463 627 CURVE SMOOTH",
"460 633 OFFCURVE",
"458 637 OFFCURVE",
"455 638 CURVE",
"445 646 OFFCURVE",
"435 651 OFFCURVE",
"431 652 CURVE",
"426 662 OFFCURVE",
"404 665 OFFCURVE",
"391 663 CURVE SMOOTH",
"362 657 OFFCURVE",
"359 654 OFFCURVE",
"358 652 CURVE",
"345 647 OFFCURVE",
"342 647 OFFCURVE",
"341 647 CURVE SMOOTH",
"332 649 OFFCURVE",
"323 644 OFFCURVE",
"316 640 CURVE",
"303 635 LINE",
"290 630 LINE SMOOTH",
"275 625 OFFCURVE",
"270 624 OFFCURVE",
"269 623 CURVE",
"240 617 LINE",
"228 615 LINE SMOOTH",
"208 612 OFFCURVE",
"204 612 OFFCURVE",
"203 610 CURVE",
"175 606 LINE",
"136 597 LINE SMOOTH",
"126 595 OFFCURVE",
"117 593 OFFCURVE",
"112 591 CURVE SMOOTH",
"109 590 OFFCURVE",
"107 589 OFFCURVE",
"106 589 CURVE SMOOTH",
"82 584 OFFCURVE",
"73 579 OFFCURVE",
"64 575 CURVE",
"40 556 OFFCURVE",
"39 545 OFFCURVE",
"40 540 CURVE",
"35 517 OFFCURVE",
"33 514 OFFCURVE",
"35 511 CURVE",
"36 494 OFFCURVE",
"45 487 OFFCURVE",
"55 482 CURVE",
"75 477 OFFCURVE",
"90 480 OFFCURVE",
"104 482 CURVE SMOOTH",
"113 483 OFFCURVE",
"118 486 OFFCURVE",
"127 486 CURVE",
"121 464 LINE",
"122 459 OFFCURVE",
"122 451 OFFCURVE",
"121 445 CURVE SMOOTH",
"119 439 OFFCURVE",
"119 411 OFFCURVE",
"120 400 CURVE",
"119 388 OFFCURVE",
"115 355 OFFCURVE",
"115 344 CURVE SMOOTH",
"115 332 OFFCURVE",
"116 308 OFFCURVE",
"116 296 CURVE",
"113 252 LINE",
"115 243 OFFCURVE",
"113 229 OFFCURVE",
"111 219 CURVE SMOOTH",
"110 216 OFFCURVE",
"110 211 OFFCURVE",
"110 209 CURVE SMOOTH",
"109 194 OFFCURVE",
"108 186 OFFCURVE",
"107 180 CURVE",
"107 170 LINE",
"108 165 OFFCURVE",
"109 152 OFFCURVE",
"109 147 CURVE",
"113 137 OFFCURVE",
"115 112 OFFCURVE",
"114 112 CURVE",
"109 95 OFFCURVE",
"109 91 OFFCURVE",
"109 89 CURVE SMOOTH",
"118 60 OFFCURVE",
"118 58 OFFCURVE",
"117 56 CURVE",
"122 34 OFFCURVE",
"123 29 OFFCURVE",
"123 26 CURVE",
"139 5 LINE",
"166 -16 OFFCURVE",
"171 -18 OFFCURVE",
"185 -19 CURVE SMOOTH",
"201 -20 OFFCURVE",
"218 -18 OFFCURVE",
"226 -15 CURVE SMOOTH",
"229 -14 OFFCURVE",
"234 -8 OFFCURVE",
"237 -4 CURVE SMOOTH",
"241 1 LINE SMOOTH",
"246 6 OFFCURVE",
"246 13 OFFCURVE",
"246 25 CURVE SMOOTH",
"246 47 LINE",
"245 58 OFFCURVE",
"242 71 OFFCURVE",
"241 83 CURVE",
"241 99 OFFCURVE",
"237 185 OFFCURVE",
"235 226 CURVE",
"235 266 LINE SMOOTH",
"235 293 OFFCURVE",
"235 321 OFFCURVE",
"239 387 CURVE SMOOTH",
"239 391 OFFCURVE",
"240 396 OFFCURVE",
"240 403 CURVE SMOOTH",
"241 431 OFFCURVE",
"243 478 OFFCURVE",
"244 485 CURVE"
);
}
);
width = 470;
}
);
unicode = 0046;
},
{
color = (31,255,0,1);
glyphname = H;
lastChange = "2017-09-01 11:03:00 +0000";
layers = (
{
background = {
paths = (
{
closed = 1;
nodes = (
"382 371 LINE",
"377 371 OFFCURVE",
"372 371 OFFCURVE",
"368 372 CURVE",
"346 369 OFFCURVE",
"352 371 OFFCURVE",
"334 375 CURVE",
"321 375 OFFCURVE",
"303 381 OFFCURVE",
"293 383 CURVE",
"270 384 OFFCURVE",
"260 392 OFFCURVE",
"244 380 CURVE",
"239 375 OFFCURVE",
"209 369 OFFCURVE",
"203 367 CURVE",
"201 365 OFFCURVE",
"191 365 OFFCURVE",
"181 364 CURVE",
"181 388 OFFCURVE",
"188 426 OFFCURVE",
"188 428 CURVE SMOOTH",
"187 437 OFFCURVE",
"188 443 OFFCURVE",
"190 464 CURVE",
"190 481 LINE SMOOTH",
"191 497 OFFCURVE",
"191 502 OFFCURVE",
"191 502 CURVE",
"192 503 OFFCURVE",
"192 508 OFFCURVE",
"192 517 CURVE",
"193 524 OFFCURVE",
"191 532 OFFCURVE",
"192 538 CURVE SMOOTH",
"193 551 OFFCURVE",
"193 546 OFFCURVE",
"190 592 CURVE",
"191 615 OFFCURVE",
"190 634 OFFCURVE",
"191 635 CURVE",
"184 649 OFFCURVE",
"184 649 OFFCURVE",
"174 649 CURVE",
"165 647 OFFCURVE",
"140 643 OFFCURVE",
"137 644 CURVE SMOOTH",
"133 645 OFFCURVE",
"132 645 OFFCURVE",
"119 644 CURVE",
"105 637 OFFCURVE",
"100 635 OFFCURVE",
"100 634 CURVE",
"95 632 OFFCURVE",
"82 617 OFFCURVE",
"80 609 CURVE",
"78 606 OFFCURVE",
"71 584 OFFCURVE",
"75 583 CURVE",
"72 571 OFFCURVE",
"71 566 OFFCURVE",
"72 565 CURVE",
"70 547 OFFCURVE",
"68 539 OFFCURVE",
"67 532 CURVE SMOOTH",
"66 526 OFFCURVE",
"68 515 OFFCURVE",
"67 510 CURVE",
"67 502 OFFCURVE",
"65 490 OFFCURVE",
"65 483 CURVE SMOOTH",
"65 475 OFFCURVE",
"64 463 OFFCURVE",
"65 458 CURVE SMOOTH",
"66 450 OFFCURVE",
"66 440 OFFCURVE",
"65 438 CURVE",
"66 426 OFFCURVE",
"66 424 OFFCURVE",
"68 423 CURVE",
"68 422 OFFCURVE",
"66 416 OFFCURVE",
"66 409 CURVE SMOOTH",
"65 402 OFFCURVE",
"65 391 OFFCURVE",
"66 388 CURVE",
"63 375 OFFCURVE",
"66 296 OFFCURVE",
"70 295 CURVE",
"71 285 OFFCURVE",
"64 271 OFFCURVE",
"69 257 CURVE",
"69 235 OFFCURVE",
"72 228 OFFCURVE",
"72 217 CURVE",
"69 202 OFFCURVE",
"72 196 OFFCURVE",
"72 187 CURVE SMOOTH",
"73 175 OFFCURVE",
"77 162 OFFCURVE",
"73 154 CURVE",
"78 131 OFFCURVE",
"78 128 OFFCURVE",
"78 127 CURVE SMOOTH",
"82 116 OFFCURVE",
"77 106 OFFCURVE",
"81 100 CURVE",
"85 87 OFFCURVE",
"83 63 OFFCURVE",
"83 56 CURVE",
"85 46 OFFCURVE",
"95 35 OFFCURVE",
"95 24 CURVE",
"100 10 OFFCURVE",
"117 7 OFFCURVE",
"123 -1 CURVE",
"132 -9 OFFCURVE",
"136 -6 OFFCURVE",
"138 -8 CURVE",
"155 -10 OFFCURVE",
"180 -5 OFFCURVE",
"181 -3 CURVE SMOOTH",
"183 6 OFFCURVE",
"184 14 OFFCURVE",
"184 26 CURVE",
"186 31 OFFCURVE",
"186 40 OFFCURVE",
"187 46 CURVE",
"187 55 OFFCURVE",
"184 115 OFFCURVE",
"183 122 CURVE SMOOTH",
"183 126 OFFCURVE",
"183 172 OFFCURVE",
"182 197 CURVE",
"183 201 OFFCURVE",
"182 210 OFFCURVE",
"182 216 CURVE SMOOTH",
"181 241 OFFCURVE",
"182 258 OFFCURVE",
"183 265 CURVE",
"182 267 OFFCURVE",
"182 272 OFFCURVE",
"182 277 CURVE",
"200 278 OFFCURVE",
"224 278 OFFCURVE",
"241 276 CURVE SMOOTH",
"256 275 OFFCURVE",
"274 275 OFFCURVE",
"282 275 CURVE SMOOTH",
"289 275 OFFCURVE",
"320 279 OFFCURVE",
"333 281 CURVE SMOOTH",
"337 282 OFFCURVE",
"354 284 OFFCURVE",
"368 287 CURVE",
"376 287 LINE",
"373 273 LINE",
"370 264 OFFCURVE",
"365 247 OFFCURVE",
"371 243 CURVE",
"372 221 OFFCURVE",
"370 199 OFFCURVE",
"369 190 CURVE",
"370 175 OFFCURVE",
"369 167 OFFCURVE",
"369 162 CURVE",
"374 153 OFFCURVE",
"362 140 OFFCURVE",
"365 136 CURVE",
"365 119 OFFCURVE",
"364 108 OFFCURVE",
"366 104 CURVE",
"367 60 OFFCURVE",
"358 73 OFFCURVE",
"366 41 CURVE SMOOTH",
"368 29 OFFCURVE",
"365 17 OFFCURVE",
"372 8 CURVE",
"390 4 OFFCURVE",
"394 4 OFFCURVE",
"394 3 CURVE",
"402 -1 OFFCURVE",
"408 -3 OFFCURVE",
"414 -3 CURVE",
"422 -5 OFFCURVE",
"446 8 OFFCURVE",
"449 9 CURVE",
"465 7 OFFCURVE",
"471 10 OFFCURVE",
"476 16 CURVE",
"477 31 OFFCURVE",
"477 33 OFFCURVE",
"474 35 CURVE",
"477 51 OFFCURVE",
"477 60 OFFCURVE",
"474 61 CURVE",
"468 103 OFFCURVE",
"464 135 OFFCURVE",
"464 166 CURVE SMOOTH",
"464 197 OFFCURVE",
"467 213 OFFCURVE",
"467 231 CURVE",
"473 249 OFFCURVE",
"474 272 OFFCURVE",
"474 273 CURVE SMOOTH",
"477 295 OFFCURVE",
"477 324 OFFCURVE",
"477 330 CURVE SMOOTH",
"477 343 OFFCURVE",
"479 350 OFFCURVE",
"479 361 CURVE SMOOTH",
"479 371 OFFCURVE",
"479 377 OFFCURVE",
"480 381 CURVE",
"481 394 OFFCURVE",
"481 400 OFFCURVE",
"482 405 CURVE SMOOTH",
"483 409 OFFCURVE",
"483 424 OFFCURVE",
"482 433 CURVE",
"484 445 OFFCURVE",
"490 460 OFFCURVE",
"490 474 CURVE SMOOTH",
"490 491 OFFCURVE",
"493 512 OFFCURVE",
"495 530 CURVE",
"499 547 OFFCURVE",
"507 566 OFFCURVE",
"507 584 CURVE",
"508 598 OFFCURVE",
"512 616 OFFCURVE",
"515 621 CURVE",
"511 632 OFFCURVE",
"506 632 OFFCURVE",
"497 633 CURVE",
"483 632 OFFCURVE",
"481 633 OFFCURVE",
"480 633 CURVE SMOOTH",
"457 628 OFFCURVE",
"440 613 OFFCURVE",
"428 605 CURVE",
"414 589 OFFCURVE",
"414 575 OFFCURVE",
"405 559 CURVE",
"401 546 OFFCURVE",
"398 535 OFFCURVE",
"398 524 CURVE",
"395 513 OFFCURVE",
"394 496 OFFCURVE",
"394 491 CURVE",
"391 482 OFFCURVE",
"390 479 OFFCURVE",
"390 477 CURVE SMOOTH",
"390 459 OFFCURVE",
"394 440 OFFCURVE",
"387 434 CURVE",
"385 422 OFFCURVE",
"382 391 OFFCURVE",
"382 377 CURVE"
);
}
);
};
layerId = UUID0;
paths = (
{
closed = 1;
nodes = (
"367 374 OFFCURVE",
"369 374 OFFCURVE",
"365 375 CURVE",
"352 373 OFFCURVE",
"351 373 OFFCURVE",
"346 375 CURVE",
"335 378 LINE",
"324 378 OFFCURVE",
"314 381 OFFCURVE",
"305 383 CURVE SMOOTH",
"295 385 LINE",
"286 385 OFFCURVE",
"280 386 OFFCURVE",
"275 387 CURVE",
"261 389 OFFCURVE",
"252 391 OFFCURVE",
"234 379 CURVE",
"234 379 OFFCURVE",
"218 375 OFFCURVE",
"209 372 CURVE",
"203 371 OFFCURVE",
"203 370 OFFCURVE",
"199 370 CURVE",
"196 368 OFFCURVE",
"193 368 OFFCURVE",
"189 368 CURVE",
"189 386 OFFCURVE",
"193 410 OFFCURVE",
"195 421 CURVE",
"196 423 OFFCURVE",
"196 427 OFFCURVE",
"196 427 CURVE",
"195 434 OFFCURVE",
"196 440 OFFCURVE",
"197 453 CURVE",
"197 456 OFFCURVE",
"198 459 OFFCURVE",
"198 463 CURVE SMOOTH",
"198 480 LINE",
"199 495 OFFCURVE",
"198 499 OFFCURVE",
"198 499 CURVE",
"200 501 OFFCURVE",
"200 506 OFFCURVE",
"200 514 CURVE SMOOTH",
"200 536 LINE SMOOTH",
"200 544 OFFCURVE",
"200 553 OFFCURVE",
"199 572 CURVE",
"199 577 OFFCURVE",
"198 583 OFFCURVE",
"198 590 CURVE SMOOTH",
"198 607 LINE SMOOTH",
"198 649 OFFCURVE",
"167 638 OFFCURVE",
"139 644 CURVE",
"133 645 OFFCURVE",
"132 645 OFFCURVE",
"115 644 CURVE",
"103 638 LINE",
"96 635 OFFCURVE",
"93 633 OFFCURVE",
"92 631 CURVE",
"86 625 OFFCURVE",
"76 613 OFFCURVE",
"73 607 CURVE SMOOTH",
"71 603 OFFCURVE",
"68 585 OFFCURVE",
"71 579 CURVE",
"65 569 OFFCURVE",
"64 564 OFFCURVE",
"66 561 CURVE",
"65 551 OFFCURVE",
"62 543 OFFCURVE",
"61 537 CURVE",
"61 534 OFFCURVE",
"60 532 OFFCURVE",
"60 530 CURVE SMOOTH",
"60 508 LINE SMOOTH",
"60 504 OFFCURVE",
"60 500 OFFCURVE",
"59 495 CURVE",
"59 491 OFFCURVE",
"58 485 OFFCURVE",
"58 482 CURVE SMOOTH",
"58 437 LINE",
"59 427 OFFCURVE",
"59 424 OFFCURVE",
"61 422 CURVE",
"60 420 OFFCURVE",
"59 412 OFFCURVE",
"59 408 CURVE",
"58 402 OFFCURVE",
"58 391 OFFCURVE",
"59 387 CURVE",
"57 370 OFFCURVE",
"63 300 OFFCURVE",
"68 292 CURVE",
"63 291 OFFCURVE",
"63 287 OFFCURVE",
"62 282 CURVE",
"61 275 OFFCURVE",
"60 266 OFFCURVE",
"62 257 CURVE",
"62 247 OFFCURVE",
"63 235 OFFCURVE",
"64 230 CURVE SMOOTH",
"65 226 OFFCURVE",
"65 222 OFFCURVE",
"65 219 CURVE",
"63 211 OFFCURVE",
"63 202 OFFCURVE",
"64 196 CURVE",
"64 193 OFFCURVE",
"65 191 OFFCURVE",
"65 188 CURVE SMOOTH",
"65 185 OFFCURVE",
"65 180 OFFCURVE",
"66 177 CURVE",
"67 168 OFFCURVE",
"69 160 OFFCURVE",
"66 155 CURVE",
"71 132 OFFCURVE",
"71 129 OFFCURVE",
"71 128 CURVE",
"73 122 OFFCURVE",
"72 118 OFFCURVE",
"72 113 CURVE SMOOTH",
"72 107 OFFCURVE",
"72 104 OFFCURVE",
"75 100 CURVE",
"77 91 OFFCURVE",
"76 74 OFFCURVE",
"76 64 CURVE",
"77 59 OFFCURVE",
"80 50 OFFCURVE",
"83 45 CURVE",
"85 40 OFFCURVE",
"88 34 OFFCURVE",
"88 26 CURVE",
"90 17 OFFCURVE",
"99 12 OFFCURVE",
"108 7 CURVE SMOOTH",
"110 6 OFFCURVE",
"114 4 OFFCURVE",
"114 4 CURVE",
"123 -3 OFFCURVE",
"132 -9 OFFCURVE",
"153 -7 CURVE SMOOTH",
"176 -5 OFFCURVE",
"192 0 OFFCURVE",
"192 28 CURVE",
"193 31 OFFCURVE",
"194 38 OFFCURVE",
"194 42 CURVE SMOOTH",
"194 45 OFFCURVE",
"195 47 OFFCURVE",
"195 49 CURVE SMOOTH",
"195 56 OFFCURVE",
"192 111 OFFCURVE",
"191 124 CURVE",
"191 128 OFFCURVE",
"191 172 OFFCURVE",
"190 198 CURVE",
"191 201 OFFCURVE",
"190 205 OFFCURVE",
"190 210 CURVE SMOOTH",
"190 217 LINE SMOOTH",
"189 241 OFFCURVE",
"190 258 OFFCURVE",
"191 265 CURVE",
"190 267 OFFCURVE",
"190 271 OFFCURVE",
"190 275 CURVE",
"205 276 OFFCURVE",
"226 275 OFFCURVE",
"239 274 CURVE SMOOTH",
"254 273 OFFCURVE",
"273 273 OFFCURVE",
"281 273 CURVE SMOOTH",
"289 273 OFFCURVE",
"318 276 OFFCURVE",
"332 278 CURVE",
"334 278 OFFCURVE",
"339 279 OFFCURVE",
"343 280 CURVE SMOOTH",
"348 281 OFFCURVE",
"358 281 OFFCURVE",
"365 283 CURVE",
"363 275 LINE",
"360 266 OFFCURVE",
"355 249 OFFCURVE",
"364 242 CURVE",
"362 222 OFFCURVE",
"360 200 OFFCURVE",
"359 191 CURVE",
"359 164 LINE",
"362 159 OFFCURVE",
"360 153 OFFCURVE",
"358 148 CURVE",
"355 143 OFFCURVE",
"355 139 OFFCURVE",
"356 137 CURVE",
"355 125 LINE",
"355 116 OFFCURVE",
"355 108 OFFCURVE",
"356 105 CURVE",
"356 93 OFFCURVE",
"355 77 OFFCURVE",
"354 72 CURVE",
"353 64 OFFCURVE",
"352 60 OFFCURVE",
"356 43 CURVE SMOOTH",
"357 39 OFFCURVE",
"357 35 OFFCURVE",
"357 32 CURVE",
"363 17 OFFCURVE",
"369 13 OFFCURVE",
"384 5 CURVE",
"394 -1 OFFCURVE",
"401 -3 OFFCURVE",
"409 -3 CURVE",
"418 -5 OFFCURVE",
"437 2 OFFCURVE",
"446 7 CURVE",
"464 7 OFFCURVE",
"477 7 OFFCURVE",
"479 37 CURVE",
"481 51 OFFCURVE",
"480 60 OFFCURVE",
"476 64 CURVE",
"473 105 OFFCURVE",
"469 137 OFFCURVE",
"469 167 CURVE SMOOTH",
"469 183 OFFCURVE",
"470 198 OFFCURVE",
"471 208 CURVE",
"472 212 OFFCURVE",
"472 226 OFFCURVE",
"472 231 CURVE",
"477 247 OFFCURVE",
"479 268 OFFCURVE",
"479 274 CURVE",
"482 295 OFFCURVE",
"482 324 OFFCURVE",
"482 330 CURVE SMOOTH",
"482 336 OFFCURVE",
"482 341 OFFCURVE",
"483 346 CURVE",
"483 351 OFFCURVE",
"484 356 OFFCURVE",
"484 361 CURVE SMOOTH",
"484 370 OFFCURVE",
"484 376 OFFCURVE",
"485 380 CURVE",
"485 385 OFFCURVE",
"486 388 OFFCURVE",
"486 391 CURVE SMOOTH",
"486 396 OFFCURVE",
"486 400 OFFCURVE",
"487 403 CURVE",
"488 407 OFFCURVE",
"488 422 OFFCURVE",
"487 431 CURVE",
"490 445 LINE SMOOTH",
"492 454 OFFCURVE",
"495 462 OFFCURVE",
"495 473 CURVE SMOOTH",
"495 487 OFFCURVE",
"497 502 OFFCURVE",
"499 517 CURVE",
"499 520 OFFCURVE",
"500 523 OFFCURVE",
"500 527 CURVE",
"504 543 LINE",
"508 555 OFFCURVE",
"512 569 OFFCURVE",
"512 582 CURVE",
"515 609 OFFCURVE",
"518 629 OFFCURVE",
"494 633 CURVE",
"476 633 LINE",
"456 629 OFFCURVE",
"439 618 OFFCURVE",
"428 610 CURVE",
"420 605 LINE",
"408 592 OFFCURVE",
"405 584 OFFCURVE",
"403 576 CURVE",
"400 567 OFFCURVE",
"396 560 OFFCURVE",
"393 553 CURVE SMOOTH",
"390 545 OFFCURVE",
"388 534 OFFCURVE",
"388 523 CURVE",
"386 514 OFFCURVE",
"384 497 OFFCURVE",
"384 491 CURVE",
"382 485 OFFCURVE",
"380 478 OFFCURVE",
"380 476 CURVE SMOOTH",
"380 471 OFFCURVE",
"381 466 OFFCURVE",
"381 461 CURVE",
"382 448 OFFCURVE",
"382 437 OFFCURVE",
"377 433 CURVE",
"375 421 OFFCURVE",
"372 390 OFFCURVE",
"372 377 CURVE"
);
}
);
width = 553;
}
);
unicode = 0048;
},
{
color = (31,255,0,1);
glyphname = I;
lastChange = "2017-09-01 11:03:00 +0000";
layers = (
{
background = {
paths = (
{
closed = 1;
nodes = (
"263 534 LINE",
"291 544 OFFCURVE",
"305 546 OFFCURVE",
"312 547 CURVE",
"343 549 OFFCURVE",
"361 551 OFFCURVE",
"368 549 CURVE",
"373 559 OFFCURVE",
"373 562 OFFCURVE",
"371 571 CURVE",
"368 579 OFFCURVE",
"355 592 OFFCURVE",
"352 599 CURVE",
"326 623 LINE",
"323 625 OFFCURVE",
"306 633 OFFCURVE",
"304 631 CURVE",
"295 636 OFFCURVE",
"271 639 OFFCURVE",
"261 638 CURVE SMOOTH",
"247 637 OFFCURVE",
"243 636 OFFCURVE",
"237 636 CURVE",
"224 632 OFFCURVE",
"212 633 OFFCURVE",
"203 631 CURVE",
"187 629 OFFCURVE",
"180 628 OFFCURVE",
"176 627 CURVE",
"157 617 LINE SMOOTH",
"130 603 OFFCURVE",
"130 603 OFFCURVE",
"125 604 CURVE",
"96 589 OFFCURVE",
"93 590 OFFCURVE",
"90 589 CURVE",
"71 588 OFFCURVE",
"67 588 OFFCURVE",
"66 589 CURVE",
"59 586 OFFCURVE",
"36 577 OFFCURVE",
"35 570 CURVE",
"40 536 OFFCURVE",
"41 533 OFFCURVE",
"50 518 CURVE",
"71 498 OFFCURVE",
"84 499 OFFCURVE",
"108 504 CURVE",
"142 509 LINE",
"162 514 LINE",
"161 507 OFFCURVE",
"157 485 OFFCURVE",
"157 484 CURVE",
"154 460 OFFCURVE",
"146 437 OFFCURVE",
"146 434 CURVE",
"134 403 OFFCURVE",
"138 398 OFFCURVE",
"137 395 CURVE",
"131 373 OFFCURVE",
"132 380 OFFCURVE",
"131 378 CURVE",
"128 363 OFFCURVE",
"129 341 OFFCURVE",
"128 329 CURVE",
"122 309 OFFCURVE",
"121 301 OFFCURVE",
"120 296 CURVE",
"125 279 OFFCURVE",
"124 272 OFFCURVE",
"121 268 CURVE",
"117 235 OFFCURVE",
"117 233 OFFCURVE",
"116 231 CURVE",
"121 210 OFFCURVE",
"118 181 OFFCURVE",
"118 175 CURVE",
"120 168 OFFCURVE",
"125 160 OFFCURVE",
"123 153 CURVE",
"120 125 OFFCURVE",
"118 112 OFFCURVE",
"116 111 CURVE",
"117 107 OFFCURVE",
"118 86 OFFCURVE",
"118 72 CURVE",
"88 61 OFFCURVE",
"83 59 OFFCURVE",
"77 58 CURVE",
"60 54 OFFCURVE",
"58 53 OFFCURVE",
"54 50 CURVE",
"37 40 OFFCURVE",
"31 34 OFFCURVE",
"26 30 CURVE",
"10 -19 OFFCURVE",
"52 -19 OFFCURVE",
"74 -26 CURVE",
"91 -28 OFFCURVE",
"109 -18 OFFCURVE",
"129 -14 CURVE",
"139 -14 OFFCURVE",
"151 -15 OFFCURVE",
"165 -14 CURVE",
"201 -16 OFFCURVE",
"199 -16 OFFCURVE",
"206 -13 CURVE",
"210 7 OFFCURVE",
"233 7 OFFCURVE",
"246 10 CURVE",
"258 14 OFFCURVE",
"268 18 OFFCURVE",
"268 19 CURVE",
"271 20 OFFCURVE",
"279 22 OFFCURVE",
"290 26 CURVE SMOOTH",
"311 33 LINE",
"313 44 OFFCURVE",
"312 48 OFFCURVE",
"304 58 CURVE",
"299 70 OFFCURVE",
"286 78 OFFCURVE",
"284 78 CURVE SMOOTH",
"278 78 OFFCURVE",
"269 79 OFFCURVE",
"260 79 CURVE",
"255 77 OFFCURVE",
"246 76 OFFCURVE",
"240 76 CURVE",
"238 78 OFFCURVE",
"217 75 OFFCURVE",
"203 74 CURVE",
"202 88 OFFCURVE",
"203 116 OFFCURVE",
"204 119 CURVE",
"206 132 OFFCURVE",
"209 142 OFFCURVE",
"210 149 CURVE",
"212 154 OFFCURVE",
"208 164 OFFCURVE",
"216 196 CURVE",
"222 206 OFFCURVE",
"218 240 OFFCURVE",
"218 251 CURVE",
"226 272 OFFCURVE",
"221 293 OFFCURVE",
"224 313 CURVE",
"228 330 OFFCURVE",
"230 346 OFFCURVE",
"231 348 CURVE",
"229 356 OFFCURVE",
"235 391 OFFCURVE",
"236 397 CURVE",
"236 426 OFFCURVE",
"241 425 OFFCURVE",
"242 439 CURVE",
"247 468 OFFCURVE",
"247 475 OFFCURVE",
"247 477 CURVE SMOOTH",
"247 480 OFFCURVE",
"251 491 OFFCURVE",
"253 504 CURVE",
"254 508 OFFCURVE",
"257 522 OFFCURVE",
"258 533 CURVE"
);
}
);
};
layerId = UUID0;
paths = (
{
closed = 1;
nodes = (
"265 529 LINE",
"295 540 OFFCURVE",
"306 541 OFFCURVE",
"311 542 CURVE",
"317 542 OFFCURVE",
"323 543 OFFCURVE",
"329 543 CURVE",
"344 547 OFFCURVE",
"384 538 OFFCURVE",
"377 566 CURVE",
"374 572 OFFCURVE",
"370 580 OFFCURVE",
"365 586 CURVE",
"358 596 LINE",
"334 618 LINE",
"330 620 OFFCURVE",
"312 628 OFFCURVE",
"302 630 CURVE",
"297 636 OFFCURVE",
"271 639 OFFCURVE",
"260 638 CURVE",
"253 638 OFFCURVE",
"249 637 OFFCURVE",
"246 637 CURVE SMOOTH",
"242 637 OFFCURVE",
"237 636 OFFCURVE",
"234 636 CURVE",
"213 632 LINE",
"209 632 OFFCURVE",
"203 632 OFFCURVE",
"200 631 CURVE",
"170 627 LINE",
"153 617 LINE",
"128 605 OFFCURVE",
"128 605 OFFCURVE",
"123 605 CURVE",
"95 591 OFFCURVE",
"91 593 OFFCURVE",
"88 592 CURVE",
"21 582 OFFCURVE",
"22 543 OFFCURVE",
"43 516 CURVE",
"67 493 OFFCURVE",
"84 494 OFFCURVE",
"110 499 CURVE SMOOTH",
"143 504 LINE",
"146 504 OFFCURVE",
"149 505 OFFCURVE",
"153 506 CURVE",
"149 483 LINE SMOOTH",
"147 468 OFFCURVE",
"143 452 OFFCURVE",
"140 443 CURVE",
"138 433 LINE",
"131 411 OFFCURVE",
"129 402 OFFCURVE",
"129 398 CURVE",
"124 379 OFFCURVE",
"127 380 OFFCURVE",
"127 380 CURVE",
"121 350 OFFCURVE",
"121 347 OFFCURVE",
"121 344 CURVE SMOOTH",
"121 339 OFFCURVE",
"120 333 OFFCURVE",
"120 330 CURVE",
"115 313 OFFCURVE",
"114 305 OFFCURVE",
"113 300 CURVE",
"117 278 OFFCURVE",
"116 272 OFFCURVE",
"113 268 CURVE",
"113 263 OFFCURVE",
"111 255 OFFCURVE",
"111 250 CURVE",
"110 238 OFFCURVE",
"109 232 OFFCURVE",
"109 233 CURVE",
"112 214 OFFCURVE",
"111 193 OFFCURVE",
"110 182 CURVE",
"110 176 LINE",
"114 166 OFFCURVE",
"116 161 OFFCURVE",
"115 157 CURVE",
"112 128 OFFCURVE",
"110 115 OFFCURVE",
"108 114 CURVE",
"109 111 OFFCURVE",
"110 88 OFFCURVE",
"110 75 CURVE",
"85 65 OFFCURVE",
"80 64 OFFCURVE",
"75 63 CURVE",
"65 60 OFFCURVE",
"53 56 OFFCURVE",
"49 55 CURVE",
"36 47 OFFCURVE",
"30 41 OFFCURVE",
"25 37 CURVE",
"5 -8 OFFCURVE",
"36 -17 OFFCURVE",
"60 -23 CURVE SMOOTH",
"71 -26 LINE",
"85 -28 OFFCURVE",
"98 -25 OFFCURVE",
"111 -20 CURVE",
"130 -14 LINE",
"164 -14 LINE",
"232 -18 OFFCURVE",
"197 -1 OFFCURVE",
"239 9 CURVE",
"243 9 OFFCURVE",
"247 9 OFFCURVE",
"249 10 CURVE",
"260 14 OFFCURVE",
"269 17 OFFCURVE",
"272 20 CURVE",
"291 26 LINE",
"319 47 OFFCURVE",
"317 51 OFFCURVE",
"309 61 CURVE",
"303 72 OFFCURVE",
"285 83 OFFCURVE",
"282 83 CURVE SMOOTH",
"272 83 LINE SMOOTH",
"268 83 OFFCURVE",
"261 84 OFFCURVE",
"256 84 CURVE",
"252 83 OFFCURVE",
"247 81 OFFCURVE",
"243 81 CURVE",
"239 83 OFFCURVE",
"227 81 OFFCURVE",
"216 80 CURVE",
"210 80 LINE",
"209 94 OFFCURVE",
"210 116 OFFCURVE",
"211 119 CURVE",
"215 139 LINE SMOOTH",
"216 143 OFFCURVE",
"217 147 OFFCURVE",
"217 151 CURVE",
"218 154 OFFCURVE",
"218 156 OFFCURVE",
"218 158 CURVE SMOOTH",
"218 165 OFFCURVE",
"218 175 OFFCURVE",
"223 196 CURVE",
"228 206 OFFCURVE",
"226 226 OFFCURVE",
"225 241 CURVE",
"225 252 LINE",
"230 267 OFFCURVE",
"230 278 OFFCURVE",
"230 290 CURVE SMOOTH",
"230 298 OFFCURVE",
"230 305 OFFCURVE",
"231 313 CURVE SMOOTH",
"232 321 OFFCURVE",
"235 329 OFFCURVE",
"236 337 CURVE",
"237 342 OFFCURVE",
"238 347 OFFCURVE",
"238 348 CURVE",
"236 356 OFFCURVE",
"242 390 OFFCURVE",
"243 396 CURVE",
"243 413 OFFCURVE",
"245 419 OFFCURVE",
"247 425 CURVE",
"248 427 OFFCURVE",
"249 433 OFFCURVE",
"249 437 CURVE",
"254 464 OFFCURVE",
"254 474 OFFCURVE",
"254 476 CURVE",
"254 476 OFFCURVE",
"255 479 OFFCURVE",
"256 483 CURVE SMOOTH",
"260 501 LINE SMOOTH",
"261 505 OFFCURVE",
"264 517 OFFCURVE",
"264 529 CURVE"
);
}
);
width = 380;
}
);
unicode = 0049;
},
{
color = (31,255,0,1);
glyphname = K;
lastChange = "2017-09-01 11:03:00 +0000";
layers = (
{
background = {
paths = (
{
closed = 1;
nodes = (
"137 622 OFFCURVE",
"134 622 OFFCURVE",
"134 622 CURVE",
"124 595 LINE SMOOTH",
"117 577 OFFCURVE",
"115 567 OFFCURVE",
"115 563 CURVE",
"116 547 OFFCURVE",
"114 531 OFFCURVE",
"107 517 CURVE SMOOTH",
"103 510 OFFCURVE",
"104 468 OFFCURVE",
"96 470 CURVE",
"81 442 OFFCURVE",
"86 433 OFFCURVE",
"85 426 CURVE",
"78 403 OFFCURVE",
"75 399 OFFCURVE",
"70 361 CURVE",
"71 353 OFFCURVE",
"69 345 OFFCURVE",
"67 340 CURVE SMOOTH",
"65 325 OFFCURVE",
"65 322 OFFCURVE",
"66 319 CURVE",
"60 301 OFFCURVE",
"60 297 OFFCURVE",
"60 269 CURVE",
"58 244 LINE",
"53 230 OFFCURVE",
"54 213 OFFCURVE",
"58 201 CURVE",
"62 171 OFFCURVE",
"64 153 OFFCURVE",
"51 128 CURVE",
"44 110 OFFCURVE",
"51 100 OFFCURVE",
"50 95 CURVE SMOOTH",
"45 65 OFFCURVE",
"50 42 OFFCURVE",
"39 20 CURVE",
"58 10 OFFCURVE",
"63 6 OFFCURVE",
"65 4 CURVE",
"87 -13 OFFCURVE",
"92 -14 OFFCURVE",
"96 -15 CURVE",
"110 -15 OFFCURVE",
"110 -15 OFFCURVE",
"126 -14 CURVE",
"138 -13 OFFCURVE",
"142 -12 OFFCURVE",
"148 -9 CURVE",
"148 3 LINE",
"149 8 OFFCURVE",
"151 18 OFFCURVE",
"153 24 CURVE",
"151 39 OFFCURVE",
"152 48 OFFCURVE",
"155 57 CURVE",
"158 75 OFFCURVE",
"161 87 OFFCURVE",
"163 92 CURVE",
"160 99 OFFCURVE",
"161 108 OFFCURVE",
"162 113 CURVE",
"163 133 OFFCURVE",
"164 136 OFFCURVE",
"165 140 CURVE",
"163 163 OFFCURVE",
"164 168 OFFCURVE",
"166 173 CURVE",
"174 200 LINE",
"178 215 OFFCURVE",
"177 224 OFFCURVE",
"175 228 CURVE",
"188 224 OFFCURVE",
"192 222 OFFCURVE",
"195 221 CURVE",
"201 212 OFFCURVE",
"204 207 OFFCURVE",
"209 203 CURVE",
"221 184 OFFCURVE",
"224 180 OFFCURVE",
"224 179 CURVE",
"236 165 OFFCURVE",
"243 157 OFFCURVE",
"243 155 CURVE",
"258 132 LINE",
"261 127 OFFCURVE",
"271 115 OFFCURVE",
"276 110 CURVE",
"284 97 OFFCURVE",
"286 92 OFFCURVE",
"288 89 CURVE SMOOTH",
"299 73 OFFCURVE",
"301 68 OFFCURVE",
"302 65 CURVE",
"317 53 OFFCURVE",
"318 52 OFFCURVE",
"320 51 CURVE",
"336 38 LINE SMOOTH",
"349 28 OFFCURVE",
"351 26 OFFCURVE",
"352 25 CURVE",
"358 23 OFFCURVE",
"365 20 OFFCURVE",
"372 18 CURVE",
"388 17 OFFCURVE",
"388 17 OFFCURVE",
"393 17 CURVE",
"408 16 OFFCURVE",
"410 15 OFFCURVE",
"412 14 CURVE",
"429 14 OFFCURVE",
"430 14 OFFCURVE",
"435 14 CURVE",
"447 16 OFFCURVE",
"453 17 OFFCURVE",
"456 18 CURVE SMOOTH",
"480 23 OFFCURVE",
"486 23 OFFCURVE",
"487 23 CURVE",
"504 25 OFFCURVE",
"505 25 OFFCURVE",
"509 27 CURVE",
"500 47 OFFCURVE",
"499 47 OFFCURVE",
"497 47 CURVE",
"493 48 OFFCURVE",
"487 51 OFFCURVE",
"483 56 CURVE",
"461 71 LINE SMOOTH",
"451 78 OFFCURVE",
"443 83 OFFCURVE",
"436 89 CURVE SMOOTH",
"417 105 OFFCURVE",
"414 108 OFFCURVE",
"414 108 CURVE",
"403 118 OFFCURVE",
"395 126 OFFCURVE",
"383 138 CURVE",
"373 152 OFFCURVE",
"370 154 OFFCURVE",
"369 154 CURVE",
"344 174 LINE",
"327 198 OFFCURVE",
"313 216 OFFCURVE",
"307 222 CURVE",
"302 227 OFFCURVE",
"296 237 OFFCURVE",
"290 246 CURVE SMOOTH",
"284 255 OFFCURVE",
"275 268 OFFCURVE",
"268 275 CURVE",
"264 282 OFFCURVE",
"260 291 OFFCURVE",
"260 295 CURVE",
"257 309 OFFCURVE",
"273 327 OFFCURVE",
"279 336 CURVE SMOOTH",
"285 347 OFFCURVE",
"291 355 OFFCURVE",
"294 358 CURVE SMOOTH",
"315 378 LINE",
"333 406 OFFCURVE",
"338 413 OFFCURVE",
"341 417 CURVE",
"348 429 OFFCURVE",
"352 432 OFFCURVE",
"354 434 CURVE SMOOTH",
"361 442 OFFCURVE",
"373 455 OFFCURVE",
"378 462 CURVE",
"385 469 OFFCURVE",
"389 479 OFFCURVE",
"390 482 CURVE",
"399 493 OFFCURVE",
"408 504 OFFCURVE",
"414 512 CURVE",
"424 525 OFFCURVE",
"430 533 OFFCURVE",
"432 537 CURVE",
"439 546 OFFCURVE",
"446 554 OFFCURVE",
"447 557 CURVE",
"463 570 OFFCURVE",
"478 581 OFFCURVE",
"480 581 CURVE",
"478 609 OFFCURVE",
"474 616 OFFCURVE",
"473 617 CURVE",
"459 619 OFFCURVE",
"456 619 OFFCURVE",
"454 619 CURVE SMOOTH",
"441 619 OFFCURVE",
"433 618 OFFCURVE",
"422 616 CURVE",
"401 615 LINE",
"395 612 OFFCURVE",
"362 584 OFFCURVE",
"329 549 CURVE",
"320 530 OFFCURVE",
"317 527 OFFCURVE",
"316 524 CURVE",
"293 503 OFFCURVE",
"288 497 OFFCURVE",
"286 494 CURVE SMOOTH",
"275 477 OFFCURVE",
"272 473 OFFCURVE",
"272 473 CURVE",
"247 437 OFFCURVE",
"245 436 OFFCURVE",
"242 433 CURVE",
"227 413 OFFCURVE",
"220 382 OFFCURVE",
"205 367 CURVE",
"200 383 OFFCURVE",
"202 394 OFFCURVE",
"201 398 CURVE",
"203 426 OFFCURVE",
"207 463 OFFCURVE",
"213 490 CURVE SMOOTH",
"217 509 OFFCURVE",
"218 511 OFFCURVE",
"218 512 CURVE",
"216 526 OFFCURVE",
"224 554 OFFCURVE",
"230 570 CURVE",
"235 602 OFFCURVE",
"242 615 OFFCURVE",
"247 618 CURVE",
"251 626 OFFCURVE",
"249 627 OFFCURVE",
"242 628 CURVE SMOOTH",
"218 633 OFFCURVE",
"213 633 OFFCURVE",
"206 634 CURVE",
"188 635 OFFCURVE",
"185 636 OFFCURVE",
"183 636 CURVE",
"164 635 OFFCURVE",
"154 632 OFFCURVE",
"151 630 CURVE"
);
}
);
};
layerId = UUID0;
paths = (
{
closed = 1;
nodes = (
"147 630 LINE",
"133 622 OFFCURVE",
"127 622 OFFCURVE",
"116 594 CURVE",
"109 574 OFFCURVE",
"107 564 OFFCURVE",
"107 561 CURVE",
"108 544 OFFCURVE",
"107 528 OFFCURVE",
"100 516 CURVE",
"97 512 OFFCURVE",
"97 506 OFFCURVE",
"96 496 CURVE SMOOTH",
"95 485 OFFCURVE",
"94 472 OFFCURVE",
"91 473 CURVE",
"77 444 OFFCURVE",
"78 436 OFFCURVE",
"78 430 CURVE",
"74 415 LINE",
"69 402 OFFCURVE",
"67 393 OFFCURVE",
"63 361 CURVE",
"64 351 OFFCURVE",
"62 343 OFFCURVE",
"60 338 CURVE",
"58 326 OFFCURVE",
"58 322 OFFCURVE",
"59 319 CURVE",
"53 302 OFFCURVE",
"53 297 OFFCURVE",
"53 270 CURVE SMOOTH",
"53 263 OFFCURVE",
"51 253 OFFCURVE",
"51 246 CURVE",
"46 231 OFFCURVE",
"47 214 OFFCURVE",
"51 201 CURVE",
"53 189 OFFCURVE",
"54 179 OFFCURVE",
"54 169 CURVE SMOOTH",
"54 157 OFFCURVE",
"52 144 OFFCURVE",
"45 131 CURVE",
"39 115 OFFCURVE",
"41 107 OFFCURVE",
"42 101 CURVE",
"41 88 OFFCURVE",
"40 76 OFFCURVE",
"40 66 CURVE",
"37 44 OFFCURVE",
"32 22 OFFCURVE",
"57 8 CURVE",
"82 -12 OFFCURVE",
"89 -14 OFFCURVE",
"94 -15 CURVE",
"108 -15 OFFCURVE",
"110 -15 OFFCURVE",
"126 -14 CURVE",
"149 -10 OFFCURVE",
"160 7 OFFCURVE",
"161 26 CURVE",
"159 41 OFFCURVE",
"160 50 OFFCURVE",
"163 57 CURVE",
"167 80 OFFCURVE",
"169 92 OFFCURVE",
"170 94 CURVE",
"167 99 OFFCURVE",
"169 109 OFFCURVE",
"170 114 CURVE",
"171 133 OFFCURVE",
"172 136 OFFCURVE",
"173 140 CURVE",
"171 166 OFFCURVE",
"172 172 OFFCURVE",
"175 179 CURVE",
"177 187 OFFCURVE",
"180 193 OFFCURVE",
"182 200 CURVE",
"183 206 OFFCURVE",
"184 217 OFFCURVE",
"184 222 CURVE",
"189 218 LINE",
"192 214 OFFCURVE",
"193 211 OFFCURVE",
"202 202 CURVE",
"213 183 LINE",
"220 175 LINE",
"226 167 OFFCURVE",
"234 156 OFFCURVE",
"234 156 CURVE",
"250 132 LINE SMOOTH",
"253 127 OFFCURVE",
"264 115 OFFCURVE",
"269 110 CURVE",
"276 96 LINE",
"281 89 LINE",
"289 76 OFFCURVE",
"291 71 OFFCURVE",
"292 68 CURVE",
"305 58 LINE",
"314 52 LINE",
"329 39 LINE",
"347 25 LINE",
"353 22 LINE",
"367 18 LINE",
"382 17 OFFCURVE",
"385 17 OFFCURVE",
"390 17 CURVE",
"402 16 OFFCURVE",
"404 15 OFFCURVE",
"406 14 CURVE",
"433 14 LINE",
"454 18 LINE SMOOTH",
"478 23 OFFCURVE",
"484 23 OFFCURVE",
"485 23 CURVE",
"503 43 OFFCURVE",
"494 47 OFFCURVE",
"462 75 CURVE",
"461 76 OFFCURVE",
"462 74 OFFCURVE",
"456 80 CURVE",
"442 87 OFFCURVE",
"441 90 OFFCURVE",
"438 93 CURVE",
"419 109 OFFCURVE",
"417 112 OFFCURVE",
"417 112 CURVE",
"387 142 LINE",
"380 152 OFFCURVE",
"375 156 OFFCURVE",
"371 158 CURVE",
"347 177 LINE",
"334 198 OFFCURVE",
"319 217 OFFCURVE",
"311 225 CURVE",
"311 225 OFFCURVE",
"305 235 OFFCURVE",
"300 243 CURVE SMOOTH",
"294 252 LINE",
"290 257 OFFCURVE",
"282 268 OFFCURVE",
"274 276 CURVE",
"271 281 OFFCURVE",
"267 291 OFFCURVE",
"267 295 CURVE",
"265 306 OFFCURVE",
"274 319 OFFCURVE",
"281 329 CURVE SMOOTH",
"285 335 LINE",
"291 346 OFFCURVE",
"296 353 OFFCURVE",
"299 356 CURVE SMOOTH",
"322 380 LINE",
"340 407 OFFCURVE",
"347 417 OFFCURVE",
"350 421 CURVE",
"353 426 OFFCURVE",
"356 429 OFFCURVE",
"357 430 CURVE",
"364 438 LINE",
"371 445 OFFCURVE",
"378 454 OFFCURVE",
"382 459 CURVE",
"391 468 OFFCURVE",
"395 477 OFFCURVE",
"396 480 CURVE",
"417 508 LINE SMOOTH",
"428 522 OFFCURVE",
"434 531 OFFCURVE",
"436 534 CURVE",
"441 540 LINE",
"451 554 LINE",
"482 584 OFFCURVE",
"484 613 OFFCURVE",
"451 619 CURVE SMOOTH",
"438 621 OFFCURVE",
"421 620 OFFCURVE",
"411 618 CURVE",
"381 614 OFFCURVE",
"353 584 OFFCURVE",
"320 548 CURVE",
"318 542 OFFCURVE",
"312 533 OFFCURVE",
"309 527 CURVE",
"284 501 OFFCURVE",
"279 496 OFFCURVE",
"278 495 CURVE",
"267 478 OFFCURVE",
"264 474 OFFCURVE",
"264 474 CURVE",
"239 438 OFFCURVE",
"237 436 OFFCURVE",
"236 435 CURVE",
"229 426 OFFCURVE",
"221 410 OFFCURVE",
"217 401 CURVE",
"208 384 LINE",
"208 397 LINE",
"210 424 OFFCURVE",
"214 461 OFFCURVE",
"220 488 CURVE SMOOTH",
"225 508 LINE",
"223 525 OFFCURVE",
"231 555 OFFCURVE",
"237 571 CURVE",
"258 636 OFFCURVE",
"241 628 OFFCURVE",
"211 633 CURVE",
"209 633 OFFCURVE",
"207 634 OFFCURVE",
"205 634 CURVE",
"192 635 OFFCURVE",
"189 636 OFFCURVE",
"186 636 CURVE SMOOTH",
"162 635 OFFCURVE",
"150 632 OFFCURVE",
"147 629 CURVE"
);
}
);
width = 496;
}
);
unicode = 004B;
},
{
color = (31,255,0,1);
glyphname = L;
lastChange = "2017-09-01 11:03:00 +0000";
layers = (
{
background = {
paths = (
{
closed = 1;
nodes = (
"119 616 OFFCURVE",
"118 613 OFFCURVE",
"117 610 CURVE",
"107 596 OFFCURVE",
"105 586 OFFCURVE",
"106 582 CURVE",
"102 561 OFFCURVE",
"102 558 OFFCURVE",
"101 558 CURVE",
"100 549 OFFCURVE",
"99 540 OFFCURVE",
"94 534 CURVE",
"90 514 OFFCURVE",
"89 508 OFFCURVE",
"87 502 CURVE SMOOTH",
"79 477 OFFCURVE",
"76 460 OFFCURVE",
"76 456 CURVE",
"73 441 OFFCURVE",
"71 435 OFFCURVE",
"71 431 CURVE",
"71 421 OFFCURVE",
"71 417 OFFCURVE",
"70 411 CURVE",
"68 387 OFFCURVE",
"69 371 OFFCURVE",
"69 362 CURVE",
"68 347 OFFCURVE",
"69 343 OFFCURVE",
"68 340 CURVE",
"67 335 OFFCURVE",
"67 334 OFFCURVE",
"66 320 CURVE",
"64 303 OFFCURVE",
"64 297 OFFCURVE",
"66 296 CURVE",
"64 285 OFFCURVE",
"64 280 OFFCURVE",
"64 271 CURVE",
"60 251 OFFCURVE",
"60 248 OFFCURVE",
"60 248 CURVE",
"57 232 OFFCURVE",
"57 230 OFFCURVE",
"55 224 CURVE",
"52 203 OFFCURVE",
"52 202 OFFCURVE",
"52 200 CURVE",
"53 189 OFFCURVE",
"51 186 OFFCURVE",
"51 177 CURVE",
"52 167 OFFCURVE",
"53 158 OFFCURVE",
"51 155 CURVE",
"50 140 OFFCURVE",
"50 136 OFFCURVE",
"48 132 CURVE",
"48 114 OFFCURVE",
"48 114 OFFCURVE",
"47 111 CURVE",
"50 91 OFFCURVE",
"51 81 OFFCURVE",
"53 78 CURVE SMOOTH",
"63 62 OFFCURVE",
"64 60 OFFCURVE",
"64 60 CURVE",
"76 45 OFFCURVE",
"77 44 OFFCURVE",
"78 43 CURVE SMOOTH",
"87 32 OFFCURVE",
"90 29 OFFCURVE",
"92 26 CURVE",
"110 18 OFFCURVE",
"110 18 OFFCURVE",
"112 15 CURVE",
"123 8 OFFCURVE",
"126 6 OFFCURVE",
"127 5 CURVE",
"137 -3 OFFCURVE",
"142 -5 OFFCURVE",
"147 -7 CURVE",
"163 -12 OFFCURVE",
"169 -16 OFFCURVE",
"170 -16 CURVE",
"179 -18 OFFCURVE",
"209 -25 OFFCURVE",
"216 -25 CURVE",
"235 -28 OFFCURVE",
"240 -28 OFFCURVE",
"244 -28 CURVE",
"264 -21 OFFCURVE",
"265 -21 OFFCURVE",
"265 -19 CURVE",
"273 -3 OFFCURVE",
"279 -9 OFFCURVE",
"280 -7 CURVE",
"290 5 OFFCURVE",
"295 9 OFFCURVE",
"295 9 CURVE",
"302 24 OFFCURVE",
"305 16 OFFCURVE",
"317 33 CURVE SMOOTH",
"326 46 OFFCURVE",
"337 51 OFFCURVE",
"343 82 CURVE",
"347 100 OFFCURVE",
"353 114 OFFCURVE",
"337 123 CURVE",
"335 132 OFFCURVE",
"330 133 OFFCURVE",
"318 130 CURVE",
"305 120 OFFCURVE",
"302 118 OFFCURVE",
"302 118 CURVE",
"285 101 OFFCURVE",
"281 98 OFFCURVE",
"280 97 CURVE",
"265 93 OFFCURVE",
"260 81 OFFCURVE",
"257 79 CURVE SMOOTH",
"237 63 OFFCURVE",
"232 60 OFFCURVE",
"229 64 CURVE",
"212 58 OFFCURVE",
"205 60 OFFCURVE",
"203 63 CURVE",
"190 66 OFFCURVE",
"188 67 OFFCURVE",
"187 67 CURVE",
"172 80 OFFCURVE",
"170 84 OFFCURVE",
"170 86 CURVE",
"155 114 OFFCURVE",
"151 118 OFFCURVE",
"154 156 CURVE",
"156 168 OFFCURVE",
"153 175 OFFCURVE",
"156 190 CURVE",
"156 204 OFFCURVE",
"157 207 OFFCURVE",
"157 210 CURVE",
"156 214 OFFCURVE",
"160 237 OFFCURVE",
"160 250 CURVE SMOOTH",
"162 306 OFFCURVE",
"165 338 OFFCURVE",
"169 361 CURVE",
"171 380 OFFCURVE",
"174 386 OFFCURVE",
"174 392 CURVE",
"176 400 OFFCURVE",
"181 430 OFFCURVE",
"188 467 CURVE SMOOTH",
"191 486 OFFCURVE",
"192 489 OFFCURVE",
"192 494 CURVE",
"196 510 OFFCURVE",
"195 514 OFFCURVE",
"195 516 CURVE",
"202 533 OFFCURVE",
"203 542 OFFCURVE",
"204 546 CURVE",
"209 562 OFFCURVE",
"211 563 OFFCURVE",
"223 567 CURVE",
"232 585 OFFCURVE",
"230 595 OFFCURVE",
"224 600 CURVE",
"196 618 OFFCURVE",
"191 619 OFFCURVE",
"190 618 CURVE",
"173 625 OFFCURVE",
"169 625 OFFCURVE",
"160 627 CURVE",
"144 625 OFFCURVE",
"136 624 OFFCURVE",
"131 622 CURVE"
);
}
);
};
layerId = UUID0;
paths = (
{
closed = 1;
nodes = (
"127 622 LINE",
"111 614 OFFCURVE",
"110 611 OFFCURVE",
"109 608 CURVE",
"100 596 OFFCURVE",
"98 587 OFFCURVE",
"98 581 CURVE",
"95 566 LINE SMOOTH",
"94 560 OFFCURVE",
"94 559 OFFCURVE",
"93 559 CURVE",
"92 548 OFFCURVE",
"91 538 OFFCURVE",
"86 532 CURVE",
"86 529 OFFCURVE",
"84 525 OFFCURVE",
"84 522 CURVE",
"82 512 OFFCURVE",
"84 506 OFFCURVE",
"77 495 CURVE",
"71 477 OFFCURVE",
"68 462 OFFCURVE",
"68 456 CURVE",
"65 442 LINE SMOOTH",
"64 437 OFFCURVE",
"63 434 OFFCURVE",
"63 430 CURVE SMOOTH",
"63 420 OFFCURVE",
"63 416 OFFCURVE",
"62 410 CURVE",
"60 391 OFFCURVE",
"61 378 OFFCURVE",
"61 369 CURVE SMOOTH",
"61 362 LINE",
"60 356 OFFCURVE",
"60 349 OFFCURVE",
"60 346 CURVE SMOOTH",
"60 340 LINE",
"58 324 LINE",
"57 308 OFFCURVE",
"57 300 OFFCURVE",
"59 296 CURVE",
"57 289 OFFCURVE",
"56 278 OFFCURVE",
"56 273 CURVE",
"52 253 OFFCURVE",
"52 249 OFFCURVE",
"52 249 CURVE",
"51 245 OFFCURVE",
"50 243 OFFCURVE",
"50 240 CURVE",
"47 227 LINE",
"44 206 OFFCURVE",
"44 204 OFFCURVE",
"44 201 CURVE SMOOTH",
"44 187 LINE SMOOTH",
"44 184 OFFCURVE",
"43 182 OFFCURVE",
"43 178 CURVE",
"44 168 OFFCURVE",
"45 160 OFFCURVE",
"43 157 CURVE",
"43 144 OFFCURVE",
"41 135 OFFCURVE",
"41 135 CURVE",
"41 116 OFFCURVE",
"41 116 OFFCURVE",
"40 113 CURVE",
"41 109 OFFCURVE",
"42 104 OFFCURVE",
"42 101 CURVE",
"43 89 OFFCURVE",
"42 84 OFFCURVE",
"47 78 CURVE",
"59 56 OFFCURVE",
"58 60 OFFCURVE",
"57 61 CURVE",
"72 44 LINE",
"81 33 LINE",
"85 28 LINE",
"102 21 OFFCURVE",
"102 21 OFFCURVE",
"104 17 CURVE",
"123 5 LINE",
"133 -3 OFFCURVE",
"137 -5 OFFCURVE",
"141 -6 CURVE",
"165 -15 LINE",
"166 -15 OFFCURVE",
"169 -17 OFFCURVE",
"171 -17 CURVE",
"183 -20 OFFCURVE",
"206 -24 OFFCURVE",
"214 -25 CURVE SMOOTH",
"232 -28 OFFCURVE",
"242 -28 OFFCURVE",
"247 -28 CURVE",
"255 -25 LINE SMOOTH",
"271 -19 OFFCURVE",
"271 -19 OFFCURVE",
"271 -16 CURVE",
"275 -7 OFFCURVE",
"278 -7 OFFCURVE",
"281 -7 CURVE",
"300 12 LINE",
"304 19 OFFCURVE",
"305 20 OFFCURVE",
"306 21 CURVE",
"311 24 OFFCURVE",
"317 28 OFFCURVE",
"321 34 CURVE",
"329 43 LINE",
"336 52 OFFCURVE",
"344 61 OFFCURVE",
"349 83 CURVE",
"349 85 OFFCURVE",
"351 88 OFFCURVE",
"351 90 CURVE",
"355 105 OFFCURVE",
"356 113 OFFCURVE",
"343 128 CURVE SMOOTH",
"335 137 OFFCURVE",
"332 139 OFFCURVE",
"311 134 CURVE",
"298 124 OFFCURVE",
"292 119 OFFCURVE",
"292 119 CURVE",
"275 103 LINE",
"262 98 OFFCURVE",
"255 89 OFFCURVE",
"251 84 CURVE",
"237 72 OFFCURVE",
"233 69 OFFCURVE",
"232 71 CURVE",
"216 66 OFFCURVE",
"210 66 OFFCURVE",
"209 67 CURVE",
"200 69 OFFCURVE",
"191 72 OFFCURVE",
"192 71 CURVE",
"179 82 OFFCURVE",
"177 85 OFFCURVE",
"177 87 CURVE",
"173 95 LINE SMOOTH",
"162 117 OFFCURVE",
"158 123 OFFCURVE",
"161 158 CURVE",
"162 162 OFFCURVE",
"162 165 OFFCURVE",
"162 171 CURVE SMOOTH",
"162 177 OFFCURVE",
"161 182 OFFCURVE",
"163 190 CURVE",
"163 200 OFFCURVE",
"164 206 OFFCURVE",
"164 209 CURVE",
"163 213 OFFCURVE",
"164 220 OFFCURVE",
"165 228 CURVE SMOOTH",
"166 236 OFFCURVE",
"167 244 OFFCURVE",
"167 251 CURVE SMOOTH",
"169 304 OFFCURVE",
"172 335 OFFCURVE",
"176 359 CURVE",
"176 372 OFFCURVE",
"179 377 OFFCURVE",
"180 382 CURVE",
"181 384 OFFCURVE",
"181 388 OFFCURVE",
"181 390 CURVE",
"187 422 LINE SMOOTH",
"189 435 OFFCURVE",
"193 451 OFFCURVE",
"195 465 CURVE",
"198 480 LINE SMOOTH",
"199 484 OFFCURVE",
"199 489 OFFCURVE",
"199 492 CURVE",
"202 504 OFFCURVE",
"202 511 OFFCURVE",
"202 513 CURVE",
"210 533 OFFCURVE",
"209 537 OFFCURVE",
"210 540 CURVE SMOOTH",
"218 561 OFFCURVE",
"228 591 OFFCURVE",
"217 604 CURVE",
"205 612 OFFCURVE",
"194 619 OFFCURVE",
"189 619 CURVE",
"179 623 OFFCURVE",
"172 625 OFFCURVE",
"165 626 CURVE",
"164 626 OFFCURVE",
"160 627 OFFCURVE",
"158 627 CURVE",
"141 625 OFFCURVE",
"132 624 OFFCURVE",
"128 622 CURVE"
);
}
);
width = 362;
}
);
unicode = 004C;
},
{
color = (31,255,0,1);
glyphname = N;
lastChange = "2017-09-01 11:03:00 +0000";
layers = (
{
background = {
paths = (
{
closed = 1;
nodes = (
"398 624 OFFCURVE",
"397 624 OFFCURVE",
"396 620 CURVE SMOOTH",
"393 605 OFFCURVE",
"393 600 OFFCURVE",
"391 598 CURVE",
"387 582 OFFCURVE",
"388 581 OFFCURVE",
"388 580 CURVE SMOOTH",
"384 562 OFFCURVE",
"383 560 OFFCURVE",
"383 559 CURVE SMOOTH",
"386 557 OFFCURVE",
"385 552 OFFCURVE",
"384 537 CURVE SMOOTH",
"383 519 OFFCURVE",
"383 517 OFFCURVE",
"383 516 CURVE SMOOTH",
"383 498 OFFCURVE",
"383 497 OFFCURVE",
"383 494 CURVE",
"381 488 OFFCURVE",
"380 484 OFFCURVE",
"377 438 CURVE",
"375 424 OFFCURVE",
"376 407 OFFCURVE",
"377 392 CURVE SMOOTH",
"378 377 OFFCURVE",
"376 370 OFFCURVE",
"376 366 CURVE SMOOTH",
"377 348 OFFCURVE",
"376 343 OFFCURVE",
"376 338 CURVE SMOOTH",
"375 329 OFFCURVE",
"375 321 OFFCURVE",
"375 315 CURVE SMOOTH",
"376 295 LINE",
"375 289 OFFCURVE",
"375 272 OFFCURVE",
"375 256 CURVE SMOOTH",
"374 238 OFFCURVE",
"373 235 OFFCURVE",
"373 232 CURVE SMOOTH",
"372 224 OFFCURVE",
"370 215 OFFCURVE",
"372 208 CURVE",
"370 194 OFFCURVE",
"369 191 OFFCURVE",
"369 189 CURVE SMOOTH",
"369 184 OFFCURVE",
"369 171 OFFCURVE",
"368 167 CURVE",
"368 156 OFFCURVE",
"364 145 OFFCURVE",
"362 145 CURVE",
"355 159 OFFCURVE",
"339 199 OFFCURVE",
"336 210 CURVE SMOOTH",
"321 256 OFFCURVE",
"305 308 OFFCURVE",
"299 329 CURVE SMOOTH",
"296 337 OFFCURVE",
"293 350 OFFCURVE",
"292 357 CURVE SMOOTH",
"290 364 OFFCURVE",
"283 381 OFFCURVE",
"282 389 CURVE",
"279 399 OFFCURVE",
"274 408 OFFCURVE",
"274 409 CURVE SMOOTH",
"266 438 OFFCURVE",
"265 454 OFFCURVE",
"260 479 CURVE",
"255 490 OFFCURVE",
"253 501 OFFCURVE",
"253 506 CURVE",
"250 520 OFFCURVE",
"249 529 OFFCURVE",
"249 537 CURVE",
"241 556 OFFCURVE",
"240 560 OFFCURVE",
"240 563 CURVE SMOOTH",
"239 573 OFFCURVE",
"237 580 OFFCURVE",
"236 588 CURVE",
"238 605 OFFCURVE",
"250 608 OFFCURVE",
"250 609 CURVE SMOOTH",
"246 621 OFFCURVE",
"230 625 OFFCURVE",
"228 624 CURVE",
"210 635 OFFCURVE",
"207 636 OFFCURVE",
"192 640 CURVE",
"179 649 OFFCURVE",
"165 646 OFFCURVE",
"159 641 CURVE",
"145 634 OFFCURVE",
"137 626 OFFCURVE",
"137 624 CURVE SMOOTH",
"132 606 OFFCURVE",
"127 600 OFFCURVE",
"119 596 CURVE",
"112 588 OFFCURVE",
"100 572 OFFCURVE",
"97 566 CURVE SMOOTH",
"83 543 OFFCURVE",
"86 512 OFFCURVE",
"78 488 CURVE",
"75 470 OFFCURVE",
"75 467 OFFCURVE",
"75 465 CURVE SMOOTH",
"68 440 OFFCURVE",
"67 439 OFFCURVE",
"68 436 CURVE",
"66 415 OFFCURVE",
"66 412 OFFCURVE",
"67 410 CURVE",
"65 405 OFFCURVE",
"64 388 OFFCURVE",
"64 383 CURVE SMOOTH",
"63 361 OFFCURVE",
"57 320 OFFCURVE",
"60 302 CURVE",
"59 273 OFFCURVE",
"46 245 OFFCURVE",
"49 215 CURVE SMOOTH",
"52 189 OFFCURVE",
"46 162 OFFCURVE",
"47 146 CURVE SMOOTH",
"49 121 OFFCURVE",
"58 81 OFFCURVE",
"57 77 CURVE",
"62 47 OFFCURVE",
"78 47 OFFCURVE",
"78 37 CURVE",
"83 19 OFFCURVE",
"89 13 OFFCURVE",
"91 12 CURVE SMOOTH",
"103 6 OFFCURVE",
"128 -4 OFFCURVE",
"127 -6 CURVE",
"144 -15 OFFCURVE",
"146 -14 OFFCURVE",
"148 -14 CURVE",
"154 -5 OFFCURVE",
"156 10 OFFCURVE",
"155 13 CURVE",
"154 45 LINE",
"152 67 OFFCURVE",
"151 99 OFFCURVE",
"151 115 CURVE",
"153 135 LINE",
"153 156 OFFCURVE",
"154 167 OFFCURVE",
"154 172 CURVE SMOOTH",
"153 182 OFFCURVE",
"154 189 OFFCURVE",
"154 191 CURVE SMOOTH",
"155 200 OFFCURVE",
"154 209 OFFCURVE",
"155 220 CURVE",
"156 257 OFFCURVE",
"156 278 OFFCURVE",
"157 281 CURVE SMOOTH",
"159 296 OFFCURVE",
"159 303 OFFCURVE",
"159 308 CURVE",
"163 330 OFFCURVE",
"168 379 OFFCURVE",
"169 389 CURVE SMOOTH",
"169 395 OFFCURVE",
"171 404 OFFCURVE",
"172 409 CURVE SMOOTH",
"175 438 OFFCURVE",
"178 448 OFFCURVE",
"180 448 CURVE",
"189 414 OFFCURVE",
"190 403 OFFCURVE",
"190 401 CURVE SMOOTH",
"192 393 OFFCURVE",
"199 335 OFFCURVE",
"203 312 CURVE SMOOTH",
"204 303 OFFCURVE",
"207 292 OFFCURVE",
"208 287 CURVE SMOOTH",
"215 263 OFFCURVE",
"215 257 OFFCURVE",
"215 256 CURVE SMOOTH",
"220 244 OFFCURVE",
"221 238 OFFCURVE",
"224 234 CURVE",
"226 218 OFFCURVE",
"227 213 OFFCURVE",
"227 211 CURVE",
"230 206 OFFCURVE",
"232 196 OFFCURVE",
"234 193 CURVE",
"235 186 OFFCURVE",
"241 171 OFFCURVE",
"242 169 CURVE SMOOTH",
"245 157 OFFCURVE",
"252 146 OFFCURVE",
"253 142 CURVE SMOOTH",
"260 124 OFFCURVE",
"268 104 OFFCURVE",
"270 101 CURVE",
"277 83 OFFCURVE",
"278 82 OFFCURVE",
"278 82 CURVE",
"292 58 OFFCURVE",
"293 56 OFFCURVE",
"297 55 CURVE",
"306 41 OFFCURVE",
"310 31 OFFCURVE",
"313 29 CURVE",
"327 12 OFFCURVE",
"328 11 OFFCURVE",
"331 11 CURVE SMOOTH",
"349 7 OFFCURVE",
"353 8 OFFCURVE",
"354 6 CURVE",
"378 10 LINE SMOOTH",
"395 12 OFFCURVE",
"401 14 OFFCURVE",
"410 15 CURVE SMOOTH",
"419 15 OFFCURVE",
"450 17 OFFCURVE",
"451 17 CURVE",
"451 34 OFFCURVE",
"451 34 OFFCURVE",
"456 59 CURVE",
"456 68 OFFCURVE",
"456 79 OFFCURVE",
"459 83 CURVE",
"460 105 OFFCURVE",
"461 110 OFFCURVE",
"461 114 CURVE SMOOTH",
"462 142 OFFCURVE",
"462 145 OFFCURVE",
"461 158 CURVE",
"465 178 OFFCURVE",
"463 185 OFFCURVE",
"463 193 CURVE",
"465 206 OFFCURVE",
"465 241 OFFCURVE",
"464 256 CURVE",
"465 274 OFFCURVE",
"464 277 OFFCURVE",
"464 279 CURVE SMOOTH",
"461 298 OFFCURVE",
"462 302 OFFCURVE",
"462 302 CURVE",
"462 313 OFFCURVE",
"462 321 OFFCURVE",
"463 324 CURVE",
"459 343 OFFCURVE",
"459 346 OFFCURVE",
"461 348 CURVE",
"464 363 OFFCURVE",
"463 366 OFFCURVE",
"462 368 CURVE",
"464 385 OFFCURVE",
"465 387 OFFCURVE",
"465 388 CURVE SMOOTH",
"466 407 OFFCURVE",
"466 411 OFFCURVE",
"466 411 CURVE",
"467 416 OFFCURVE",
"470 420 OFFCURVE",
"469 436 CURVE",
"469 455 OFFCURVE",
"469 459 OFFCURVE",
"469 462 CURVE SMOOTH",
"473 487 OFFCURVE",
"471 500 OFFCURVE",
"472 506 CURVE",
"471 523 OFFCURVE",
"472 525 OFFCURVE",
"471 527 CURVE",
"474 542 OFFCURVE",
"474 547 OFFCURVE",
"472 563 CURVE",
"473 580 OFFCURVE",
"471 582 OFFCURVE",
"471 583 CURVE SMOOTH",
"474 602 OFFCURVE",
"471 610 OFFCURVE",
"468 616 CURVE",
"465 635 OFFCURVE",
"464 636 OFFCURVE",
"457 636 CURVE",
"444 639 OFFCURVE",
"412 639 OFFCURVE",
"409 636 CURVE SMOOTH"
);
}
);
};
layerId = UUID0;
paths = (
{
closed = 1;
nodes = (
"394 628 LINE SMOOTH",
"385 619 OFFCURVE",
"387 620 OFFCURVE",
"386 618 CURVE",
"386 614 OFFCURVE",
"384 609 OFFCURVE",
"384 605 CURVE",
"383 600 OFFCURVE",
"383 598 OFFCURVE",
"382 597 CURVE",
"378 578 LINE",
"373 560 LINE",
"376 556 OFFCURVE",
"375 553 OFFCURVE",
"374 542 CURVE",
"374 535 LINE",
"373 517 OFFCURVE",
"373 515 OFFCURVE",
"373 514 CURVE SMOOTH",
"373 494 LINE",
"371 488 OFFCURVE",
"370 479 OFFCURVE",
"367 437 CURVE",
"365 423 OFFCURVE",
"366 405 OFFCURVE",
"367 391 CURVE SMOOTH",
"368 382 OFFCURVE",
"367 375 OFFCURVE",
"366 371 CURVE",
"367 353 OFFCURVE",
"366 346 OFFCURVE",
"366 342 CURVE",
"365 331 OFFCURVE",
"365 320 OFFCURVE",
"365 315 CURVE SMOOTH",
"365 310 OFFCURVE",
"366 300 OFFCURVE",
"366 295 CURVE",
"365 288 OFFCURVE",
"365 271 OFFCURVE",
"365 257 CURVE",
"364 247 OFFCURVE",
"363 237 OFFCURVE",
"363 236 CURVE SMOOTH",
"363 232 OFFCURVE",
"362 230 OFFCURVE",
"362 228 CURVE",
"361 220 OFFCURVE",
"360 214 OFFCURVE",
"362 208 CURVE",
"360 194 LINE SMOOTH",
"359 185 OFFCURVE",
"359 173 OFFCURVE",
"358 169 CURVE",
"351 182 OFFCURVE",
"344 203 OFFCURVE",
"342 212 CURVE",
"327 258 OFFCURVE",
"314 298 OFFCURVE",
"308 319 CURVE",
"304 330 OFFCURVE",
"299 349 OFFCURVE",
"298 359 CURVE",
"295 368 LINE",
"293 373 OFFCURVE",
"291 381 OFFCURVE",
"289 389 CURVE SMOOTH",
"288 393 OFFCURVE",
"286 399 OFFCURVE",
"282 405 CURVE",
"276 429 OFFCURVE",
"273 442 OFFCURVE",
"271 455 CURVE SMOOTH",
"267 476 LINE",
"262 487 OFFCURVE",
"260 499 OFFCURVE",
"260 505 CURVE",
"257 519 OFFCURVE",
"256 527 OFFCURVE",
"256 534 CURVE",
"248 553 OFFCURVE",
"247 557 OFFCURVE",
"247 561 CURVE",
"245 577 LINE",
"244 580 OFFCURVE",
"243 584 OFFCURVE",
"243 586 CURVE",
"234 624 OFFCURVE",
"208 634 OFFCURVE",
"195 639 CURVE",
"181 649 OFFCURVE",
"163 647 OFFCURVE",
"155 641 CURVE",
"141 634 OFFCURVE",
"132 626 OFFCURVE",
"129 622 CURVE",
"124 607 OFFCURVE",
"120 600 OFFCURVE",
"113 596 CURVE",
"105 587 OFFCURVE",
"93 571 OFFCURVE",
"90 565 CURVE SMOOTH",
"81 549 OFFCURVE",
"78 532 OFFCURVE",
"76 517 CURVE SMOOTH",
"75 508 OFFCURVE",
"74 499 OFFCURVE",
"71 489 CURVE",
"68 471 OFFCURVE",
"68 467 OFFCURVE",
"68 464 CURVE",
"64 449 LINE",
"61 441 OFFCURVE",
"59 439 OFFCURVE",
"62 434 CURVE",
"60 425 OFFCURVE",
"60 413 OFFCURVE",
"60 409 CURVE",
"57 402 OFFCURVE",
"57 387 OFFCURVE",
"57 383 CURVE SMOOTH",
"57 376 OFFCURVE",
"56 367 OFFCURVE",
"55 357 CURVE SMOOTH",
"53 338 OFFCURVE",
"52 314 OFFCURVE",
"53 302 CURVE",
"53 292 OFFCURVE",
"50 277 OFFCURVE",
"47 267 CURVE SMOOTH",
"43 251 OFFCURVE",
"40 234 OFFCURVE",
"42 216 CURVE SMOOTH",
"43 202 OFFCURVE",
"42 184 OFFCURVE",
"41 171 CURVE",
"40 164 OFFCURVE",
"40 153 OFFCURVE",
"40 148 CURVE",
"41 134 OFFCURVE",
"45 116 OFFCURVE",
"47 102 CURVE SMOOTH",
"49 90 OFFCURVE",
"50 81 OFFCURVE",
"50 79 CURVE",
"53 61 OFFCURVE",
"61 53 OFFCURVE",
"67 47 CURVE SMOOTH",
"69 45 OFFCURVE",
"71 44 OFFCURVE",
"71 39 CURVE",
"75 21 OFFCURVE",
"81 15 OFFCURVE",
"83 14 CURVE SMOOTH",
"111 1 OFFCURVE",
"92 7 OFFCURVE",
"121 -1 CURVE",
"143 0 OFFCURVE",
"161 6 OFFCURVE",
"162 48 CURVE",
"160 69 OFFCURVE",
"159 101 OFFCURVE",
"159 117 CURVE",
"161 137 LINE",
"161 151 OFFCURVE",
"162 161 OFFCURVE",
"162 166 CURVE SMOOTH",
"162 206 LINE SMOOTH",
"162 211 OFFCURVE",
"162 215 OFFCURVE",
"163 221 CURVE",
"163 233 OFFCURVE",
"164 243 OFFCURVE",
"164 252 CURVE SMOOTH",
"164 271 OFFCURVE",
"164 280 OFFCURVE",
"165 282 CURVE",
"166 292 OFFCURVE",
"167 303 OFFCURVE",
"167 307 CURVE",
"171 329 OFFCURVE",
"176 379 OFFCURVE",
"177 388 CURVE",
"177 390 OFFCURVE",
"179 399 OFFCURVE",
"180 404 CURVE",
"180 405 OFFCURVE",
"181 409 OFFCURVE",
"181 410 CURVE",
"182 403 OFFCURVE",
"182 401 OFFCURVE",
"182 400 CURVE",
"187 361 LINE",
"194 311 LINE",
"198 293 LINE",
"199 291 OFFCURVE",
"199 288 OFFCURVE",
"199 286 CURVE",
"206 263 OFFCURVE",
"206 257 OFFCURVE",
"206 256 CURVE",
"212 242 OFFCURVE",
"216 234 OFFCURVE",
"216 233 CURVE SMOOTH",
"216 230 OFFCURVE",
"217 221 OFFCURVE",
"217 217 CURVE SMOOTH",
"217 213 OFFCURVE",
"218 212 OFFCURVE",
"218 211 CURVE",
"220 208 OFFCURVE",
"221 204 OFFCURVE",
"222 200 CURVE",
"222 199 OFFCURVE",
"224 196 OFFCURVE",
"225 194 CURVE",
"226 188 OFFCURVE",
"233 171 OFFCURVE",
"234 169 CURVE",
"235 163 OFFCURVE",
"239 155 OFFCURVE",
"242 149 CURVE",
"252 125 OFFCURVE",
"261 102 OFFCURVE",
"262 101 CURVE",
"269 84 OFFCURVE",
"271 82 OFFCURVE",
"271 82 CURVE",
"282 60 OFFCURVE",
"284 56 OFFCURVE",
"291 55 CURVE",
"293 50 OFFCURVE",
"295 44 OFFCURVE",
"297 40 CURVE",
"311 23 OFFCURVE",
"345 -5 OFFCURVE",
"400 5 CURVE SMOOTH",
"439 12 OFFCURVE",
"457 40 OFFCURVE",
"464 86 CURVE",
"465 100 OFFCURVE",
"466 106 OFFCURVE",
"466 110 CURVE SMOOTH",
"466 116 LINE",
"467 133 OFFCURVE",
"467 148 OFFCURVE",
"466 159 CURVE",
"469 172 OFFCURVE",
"468 182 OFFCURVE",
"468 188 CURVE SMOOTH",
"468 194 LINE",
"470 206 OFFCURVE",
"470 241 OFFCURVE",
"469 257 CURVE",
"470 271 OFFCURVE",
"469 275 OFFCURVE",
"469 277 CURVE",
"466 297 OFFCURVE",
"467 301 OFFCURVE",
"467 301 CURVE",
"467 313 OFFCURVE",
"467 321 OFFCURVE",
"468 324 CURVE",
"464 343 OFFCURVE",
"464 346 OFFCURVE",
"466 348 CURVE",
"469 362 OFFCURVE",
"467 366 OFFCURVE",
"466 369 CURVE",
"468 379 OFFCURVE",
"470 386 OFFCURVE",
"470 386 CURVE",
"471 406 OFFCURVE",
"471 410 OFFCURVE",
"471 410 CURVE",
"473 416 OFFCURVE",
"475 423 OFFCURVE",
"474 435 CURVE",
"474 460 LINE",
"477 475 OFFCURVE",
"477 489 OFFCURVE",
"477 495 CURVE SMOOTH",
"477 504 LINE",
"476 512 OFFCURVE",
"476 517 OFFCURVE",
"476 520 CURVE",
"479 536 OFFCURVE",
"479 547 OFFCURVE",
"477 561 CURVE",
"478 573 OFFCURVE",
"476 578 OFFCURVE",
"476 580 CURVE",
"478 595 OFFCURVE",
"476 606 OFFCURVE",
"473 613 CURVE",
"469 631 OFFCURVE",
"467 636 OFFCURVE",
"456 636 CURVE",
"440 639 OFFCURVE",
"405 639 OFFCURVE",
"401 635 CURVE SMOOTH"
);
}
);
width = 536;
}
);
unicode = 004E;
},
{
color = (31,255,0,1);
glyphname = O;
lastChange = "2017-09-01 11:03:00 +0000";
layers = (
{
background = {
paths = (
{
closed = 1;
nodes = (
"188 625 OFFCURVE",
"151 606 OFFCURVE",
"151 600 CURVE",
"130 574 OFFCURVE",
"120 545 OFFCURVE",
"106 519 CURVE SMOOTH",
"102 504 OFFCURVE",
"94 489 OFFCURVE",
"89 476 CURVE",
"79 461 OFFCURVE",
"75 446 OFFCURVE",
"75 430 CURVE SMOOTH",
"69 415 OFFCURVE",
"62 404 OFFCURVE",
"62 390 CURVE SMOOTH",
"62 361 OFFCURVE",
"55 338 OFFCURVE",
"55 315 CURVE SMOOTH",
"57 299 OFFCURVE",
"51 288 OFFCURVE",
"47 274 CURVE",
"48 261 OFFCURVE",
"47 259 OFFCURVE",
"48 257 CURVE",
"45 239 OFFCURVE",
"45 236 OFFCURVE",
"45 231 CURVE SMOOTH",
"44 220 OFFCURVE",
"43 213 OFFCURVE",
"42 212 CURVE SMOOTH",
"39 204 OFFCURVE",
"39 193 OFFCURVE",
"41 185 CURVE",
"41 170 OFFCURVE",
"42 158 OFFCURVE",
"40 149 CURVE",
"45 131 OFFCURVE",
"46 130 OFFCURVE",
"48 127 CURVE",
"62 106 OFFCURVE",
"55 75 OFFCURVE",
"75 58 CURVE",
"80 49 OFFCURVE",
"82 46 OFFCURVE",
"84 41 CURVE SMOOTH",
"92 29 OFFCURVE",
"96 19 OFFCURVE",
"108 10 CURVE SMOOTH",
"114 4 OFFCURVE",
"142 -17 OFFCURVE",
"150 -17 CURVE SMOOTH",
"170 -19 OFFCURVE",
"199 -34 OFFCURVE",
"213 -32 CURVE SMOOTH",
"222 -32 OFFCURVE",
"232 -31 OFFCURVE",
"238 -29 CURVE",
"251 -29 OFFCURVE",
"254 -28 OFFCURVE",
"255 -27 CURVE",
"262 -27 OFFCURVE",
"344 -15 OFFCURVE",
"346 -11 CURVE",
"369 -1 OFFCURVE",
"382 26 OFFCURVE",
"382 38 CURVE",
"386 52 OFFCURVE",
"387 53 OFFCURVE",
"387 53 CURVE",
"402 64 OFFCURVE",
"406 98 OFFCURVE",
"408 111 CURVE",
"432 158 OFFCURVE",
"442 268 OFFCURVE",
"444 314 CURVE SMOOTH",
"445 346 OFFCURVE",
"434 372 OFFCURVE",
"434 401 CURVE SMOOTH",
"434 444 OFFCURVE",
"415 472 OFFCURVE",
"412 502 CURVE SMOOTH",
"409 528 OFFCURVE",
"381 582 OFFCURVE",
"359 595 CURVE SMOOTH",
"343 604 OFFCURVE",
"322 622 OFFCURVE",
"310 625 CURVE",
"288 632 OFFCURVE",
"272 636 OFFCURVE",
"246 636 CURVE SMOOTH",
"229 636 OFFCURVE",
"212 632 OFFCURVE",
"198 628 CURVE SMOOTH"
);
},
{
closed = 1;
nodes = (
"277 538 OFFCURVE",
"287 527 OFFCURVE",
"287 518 CURVE",
"298 492 OFFCURVE",
"306 483 OFFCURVE",
"308 450 CURVE SMOOTH",
"308 447 OFFCURVE",
"310 439 OFFCURVE",
"314 434 CURVE",
"314 416 OFFCURVE",
"316 384 OFFCURVE",
"319 367 CURVE",
"320 351 OFFCURVE",
"323 348 OFFCURVE",
"326 343 CURVE",
"347 284 OFFCURVE",
"352 259 OFFCURVE",
"344 184 CURVE",
"333 169 OFFCURVE",
"322 110 OFFCURVE",
"322 110 CURVE",
"321 110 OFFCURVE",
"315 99 OFFCURVE",
"314 98 CURVE",
"315 90 OFFCURVE",
"311 85 OFFCURVE",
"309 82 CURVE",
"305 79 OFFCURVE",
"296 67 OFFCURVE",
"291 64 CURVE",
"289 61 OFFCURVE",
"282 56 OFFCURVE",
"278 55 CURVE SMOOTH",
"272 52 OFFCURVE",
"267 50 OFFCURVE",
"264 49 CURVE",
"250 51 OFFCURVE",
"247 52 OFFCURVE",
"247 52 CURVE",
"243 54 OFFCURVE",
"237 55 OFFCURVE",
"232 56 CURVE SMOOTH",
"223 59 OFFCURVE",
"214 63 OFFCURVE",
"208 68 CURVE",
"174 94 OFFCURVE",
"165 120 OFFCURVE",
"157 149 CURVE",
"159 193 OFFCURVE",
"147 247 OFFCURVE",
"160 292 CURVE SMOOTH",
"162 297 OFFCURVE",
"164 305 OFFCURVE",
"163 307 CURVE SMOOTH",
"162 314 OFFCURVE",
"160 322 OFFCURVE",
"163 332 CURVE",
"172 352 OFFCURVE",
"176 364 OFFCURVE",
"175 370 CURVE",
"172 379 OFFCURVE",
"180 400 OFFCURVE",
"179 398 CURVE",
"183 404 OFFCURVE",
"201 471 OFFCURVE",
"201 473 CURVE",
"209 484 OFFCURVE",
"210 490 OFFCURVE",
"214 498 CURVE SMOOTH",
"226 516 OFFCURVE",
"244 552 OFFCURVE",
"268 541 CURVE SMOOTH"
);
}
);
};
layerId = UUID0;
paths = (
{
closed = 1;
nodes = (
"184 625 OFFCURVE",
"145 605 OFFCURVE",
"143 598 CURVE",
"128 579 OFFCURVE",
"120 561 OFFCURVE",
"111 542 CURVE SMOOTH",
"97 513 LINE",
"95 504 OFFCURVE",
"91 496 OFFCURVE",
"88 490 CURVE",
"82 476 LINE",
"71 461 OFFCURVE",
"67 445 OFFCURVE",
"67 429 CURVE",
"66 426 OFFCURVE",
"63 418 OFFCURVE",
"65 421 CURVE",
"60 408 OFFCURVE",
"55 397 OFFCURVE",
"55 389 CURVE SMOOTH",
"55 375 OFFCURVE",
"53 361 OFFCURVE",
"51 348 CURVE SMOOTH",
"49 338 OFFCURVE",
"48 327 OFFCURVE",
"48 315 CURVE",
"49 303 OFFCURVE",
"46 294 OFFCURVE",
"43 285 CURVE SMOOTH",
"40 275 LINE",
"40 262 LINE",
"38 242 OFFCURVE",
"38 237 OFFCURVE",
"38 232 CURVE",
"37 221 OFFCURVE",
"36 214 OFFCURVE",
"36 214 CURVE",
"32 205 OFFCURVE",
"32 192 OFFCURVE",
"34 185 CURVE",
"34 175 LINE SMOOTH",
"34 165 OFFCURVE",
"34 157 OFFCURVE",
"33 150 CURVE",
"38 133 OFFCURVE",
"40 131 OFFCURVE",
"42 127 CURVE",
"47 120 OFFCURVE",
"49 108 OFFCURVE",
"51 97 CURVE SMOOTH",
"54 84 OFFCURVE",
"57 71 OFFCURVE",
"70 58 CURVE",
"73 49 OFFCURVE",
"75 45 OFFCURVE",
"75 47 CURVE",
"84 30 LINE SMOOTH",
"86 26 OFFCURVE",
"89 22 OFFCURVE",
"103 11 CURVE",
"108 5 OFFCURVE",
"137 -16 OFFCURVE",
"149 -17 CURVE",
"152 -17 OFFCURVE",
"168 -22 OFFCURVE",
"178 -25 CURVE SMOOTH",
"189 -28 OFFCURVE",
"205 -33 OFFCURVE",
"213 -32 CURVE",
"223 -32 OFFCURVE",
"234 -31 OFFCURVE",
"240 -29 CURVE",
"250 -29 OFFCURVE",
"256 -28 OFFCURVE",
"259 -27 CURVE",
"274 -26 OFFCURVE",
"346 -15 OFFCURVE",
"350 -10 CURVE",
"374 1 OFFCURVE",
"387 27 OFFCURVE",
"388 40 CURVE",
"392 54 OFFCURVE",
"390 54 OFFCURVE",
"390 54 CURVE",
"406 65 OFFCURVE",
"411 95 OFFCURVE",
"413 110 CURVE",
"437 161 OFFCURVE",
"447 269 OFFCURVE",
"449 314 CURVE SMOOTH",
"450 331 OFFCURVE",
"447 348 OFFCURVE",
"444 362 CURVE",
"442 375 OFFCURVE",
"439 386 OFFCURVE",
"439 400 CURVE SMOOTH",
"439 426 OFFCURVE",
"432 447 OFFCURVE",
"426 465 CURVE SMOOTH",
"422 478 OFFCURVE",
"418 491 OFFCURVE",
"417 500 CURVE SMOOTH",
"414 526 OFFCURVE",
"385 582 OFFCURVE",
"361 596 CURVE",
"355 599 OFFCURVE",
"347 605 OFFCURVE",
"342 607 CURVE",
"332 614 OFFCURVE",
"318 623 OFFCURVE",
"310 625 CURVE",
"289 632 OFFCURVE",
"273 636 OFFCURVE",
"245 636 CURVE SMOOTH",
"226 636 OFFCURVE",
"209 632 OFFCURVE",
"195 628 CURVE SMOOTH"
);
},
{
closed = 1;
nodes = (
"271 534 OFFCURVE",
"278 523 OFFCURVE",
"278 515 CURVE",
"280 509 OFFCURVE",
"284 505 OFFCURVE",
"286 500 CURVE SMOOTH",
"291 487 OFFCURVE",
"296 477 OFFCURVE",
"298 449 CURVE",
"298 447 OFFCURVE",
"302 438 OFFCURVE",
"304 433 CURVE",
"304 415 OFFCURVE",
"306 382 OFFCURVE",
"309 366 CURVE",
"310 356 OFFCURVE",
"313 348 OFFCURVE",
"316 344 CURVE",
"329 308 OFFCURVE",
"338 276 OFFCURVE",
"338 241 CURVE SMOOTH",
"338 225 OFFCURVE",
"336 207 OFFCURVE",
"334 185 CURVE",
"323 169 OFFCURVE",
"312 113 OFFCURVE",
"312 113 CURVE",
"310 109 LINE",
"307 103 OFFCURVE",
"304 100 OFFCURVE",
"304 100 CURVE",
"305 93 OFFCURVE",
"303 89 OFFCURVE",
"301 87 CURVE",
"304 87 OFFCURVE",
"295 80 OFFCURVE",
"294 79 CURVE SMOOTH",
"288 73 OFFCURVE",
"281 64 OFFCURVE",
"281 64 CURVE",
"280 63 OFFCURVE",
"275 60 OFFCURVE",
"271 59 CURVE",
"268 57 OFFCURVE",
"263 55 OFFCURVE",
"260 55 CURVE",
"246 56 OFFCURVE",
"249 57 OFFCURVE",
"249 57 CURVE",
"246 59 OFFCURVE",
"240 60 OFFCURVE",
"235 61 CURVE",
"226 64 OFFCURVE",
"217 67 OFFCURVE",
"212 72 CURVE",
"182 94 OFFCURVE",
"173 123 OFFCURVE",
"165 152 CURVE",
"165 161 OFFCURVE",
"165 188 OFFCURVE",
"164 200 CURVE SMOOTH",
"163 212 OFFCURVE",
"162 230 OFFCURVE",
"162 242 CURVE SMOOTH",
"162 258 OFFCURVE",
"164 275 OFFCURVE",
"168 291 CURVE SMOOTH",
"169 296 OFFCURVE",
"171 306 OFFCURVE",
"170 308 CURVE",
"170 316 OFFCURVE",
"168 322 OFFCURVE",
"171 331 CURVE SMOOTH",
"178 352 OFFCURVE",
"183 365 OFFCURVE",
"182 372 CURVE",
"182 377 OFFCURVE",
"185 390 OFFCURVE",
"186 395 CURVE",
"189 402 OFFCURVE",
"208 470 OFFCURVE",
"208 472 CURVE",
"212 479 OFFCURVE",
"215 485 OFFCURVE",
"217 489 CURVE SMOOTH",
"220 495 LINE",
"225 502 LINE SMOOTH",
"236 519 OFFCURVE",
"251 542 OFFCURVE",
"264 536 CURVE"
);
}
);
width = 488;
}
);
unicode = 004F;
},
{
color = (31,255,0,1);
glyphname = S;
lastChange = "2017-09-01 11:03:00 +0000";
layers = (
{
background = {
paths = (
{
closed = 1;
nodes = (
"186 637 OFFCURVE",
"180 635 OFFCURVE",
"178 635 CURVE",
"166 629 OFFCURVE",
"159 626 OFFCURVE",
"156 624 CURVE",
"134 613 LINE",
"108 587 LINE",
"93 571 OFFCURVE",
"91 566 OFFCURVE",
"91 565 CURVE",
"83 555 OFFCURVE",
"80 550 OFFCURVE",
"80 549 CURVE",
"63 518 OFFCURVE",
"62 508 OFFCURVE",
"63 507 CURVE",
"58 488 OFFCURVE",
"57 486 OFFCURVE",
"54 482 CURVE",
"51 469 OFFCURVE",
"54 450 OFFCURVE",
"57 443 CURVE",
"53 417 LINE",
"58 392 OFFCURVE",
"62 386 OFFCURVE",
"63 377 CURVE",
"71 358 LINE",
"80 339 OFFCURVE",
"80 338 OFFCURVE",
"80 338 CURVE",
"102 311 OFFCURVE",
"104 309 OFFCURVE",
"109 307 CURVE",
"121 298 OFFCURVE",
"124 296 OFFCURVE",
"125 296 CURVE",
"148 274 OFFCURVE",
"156 269 OFFCURVE",
"160 268 CURVE",
"179 252 LINE",
"200 240 OFFCURVE",
"209 236 OFFCURVE",
"212 233 CURVE",
"233 223 OFFCURVE",
"236 221 OFFCURVE",
"237 220 CURVE",
"256 211 OFFCURVE",
"259 208 OFFCURVE",
"259 208 CURVE",
"277 185 OFFCURVE",
"279 181 OFFCURVE",
"280 178 CURVE",
"292 167 OFFCURVE",
"293 165 OFFCURVE",
"293 164 CURVE",
"296 152 OFFCURVE",
"297 143 OFFCURVE",
"297 140 CURVE",
"296 134 OFFCURVE",
"296 124 OFFCURVE",
"296 121 CURVE",
"290 106 OFFCURVE",
"287 103 OFFCURVE",
"286 101 CURVE",
"272 87 LINE",
"262 80 OFFCURVE",
"258 76 OFFCURVE",
"257 74 CURVE",
"240 68 OFFCURVE",
"217 61 OFFCURVE",
"215 61 CURVE",
"206 62 OFFCURVE",
"199 63 OFFCURVE",
"191 66 CURVE",
"185 68 OFFCURVE",
"174 71 OFFCURVE",
"174 72 CURVE",
"158 89 LINE SMOOTH",
"145 100 OFFCURVE",
"144 103 OFFCURVE",
"141 104 CURVE",
"128 116 LINE",
"120 125 OFFCURVE",
"117 130 OFFCURVE",
"114 133 CURVE",
"99 155 LINE",
"94 166 OFFCURVE",
"91 170 OFFCURVE",
"89 176 CURVE",
"56 163 OFFCURVE",
"47 154 OFFCURVE",
"45 151 CURVE",
"33 138 OFFCURVE",
"30 131 OFFCURVE",
"29 127 CURVE",
"24 96 OFFCURVE",
"26 89 OFFCURVE",
"27 86 CURVE",
"51 62 OFFCURVE",
"51 62 OFFCURVE",
"51 60 CURVE",
"62 44 OFFCURVE",
"63 41 OFFCURVE",
"65 40 CURVE",
"73 32 OFFCURVE",
"84 23 OFFCURVE",
"86 22 CURVE SMOOTH",
"100 15 OFFCURVE",
"103 13 OFFCURVE",
"105 14 CURVE",
"140 -3 LINE SMOOTH",
"157 -9 OFFCURVE",
"160 -10 OFFCURVE",
"161 -10 CURVE",
"191 -21 OFFCURVE",
"202 -21 OFFCURVE",
"216 -18 CURVE",
"221 -18 OFFCURVE",
"237 -18 OFFCURVE",
"239 -17 CURVE",
"257 -12 OFFCURVE",
"258 -11 OFFCURVE",
"259 -11 CURVE",
"276 -12 OFFCURVE",
"281 -11 OFFCURVE",
"284 -10 CURVE SMOOTH",
"299 -5 OFFCURVE",
"300 -3 OFFCURVE",
"303 -1 CURVE",
"317 3 OFFCURVE",
"321 5 OFFCURVE",
"323 7 CURVE",
"329 8 OFFCURVE",
"367 40 OFFCURVE",
"373 49 CURVE SMOOTH",
"380 63 OFFCURVE",
"383 68 OFFCURVE",
"382 71 CURVE",
"389 88 OFFCURVE",
"392 91 OFFCURVE",
"393 92 CURVE",
"398 115 LINE",
"398 153 LINE",
"393 179 OFFCURVE",
"387 203 OFFCURVE",
"384 207 CURVE",
"362 236 OFFCURVE",
"359 241 OFFCURVE",
"356 243 CURVE",
"349 252 OFFCURVE",
"326 273 OFFCURVE",
"306 282 CURVE",
"284 295 LINE",
"280 299 OFFCURVE",
"268 312 OFFCURVE",
"268 312 CURVE",
"244 330 LINE",
"226 343 LINE",
"211 358 LINE SMOOTH",
"199 369 OFFCURVE",
"193 375 OFFCURVE",
"187 383 CURVE",
"184 384 OFFCURVE",
"176 394 OFFCURVE",
"172 400 CURVE SMOOTH",
"163 416 OFFCURVE",
"154 433 OFFCURVE",
"152 444 CURVE",
"150 451 OFFCURVE",
"151 470 OFFCURVE",
"152 475 CURVE",
"154 492 OFFCURVE",
"155 494 OFFCURVE",
"170 518 CURVE SMOOTH",
"180 532 OFFCURVE",
"191 538 OFFCURVE",
"193 541 CURVE",
"203 545 OFFCURVE",
"208 545 OFFCURVE",
"213 545 CURVE SMOOTH",
"220 545 OFFCURVE",
"227 539 OFFCURVE",
"230 535 CURVE SMOOTH",
"240 522 LINE",
"248 504 OFFCURVE",
"251 501 OFFCURVE",
"252 500 CURVE",
"258 496 OFFCURVE",
"259 490 OFFCURVE",
"260 473 CURVE",
"264 451 OFFCURVE",
"265 448 OFFCURVE",
"270 446 CURVE",
"281 434 OFFCURVE",
"291 427 OFFCURVE",
"294 426 CURVE",
"304 421 OFFCURVE",
"319 415 OFFCURVE",
"327 414 CURVE",
"348 413 LINE",
"364 420 OFFCURVE",
"371 423 OFFCURVE",
"371 426 CURVE",
"373 430 OFFCURVE",
"376 437 OFFCURVE",
"378 454 CURVE SMOOTH",
"382 481 OFFCURVE",
"378 514 OFFCURVE",
"370 535 CURVE",
"365 559 OFFCURVE",
"342 587 OFFCURVE",
"324 604 CURVE SMOOTH",
"313 614 OFFCURVE",
"294 629 OFFCURVE",
"287 631 CURVE",
"278 636 OFFCURVE",
"258 639 OFFCURVE",
"248 640 CURVE SMOOTH",
"226 641 OFFCURVE",
"211 640 OFFCURVE",
"199 638 CURVE"
);
}
);
};
layerId = UUID0;
paths = (
{
closed = 1;
nodes = (
"186 637 OFFCURVE",
"177 636 OFFCURVE",
"177 636 CURVE",
"161 629 LINE",
"127 611 LINE",
"102 587 LINE SMOOTH",
"85 569 OFFCURVE",
"83 564 OFFCURVE",
"83 563 CURVE",
"76 553 OFFCURVE",
"72 548 OFFCURVE",
"72 547 CURVE",
"58 521 OFFCURVE",
"55 508 OFFCURVE",
"56 504 CURVE",
"50 487 OFFCURVE",
"49 485 OFFCURVE",
"46 480 CURVE",
"44 469 OFFCURVE",
"48 449 OFFCURVE",
"50 441 CURVE",
"46 415 LINE",
"55 376 LINE",
"62 361 LINE SMOOTH",
"72 340 OFFCURVE",
"72 338 OFFCURVE",
"72 338 CURVE",
"96 310 OFFCURVE",
"97 307 OFFCURVE",
"105 304 CURVE",
"112 298 OFFCURVE",
"117 295 OFFCURVE",
"120 293 CURVE",
"139 275 OFFCURVE",
"151 268 OFFCURVE",
"157 266 CURVE",
"175 250 LINE",
"194 239 LINE",
"200 236 OFFCURVE",
"203 234 OFFCURVE",
"204 233 CURVE",
"225 223 OFFCURVE",
"228 221 OFFCURVE",
"229 220 CURVE",
"246 212 OFFCURVE",
"251 208 OFFCURVE",
"252 207 CURVE",
"263 193 OFFCURVE",
"267 185 OFFCURVE",
"269 181 CURVE",
"282 168 OFFCURVE",
"283 165 OFFCURVE",
"283 165 CURVE",
"285 155 OFFCURVE",
"287 146 OFFCURVE",
"287 142 CURVE",
"286 136 OFFCURVE",
"286 126 OFFCURVE",
"286 123 CURVE",
"282 112 OFFCURVE",
"280 108 OFFCURVE",
"279 107 CURVE",
"265 91 LINE",
"258 86 OFFCURVE",
"251 79 OFFCURVE",
"249 77 CURVE",
"234 71 OFFCURVE",
"218 67 OFFCURVE",
"215 66 CURVE",
"209 67 OFFCURVE",
"201 67 OFFCURVE",
"193 71 CURVE",
"191 71 OFFCURVE",
"187 72 OFFCURVE",
"185 73 CURVE",
"165 90 LINE",
"165 90 OFFCURVE",
"155 100 OFFCURVE",
"152 104 CURVE",
"147 108 LINE SMOOTH",
"143 111 OFFCURVE",
"138 116 OFFCURVE",
"134 120 CURVE",
"124 132 LINE",
"120 137 LINE",
"106 159 OFFCURVE",
"100 169 OFFCURVE",
"82 171 CURVE",
"64 171 OFFCURVE",
"41 158 OFFCURVE",
"39 155 CURVE",
"25 139 OFFCURVE",
"22 134 OFFCURVE",
"22 132 CURVE",
"22 101 OFFCURVE",
"33 84 OFFCURVE",
"44 63 CURVE",
"54 47 LINE",
"58 41 LINE",
"65 34 OFFCURVE",
"79 24 OFFCURVE",
"82 22 CURVE",
"89 19 LINE",
"98 14 OFFCURVE",
"100 9 OFFCURVE",
"106 12 CURVE",
"137 -3 LINE",
"152 -8 OFFCURVE",
"155 -10 OFFCURVE",
"158 -10 CURVE",
"182 -19 OFFCURVE",
"202 -21 OFFCURVE",
"217 -18 CURVE",
"225 -18 OFFCURVE",
"240 -18 OFFCURVE",
"242 -17 CURVE",
"255 -13 OFFCURVE",
"259 -12 OFFCURVE",
"260 -11 CURVE",
"276 -12 OFFCURVE",
"281 -11 OFFCURVE",
"285 -10 CURVE",
"297 -6 OFFCURVE",
"304 -3 OFFCURVE",
"306 -1 CURVE",
"321 4 OFFCURVE",
"325 6 OFFCURVE",
"327 8 CURVE",
"332 10 OFFCURVE",
"371 39 OFFCURVE",
"376 47 CURVE",
"380 56 LINE",
"386 67 OFFCURVE",
"388 71 OFFCURVE",
"387 74 CURVE",
"393 89 OFFCURVE",
"397 93 OFFCURVE",
"398 94 CURVE",
"403 117 LINE",
"403 156 LINE",
"398 179 OFFCURVE",
"391 204 OFFCURVE",
"387 210 CURVE SMOOTH",
"372 231 LINE",
"364 241 OFFCURVE",
"358 247 OFFCURVE",
"358 247 CURVE",
"353 255 OFFCURVE",
"330 275 OFFCURVE",
"307 285 CURVE",
"288 297 LINE",
"271 314 LINE",
"247 332 LINE",
"229 345 LINE",
"215 360 LINE",
"205 369 OFFCURVE",
"199 374 OFFCURVE",
"192 385 CURVE",
"190 385 OFFCURVE",
"182 395 OFFCURVE",
"178 401 CURVE SMOOTH",
"170 414 OFFCURVE",
"162 430 OFFCURVE",
"160 444 CURVE",
"158 450 OFFCURVE",
"159 468 OFFCURVE",
"160 472 CURVE",
"161 491 OFFCURVE",
"162 493 OFFCURVE",
"176 514 CURVE SMOOTH",
"183 525 OFFCURVE",
"192 532 OFFCURVE",
"198 537 CURVE",
"205 540 OFFCURVE",
"208 540 OFFCURVE",
"212 540 CURVE SMOOTH",
"215 540 OFFCURVE",
"220 535 OFFCURVE",
"223 531 CURVE SMOOTH",
"233 518 LINE",
"240 501 OFFCURVE",
"241 500 OFFCURVE",
"241 500 CURVE",
"249 495 OFFCURVE",
"250 489 OFFCURVE",
"251 471 CURVE",
"254 453 OFFCURVE",
"257 447 OFFCURVE",
"263 443 CURVE",
"270 436 OFFCURVE",
"283 425 OFFCURVE",
"288 422 CURVE SMOOTH",
"297 417 OFFCURVE",
"314 411 OFFCURVE",
"324 410 CURVE",
"349 409 LINE",
"368 417 OFFCURVE",
"377 421 OFFCURVE",
"377 425 CURVE",
"378 429 OFFCURVE",
"381 438 OFFCURVE",
"383 453 CURVE SMOOTH",
"386 479 OFFCURVE",
"382 513 OFFCURVE",
"375 534 CURVE",
"372 556 OFFCURVE",
"347 586 OFFCURVE",
"327 604 CURVE",
"316 612 OFFCURVE",
"296 627 OFFCURVE",
"287 631 CURVE",
"281 636 OFFCURVE",
"259 639 OFFCURVE",
"247 640 CURVE SMOOTH",
"224 641 OFFCURVE",
"209 640 OFFCURVE",
"197 638 CURVE"
);
}
);
width = 432;
}
);
unicode = 0053;
},
{
color = (31,255,0,1);
glyphname = T;
lastChange = "2017-09-01 11:03:00 +0000";
layers = (
{
background = {
paths = (
{
closed = 1;
nodes = (
"221 565 LINE",
"221 553 OFFCURVE",
"218 498 OFFCURVE",
"217 491 CURVE SMOOTH",
"214 470 LINE SMOOTH",
"212 457 OFFCURVE",
"212 449 OFFCURVE",
"211 441 CURVE",
"211 424 OFFCURVE",
"210 409 OFFCURVE",
"210 409 CURVE",
"209 389 OFFCURVE",
"209 383 OFFCURVE",
"207 381 CURVE",
"205 358 OFFCURVE",
"205 355 OFFCURVE",
"206 354 CURVE",
"203 337 OFFCURVE",
"203 329 OFFCURVE",
"203 321 CURVE",
"201 307 OFFCURVE",
"201 300 OFFCURVE",
"200 291 CURVE",
"200 271 OFFCURVE",
"200 269 OFFCURVE",
"198 265 CURVE",
"196 250 OFFCURVE",
"194 245 OFFCURVE",
"197 244 CURVE",
"193 228 OFFCURVE",
"193 226 OFFCURVE",
"193 224 CURVE",
"191 213 OFFCURVE",
"191 206 OFFCURVE",
"192 206 CURVE",
"188 187 OFFCURVE",
"189 182 OFFCURVE",
"190 181 CURVE",
"188 164 OFFCURVE",
"187 160 OFFCURVE",
"187 153 CURVE",
"186 136 OFFCURVE",
"186 133 OFFCURVE",
"185 132 CURVE",
"185 115 OFFCURVE",
"185 113 OFFCURVE",
"184 109 CURVE",
"186 91 OFFCURVE",
"186 86 OFFCURVE",
"186 81 CURVE",
"189 67 OFFCURVE",
"190 66 OFFCURVE",
"190 64 CURVE",
"196 47 OFFCURVE",
"198 45 OFFCURVE",
"204 40 CURVE",
"214 20 OFFCURVE",
"222 13 OFFCURVE",
"224 13 CURVE",
"239 -2 OFFCURVE",
"240 -3 OFFCURVE",
"242 -3 CURVE",
"260 -12 OFFCURVE",
"260 -12 OFFCURVE",
"260 -13 CURVE",
"282 -12 OFFCURVE",
"287 -8 OFFCURVE",
"287 -7 CURVE",
"293 14 OFFCURVE",
"292 31 OFFCURVE",
"290 32 CURVE",
"289 33 OFFCURVE",
"289 43 OFFCURVE",
"289 63 CURVE",
"290 77 OFFCURVE",
"290 91 OFFCURVE",
"290 91 CURVE",
"292 92 OFFCURVE",
"292 110 OFFCURVE",
"292 130 CURVE SMOOTH",
"293 152 OFFCURVE",
"293 176 OFFCURVE",
"293 181 CURVE",
"293 212 OFFCURVE",
"293 220 OFFCURVE",
"294 228 CURVE",
"295 233 OFFCURVE",
"295 242 OFFCURVE",
"295 249 CURVE",
"297 261 OFFCURVE",
"297 268 OFFCURVE",
"297 277 CURVE",
"300 323 LINE",
"303 332 OFFCURVE",
"305 341 OFFCURVE",
"306 347 CURVE SMOOTH",
"308 360 OFFCURVE",
"308 364 OFFCURVE",
"309 366 CURVE",
"311 386 OFFCURVE",
"312 395 OFFCURVE",
"312 399 CURVE",
"315 421 OFFCURVE",
"315 430 OFFCURVE",
"316 435 CURVE",
"320 478 OFFCURVE",
"320 487 OFFCURVE",
"320 495 CURVE",
"320 508 OFFCURVE",
"322 533 OFFCURVE",
"322 535 CURVE",
"326 597 LINE"
);
},
{
closed = 1;
nodes = (
"277 539 LINE",
"277 543 OFFCURVE",
"304 546 OFFCURVE",
"304 546 CURVE",
"304 547 OFFCURVE",
"330 552 OFFCURVE",
"349 554 CURVE",
"360 556 OFFCURVE",
"365 557 OFFCURVE",
"369 557 CURVE",
"386 562 OFFCURVE",
"392 563 OFFCURVE",
"396 564 CURVE",
"429 570 LINE SMOOTH",
"462 576 OFFCURVE",
"469 577 OFFCURVE",
"472 577 CURVE SMOOTH",
"494 578 OFFCURVE",
"495 578 OFFCURVE",
"500 575 CURVE",
"509 568 OFFCURVE",
"513 566 OFFCURVE",
"516 564 CURVE",
"516 591 OFFCURVE",
"511 597 OFFCURVE",
"509 600 CURVE SMOOTH",
"497 618 LINE",
"495 623 OFFCURVE",
"492 635 OFFCURVE",
"486 643 CURVE",
"471 657 OFFCURVE",
"461 662 OFFCURVE",
"459 661 CURVE",
"452 663 OFFCURVE",
"429 665 OFFCURVE",
"425 663 CURVE",
"407 661 OFFCURVE",
"401 659 OFFCURVE",
"399 658 CURVE",
"363 653 OFFCURVE",
"363 653 OFFCURVE",
"363 652 CURVE",
"346 646 OFFCURVE",
"297 639 OFFCURVE",
"296 639 CURVE SMOOTH",
"277 639 OFFCURVE",
"261 637 OFFCURVE",
"258 635 CURVE",
"240 632 OFFCURVE",
"238 631 OFFCURVE",
"236 631 CURVE",
"224 628 OFFCURVE",
"220 627 OFFCURVE",
"217 626 CURVE",
"178 613 OFFCURVE",
"161 607 OFFCURVE",
"158 605 CURVE",
"137 596 LINE SMOOTH",
"104 582 OFFCURVE",
"87 583 OFFCURVE",
"80 581 CURVE",
"65 578 OFFCURVE",
"63 578 OFFCURVE",
"60 578 CURVE",
"30 561 OFFCURVE",
"29 559 OFFCURVE",
"29 558 CURVE",
"25 510 LINE",
"29 493 OFFCURVE",
"31 490 OFFCURVE",
"32 490 CURVE",
"47 485 OFFCURVE",
"50 485 OFFCURVE",
"60 485 CURVE",
"77 485 OFFCURVE",
"81 486 OFFCURVE",
"84 486 CURVE",
"97 489 OFFCURVE",
"101 490 OFFCURVE",
"105 490 CURVE",
"121 493 OFFCURVE",
"147 499 OFFCURVE",
"155 503 CURVE",
"180 509 LINE SMOOTH",
"194 512 OFFCURVE",
"203 515 OFFCURVE",
"205 516 CURVE",
"206 514 OFFCURVE",
"237 530 OFFCURVE",
"237 529 CURVE"
);
}
);
};
layerId = UUID0;
paths = (
{
closed = 1;
nodes = (
"212 564 LINE",
"212 552 OFFCURVE",
"209 496 OFFCURVE",
"208 490 CURVE SMOOTH",
"205 469 LINE SMOOTH",
"204 461 OFFCURVE",
"203 454 OFFCURVE",
"203 449 CURVE SMOOTH",
"203 446 OFFCURVE",
"202 443 OFFCURVE",
"202 440 CURVE SMOOTH",
"202 423 OFFCURVE",
"201 408 OFFCURVE",
"201 408 CURVE",
"201 401 LINE",
"200 387 OFFCURVE",
"201 384 OFFCURVE",
"199 382 CURVE",
"197 362 OFFCURVE",
"197 356 OFFCURVE",
"198 354 CURVE",
"194 338 OFFCURVE",
"194 329 OFFCURVE",
"194 321 CURVE",
"193 312 OFFCURVE",
"192 307 OFFCURVE",
"192 301 CURVE SMOOTH",
"192 298 OFFCURVE",
"191 294 OFFCURVE",
"191 291 CURVE SMOOTH",
"191 271 OFFCURVE",
"191 269 OFFCURVE",
"189 263 CURVE",
"188 262 OFFCURVE",
"188 257 OFFCURVE",
"188 256 CURVE",
"187 253 OFFCURVE",
"188 249 OFFCURVE",
"189 246 CURVE",
"186 235 OFFCURVE",
"185 229 OFFCURVE",
"185 226 CURVE",
"184 218 OFFCURVE",
"185 210 OFFCURVE",
"188 206 CURVE",
"180 189 OFFCURVE",
"181 183 OFFCURVE",
"183 180 CURVE",
"181 177 OFFCURVE",
"180 172 OFFCURVE",
"180 169 CURVE",
"179 165 OFFCURVE",
"179 159 OFFCURVE",
"179 155 CURVE SMOOTH",
"179 148 LINE",
"178 141 OFFCURVE",
"178 135 OFFCURVE",
"179 136 CURVE",
"177 118 OFFCURVE",
"177 116 OFFCURVE",
"176 112 CURVE",
"178 94 OFFCURVE",
"178 88 OFFCURVE",
"178 82 CURVE",
"179 76 OFFCURVE",
"189 23 OFFCURVE",
"190 21 CURVE",
"198 -20 OFFCURVE",
"241 -7 OFFCURVE",
"255 -5 CURVE",
"279 1 OFFCURVE",
"295 22 OFFCURVE",
"293 38 CURVE",
"296 36 OFFCURVE",
"296 57 OFFCURVE",
"296 65 CURVE",
"297 79 OFFCURVE",
"295 91 OFFCURVE",
"295 91 CURVE",
"298 93 OFFCURVE",
"299 118 OFFCURVE",
"299 132 CURVE SMOOTH",
"299 154 OFFCURVE",
"299 177 OFFCURVE",
"299 182 CURVE SMOOTH",
"299 213 OFFCURVE",
"299 221 OFFCURVE",
"300 229 CURVE",
"301 231 OFFCURVE",
"301 245 OFFCURVE",
"301 250 CURVE",
"302 257 OFFCURVE",
"303 272 OFFCURVE",
"303 277 CURVE",
"306 322 LINE",
"309 329 OFFCURVE",
"311 339 OFFCURVE",
"312 346 CURVE",
"313 350 OFFCURVE",
"314 354 OFFCURVE",
"314 358 CURVE SMOOTH",
"314 360 OFFCURVE",
"315 364 OFFCURVE",
"314 365 CURVE",
"315 370 OFFCURVE",
"316 373 OFFCURVE",
"316 376 CURVE",
"317 386 OFFCURVE",
"318 394 OFFCURVE",
"318 398 CURVE",
"320 411 OFFCURVE",
"320 419 OFFCURVE",
"321 425 CURVE",
"321 428 OFFCURVE",
"322 432 OFFCURVE",
"322 434 CURVE",
"326 474 OFFCURVE",
"326 486 OFFCURVE",
"326 494 CURVE SMOOTH",
"326 502 OFFCURVE",
"327 518 OFFCURVE",
"328 527 CURVE",
"328 533 LINE",
"332 601 LINE"
);
},
{
closed = 1;
nodes = (
"284 535 LINE",
"284 539 OFFCURVE",
"310 542 OFFCURVE",
"310 542 CURVE",
"310 543 OFFCURVE",
"331 547 OFFCURVE",
"347 549 CURVE",
"361 552 OFFCURVE",
"365 552 OFFCURVE",
"369 552 CURVE",
"382 556 OFFCURVE",
"389 557 OFFCURVE",
"393 558 CURVE SMOOTH",
"427 565 LINE SMOOTH",
"458 571 OFFCURVE",
"467 572 OFFCURVE",
"469 572 CURVE",
"494 580 OFFCURVE",
"506 584 OFFCURVE",
"502 615 CURVE",
"501 616 OFFCURVE",
"499 620 OFFCURVE",
"499 624 CURVE",
"493 638 LINE",
"476 654 OFFCURVE",
"464 661 OFFCURVE",
"458 661 CURVE",
"449 663 OFFCURVE",
"423 665 OFFCURVE",
"418 663 CURVE",
"401 660 OFFCURVE",
"395 659 OFFCURVE",
"393 658 CURVE",
"357 653 OFFCURVE",
"353 652 OFFCURVE",
"353 650 CURVE",
"334 644 OFFCURVE",
"296 639 OFFCURVE",
"295 639 CURVE SMOOTH",
"277 639 OFFCURVE",
"260 637 OFFCURVE",
"254 635 CURVE",
"238 632 LINE",
"211 625 LINE",
"155 605 LINE",
"134 597 LINE SMOOTH",
"109 587 OFFCURVE",
"95 584 OFFCURVE",
"87 583 CURVE",
"36 567 OFFCURVE",
"18 553 OFFCURVE",
"18 507 CURVE",
"21 494 OFFCURVE",
"26 488 OFFCURVE",
"30 486 CURVE",
"43 482 OFFCURVE",
"50 481 OFFCURVE",
"61 481 CURVE SMOOTH",
"73 481 OFFCURVE",
"79 482 OFFCURVE",
"81 482 CURVE SMOOTH",
"85 482 OFFCURVE",
"88 483 OFFCURVE",
"89 483 CURVE",
"100 486 OFFCURVE",
"103 486 OFFCURVE",
"106 486 CURVE",
"124 489 OFFCURVE",
"152 495 OFFCURVE",
"159 498 CURVE",
"182 504 LINE SMOOTH",
"197 508 OFFCURVE",
"208 511 OFFCURVE",
"208 511 CURVE",
"212 512 OFFCURVE",
"222 516 OFFCURVE",
"229 520 CURVE",
"235 523 OFFCURVE",
"237 524 OFFCURVE",
"238 524 CURVE"
);
}
);
width = 477;
}
);
unicode = 0054;
},
{
color = (31,255,0,1);
glyphname = U;
lastChange = "2017-09-01 11:03:00 +0000";
layers = (
{
background = {
paths = (
{
closed = 1;
nodes = (
"96 627 OFFCURVE",
"95 625 OFFCURVE",
"94 623 CURVE SMOOTH",
"88 600 LINE",
"83 579 OFFCURVE",
"82 567 OFFCURVE",
"83 563 CURVE",
"79 546 OFFCURVE",
"77 542 OFFCURVE",
"75 520 CURVE",
"75 503 OFFCURVE",
"74 498 OFFCURVE",
"73 494 CURVE SMOOTH",
"71 482 OFFCURVE",
"70 477 OFFCURVE",
"68 464 CURVE",
"68 446 LINE",
"65 430 OFFCURVE",
"64 415 OFFCURVE",
"64 412 CURVE SMOOTH",
"63 392 OFFCURVE",
"63 387 OFFCURVE",
"63 386 CURVE SMOOTH",
"61 375 OFFCURVE",
"59 365 OFFCURVE",
"59 359 CURVE",
"63 344 OFFCURVE",
"64 342 OFFCURVE",
"63 341 CURVE",
"59 327 OFFCURVE",
"59 321 OFFCURVE",
"60 319 CURVE",
"59 315 OFFCURVE",
"57 308 OFFCURVE",
"56 296 CURVE",
"57 274 OFFCURVE",
"57 270 OFFCURVE",
"57 270 CURVE",
"55 259 OFFCURVE",
"54 240 OFFCURVE",
"55 240 CURVE",
"59 224 OFFCURVE",
"60 219 OFFCURVE",
"60 213 CURVE SMOOTH",
"60 190 OFFCURVE",
"60 183 OFFCURVE",
"59 179 CURVE",
"61 169 OFFCURVE",
"63 164 OFFCURVE",
"62 154 CURVE SMOOTH",
"61 138 OFFCURVE",
"61 135 OFFCURVE",
"62 128 CURVE SMOOTH",
"68 106 OFFCURVE",
"69 101 OFFCURVE",
"70 100 CURVE",
"79 69 LINE",
"88 53 OFFCURVE",
"89 52 OFFCURVE",
"89 50 CURVE SMOOTH",
"96 30 OFFCURVE",
"99 29 OFFCURVE",
"104 30 CURVE",
"114 14 OFFCURVE",
"119 10 OFFCURVE",
"121 10 CURVE",
"142 -1 LINE SMOOTH",
"157 -9 OFFCURVE",
"159 -10 OFFCURVE",
"160 -12 CURVE",
"181 -14 OFFCURVE",
"185 -15 OFFCURVE",
"186 -16 CURVE",
"202 -18 OFFCURVE",
"212 -20 OFFCURVE",
"214 -22 CURVE",
"232 -23 OFFCURVE",
"233 -23 OFFCURVE",
"234 -24 CURVE",
"254 -24 OFFCURVE",
"257 -22 OFFCURVE",
"258 -21 CURVE SMOOTH",
"263 -8 OFFCURVE",
"269 3 OFFCURVE",
"274 10 CURVE",
"292 40 LINE",
"298 59 OFFCURVE",
"299 61 OFFCURVE",
"301 64 CURVE",
"302 68 OFFCURVE",
"310 76 OFFCURVE",
"312 83 CURVE",
"323 103 OFFCURVE",
"324 104 OFFCURVE",
"324 106 CURVE SMOOTH",
"327 116 LINE",
"329 108 OFFCURVE",
"332 102 OFFCURVE",
"332 101 CURVE SMOOTH",
"342 87 OFFCURVE",
"337 83 OFFCURVE",
"338 79 CURVE SMOOTH",
"343 63 OFFCURVE",
"343 61 OFFCURVE",
"345 59 CURVE",
"348 50 OFFCURVE",
"347 31 OFFCURVE",
"351 24 CURVE SMOOTH",
"356 13 OFFCURVE",
"359 -9 OFFCURVE",
"362 -12 CURVE",
"362 -34 OFFCURVE",
"400 -32 OFFCURVE",
"407 -29 CURVE SMOOTH",
"424 -23 OFFCURVE",
"448 -21 OFFCURVE",
"453 -17 CURVE SMOOTH",
"467 -4 OFFCURVE",
"460 -5 OFFCURVE",
"463 7 CURVE",
"459 22 OFFCURVE",
"449 35 OFFCURVE",
"447 38 CURVE",
"445 55 OFFCURVE",
"437 64 OFFCURVE",
"437 82 CURVE",
"438 87 OFFCURVE",
"426 137 OFFCURVE",
"425 145 CURVE SMOOTH",
"419 170 OFFCURVE",
"415 219 OFFCURVE",
"418 227 CURVE SMOOTH",
"420 232 OFFCURVE",
"422 256 OFFCURVE",
"422 277 CURVE",
"424 297 OFFCURVE",
"425 307 OFFCURVE",
"425 315 CURVE",
"431 358 LINE",
"430 366 OFFCURVE",
"431 374 OFFCURVE",
"432 381 CURVE",
"435 389 OFFCURVE",
"437 401 OFFCURVE",
"438 408 CURVE SMOOTH",
"439 422 OFFCURVE",
"440 430 OFFCURVE",
"441 432 CURVE SMOOTH",
"445 453 OFFCURVE",
"447 459 OFFCURVE",
"449 464 CURVE",
"451 470 OFFCURVE",
"452 481 OFFCURVE",
"452 489 CURVE",
"457 516 LINE SMOOTH",
"458 523 OFFCURVE",
"460 532 OFFCURVE",
"460 539 CURVE SMOOTH",
"461 553 OFFCURVE",
"466 566 OFFCURVE",
"469 569 CURVE",
"460 586 OFFCURVE",
"459 587 OFFCURVE",
"457 587 CURVE",
"452 602 OFFCURVE",
"449 607 OFFCURVE",
"443 609 CURVE",
"422 610 OFFCURVE",
"417 610 OFFCURVE",
"415 609 CURVE",
"397 608 OFFCURVE",
"396 608 OFFCURVE",
"395 608 CURVE",
"376 595 LINE",
"370 584 OFFCURVE",
"366 561 OFFCURVE",
"365 560 CURVE SMOOTH",
"358 546 OFFCURVE",
"359 544 OFFCURVE",
"361 540 CURVE",
"358 525 OFFCURVE",
"358 522 OFFCURVE",
"357 520 CURVE SMOOTH",
"352 510 OFFCURVE",
"349 506 OFFCURVE",
"349 501 CURVE SMOOTH",
"346 480 OFFCURVE",
"342 476 OFFCURVE",
"341 476 CURVE",
"338 455 OFFCURVE",
"338 452 OFFCURVE",
"338 450 CURVE",
"329 434 OFFCURVE",
"329 433 OFFCURVE",
"329 430 CURVE SMOOTH",
"329 410 OFFCURVE",
"324 394 OFFCURVE",
"322 388 CURVE",
"319 369 OFFCURVE",
"319 367 OFFCURVE",
"318 367 CURVE",
"321 349 OFFCURVE",
"319 343 OFFCURVE",
"319 339 CURVE",
"314 322 OFFCURVE",
"314 320 OFFCURVE",
"314 317 CURVE",
"305 300 OFFCURVE",
"305 298 OFFCURVE",
"306 294 CURVE",
"300 275 OFFCURVE",
"299 273 OFFCURVE",
"299 269 CURVE",
"293 248 OFFCURVE",
"286 222 OFFCURVE",
"284 218 CURVE SMOOTH",
"275 196 OFFCURVE",
"268 184 OFFCURVE",
"267 184 CURVE",
"265 176 OFFCURVE",
"264 168 OFFCURVE",
"262 164 CURVE SMOOTH",
"252 148 OFFCURVE",
"252 144 OFFCURVE",
"251 141 CURVE SMOOTH",
"242 122 OFFCURVE",
"242 121 OFFCURVE",
"240 121 CURVE",
"235 107 OFFCURVE",
"233 100 OFFCURVE",
"232 99 CURVE SMOOTH",
"223 88 OFFCURVE",
"221 85 OFFCURVE",
"220 83 CURVE",
"202 70 OFFCURVE",
"190 70 OFFCURVE",
"189 70 CURVE",
"173 91 OFFCURVE",
"170 107 OFFCURVE",
"165 135 CURVE",
"162 165 OFFCURVE",
"157 235 OFFCURVE",
"161 241 CURVE",
"165 266 OFFCURVE",
"171 293 OFFCURVE",
"171 300 CURVE",
"173 313 OFFCURVE",
"176 329 OFFCURVE",
"176 336 CURVE SMOOTH",
"177 354 OFFCURVE",
"177 360 OFFCURVE",
"177 363 CURVE SMOOTH",
"179 374 OFFCURVE",
"179 380 OFFCURVE",
"180 387 CURVE SMOOTH",
"181 393 OFFCURVE",
"181 401 OFFCURVE",
"181 405 CURVE SMOOTH",
"181 424 LINE",
"184 448 OFFCURVE",
"185 458 OFFCURVE",
"184 465 CURVE",
"189 500 OFFCURVE",
"190 511 OFFCURVE",
"190 516 CURVE",
"195 546 OFFCURVE",
"204 578 OFFCURVE",
"207 588 CURVE",
"220 603 LINE",
"218 611 OFFCURVE",
"211 613 OFFCURVE",
"205 616 CURVE SMOOTH",
"202 617 OFFCURVE",
"193 622 OFFCURVE",
"183 625 CURVE SMOOTH",
"153 634 OFFCURVE",
"152 636 OFFCURVE",
"149 636 CURVE SMOOTH",
"123 637 OFFCURVE",
"118 637 OFFCURVE",
"115 635 CURVE SMOOTH"
);
}
);
};
layerId = UUID0;
paths = (
{
closed = 1;
nodes = (
"112 635 LINE",
"90 626 OFFCURVE",
"87 621 OFFCURVE",
"85 616 CURVE",
"80 599 LINE",
"76 577 OFFCURVE",
"75 564 OFFCURVE",
"76 560 CURVE",
"75 557 OFFCURVE",
"74 554 OFFCURVE",
"74 552 CURVE",
"71 543 OFFCURVE",
"70 536 OFFCURVE",
"68 518 CURVE",
"68 502 OFFCURVE",
"67 497 OFFCURVE",
"66 494 CURVE",
"66 491 OFFCURVE",
"64 485 OFFCURVE",
"64 482 CURVE",
"61 463 LINE",
"61 446 LINE",
"59 433 OFFCURVE",
"57 417 OFFCURVE",
"57 411 CURVE",
"56 391 OFFCURVE",
"56 386 OFFCURVE",
"56 385 CURVE",
"53 374 OFFCURVE",
"52 364 OFFCURVE",
"52 358 CURVE",
"52 329 OFFCURVE",
"51 323 OFFCURVE",
"53 320 CURVE",
"52 315 OFFCURVE",
"50 307 OFFCURVE",
"49 296 CURVE",
"50 282 OFFCURVE",
"50 275 OFFCURVE",
"50 272 CURVE",
"49 248 OFFCURVE",
"53 234 OFFCURVE",
"53 214 CURVE SMOOTH",
"53 192 OFFCURVE",
"53 185 OFFCURVE",
"52 181 CURVE",
"52 179 OFFCURVE",
"53 176 OFFCURVE",
"53 174 CURVE",
"54 167 OFFCURVE",
"55 164 OFFCURVE",
"55 156 CURVE",
"54 139 OFFCURVE",
"54 136 OFFCURVE",
"55 129 CURVE",
"59 113 LINE SMOOTH",
"61 105 OFFCURVE",
"63 102 OFFCURVE",
"65 100 CURVE",
"72 71 LINE",
"78 59 LINE",
"81 55 OFFCURVE",
"81 54 OFFCURVE",
"81 52 CURVE",
"87 35 OFFCURVE",
"92 30 OFFCURVE",
"98 29 CURVE",
"105 17 OFFCURVE",
"113 12 OFFCURVE",
"118 10 CURVE",
"123 7 OFFCURVE",
"134 1 OFFCURVE",
"139 -1 CURVE",
"150 -8 OFFCURVE",
"152 -9 OFFCURVE",
"154 -12 CURVE",
"176 -14 OFFCURVE",
"179 -15 OFFCURVE",
"180 -15 CURVE",
"195 -17 OFFCURVE",
"205 -19 OFFCURVE",
"208 -22 CURVE",
"226 -23 OFFCURVE",
"227 -23 OFFCURVE",
"228 -24 CURVE",
"249 -27 OFFCURVE",
"266 -15 OFFCURVE",
"280 11 CURVE",
"298 43 LINE",
"304 59 OFFCURVE",
"305 61 OFFCURVE",
"307 65 CURVE",
"307 67 OFFCURVE",
"308 68 OFFCURVE",
"310 71 CURVE",
"313 77 OFFCURVE",
"318 83 OFFCURVE",
"318 84 CURVE",
"324 97 LINE",
"329 90 OFFCURVE",
"329 86 OFFCURVE",
"328 84 CURVE",
"331 69 LINE",
"332 66 OFFCURVE",
"332 64 OFFCURVE",
"335 61 CURVE",
"337 46 LINE SMOOTH",
"338 39 OFFCURVE",
"339 32 OFFCURVE",
"342 26 CURVE",
"342 26 OFFCURVE",
"345 14 OFFCURVE",
"347 5 CURVE",
"349 -1 OFFCURVE",
"351 -7 OFFCURVE",
"353 -10 CURVE",
"374 -30 OFFCURVE",
"399 -33 OFFCURVE",
"407 -29 CURVE SMOOTH",
"416 -25 OFFCURVE",
"425 -24 OFFCURVE",
"433 -22 CURVE SMOOTH",
"465 -16 OFFCURVE",
"468 10 OFFCURVE",
"452 42 CURVE",
"451 49 OFFCURVE",
"453 44 OFFCURVE",
"451 50 CURVE",
"446 60 OFFCURVE",
"442 72 OFFCURVE",
"442 83 CURVE",
"443 87 OFFCURVE",
"438 109 OFFCURVE",
"434 126 CURVE SMOOTH",
"432 135 OFFCURVE",
"430 145 OFFCURVE",
"430 148 CURVE",
"424 171 OFFCURVE",
"420 217 OFFCURVE",
"422 227 CURVE",
"424 234 OFFCURVE",
"426 261 OFFCURVE",
"427 277 CURVE",
"429 292 OFFCURVE",
"430 307 OFFCURVE",
"430 315 CURVE",
"436 358 LINE",
"435 366 OFFCURVE",
"436 374 OFFCURVE",
"437 381 CURVE",
"441 391 OFFCURVE",
"442 401 OFFCURVE",
"443 407 CURVE",
"444 421 OFFCURVE",
"445 430 OFFCURVE",
"447 433 CURVE",
"452 458 OFFCURVE",
"452 461 OFFCURVE",
"453 462 CURVE",
"456 470 OFFCURVE",
"457 481 OFFCURVE",
"457 488 CURVE",
"462 514 LINE",
"462 516 OFFCURVE",
"463 518 OFFCURVE",
"463 520 CURVE",
"464 524 OFFCURVE",
"465 533 OFFCURVE",
"465 537 CURVE",
"471 561 OFFCURVE",
"471 573 OFFCURVE",
"462 587 CURVE",
"457 600 OFFCURVE",
"452 606 OFFCURVE",
"443 609 CURVE",
"417 611 OFFCURVE",
"411 611 OFFCURVE",
"408 609 CURVE",
"395 608 OFFCURVE",
"391 608 OFFCURVE",
"390 608 CURVE",
"366 592 LINE",
"362 583 OFFCURVE",
"359 573 OFFCURVE",
"357 566 CURVE SMOOTH",
"356 562 OFFCURVE",
"355 559 OFFCURVE",
"355 559 CURVE",
"349 546 OFFCURVE",
"349 542 OFFCURVE",
"351 538 CURVE",
"350 531 OFFCURVE",
"348 522 OFFCURVE",
"348 525 CURVE",
"347 521 OFFCURVE",
"346 517 OFFCURVE",
"347 518 CURVE",
"342 507 OFFCURVE",
"339 502 OFFCURVE",
"339 499 CURVE",
"331 475 LINE",
"328 454 OFFCURVE",
"328 451 OFFCURVE",
"328 449 CURVE",
"319 432 OFFCURVE",
"319 431 OFFCURVE",
"319 429 CURVE SMOOTH",
"319 410 OFFCURVE",
"314 394 OFFCURVE",
"312 388 CURVE SMOOTH",
"311 385 OFFCURVE",
"310 381 OFFCURVE",
"310 377 CURVE",
"309 371 OFFCURVE",
"309 370 OFFCURVE",
"308 370 CURVE",
"309 362 OFFCURVE",
"309 348 OFFCURVE",
"309 343 CURVE",
"305 326 OFFCURVE",
"304 321 OFFCURVE",
"304 317 CURVE",
"296 301 OFFCURVE",
"296 298 OFFCURVE",
"296 295 CURVE",
"294 285 LINE",
"291 275 OFFCURVE",
"290 274 OFFCURVE",
"290 270 CURVE",
"285 254 LINE",
"275 220 LINE SMOOTH",
"270 205 OFFCURVE",
"256 192 OFFCURVE",
"256 178 CURVE",
"253 166 LINE",
"242 146 LINE",
"238 135 LINE",
"234 127 OFFCURVE",
"234 126 OFFCURVE",
"231 126 CURVE",
"227 111 LINE",
"225 107 OFFCURVE",
"220 104 OFFCURVE",
"220 103 CURVE",
"192 81 OFFCURVE",
"176 99 OFFCURVE",
"173 137 CURVE",
"170 168 OFFCURVE",
"165 235 OFFCURVE",
"169 242 CURVE",
"170 252 OFFCURVE",
"173 263 OFFCURVE",
"174 273 CURVE SMOOTH",
"175 283 OFFCURVE",
"178 299 OFFCURVE",
"179 300 CURVE",
"179 302 OFFCURVE",
"180 306 OFFCURVE",
"181 309 CURVE",
"183 317 OFFCURVE",
"184 330 OFFCURVE",
"184 336 CURVE",
"185 354 OFFCURVE",
"185 360 OFFCURVE",
"185 363 CURVE",
"186 370 OFFCURVE",
"186 375 OFFCURVE",
"186 379 CURVE SMOOTH",
"186 381 OFFCURVE",
"187 385 OFFCURVE",
"187 386 CURVE",
"188 392 OFFCURVE",
"188 400 OFFCURVE",
"188 404 CURVE SMOOTH",
"188 423 LINE",
"190 437 OFFCURVE",
"191 456 OFFCURVE",
"191 464 CURVE",
"196 497 OFFCURVE",
"197 509 OFFCURVE",
"197 514 CURVE",
"205 588 OFFCURVE",
"196 622 OFFCURVE",
"185 625 CURVE SMOOTH",
"170 629 OFFCURVE",
"161 633 OFFCURVE",
"157 635 CURVE SMOOTH",
"155 636 OFFCURVE",
"151 636 OFFCURVE",
"149 636 CURVE",
"130 637 OFFCURVE",
"116 637 OFFCURVE",
"111 634 CURVE"
);
}
);
width = 508;
}
);
unicode = 0055;
},
{
color = (31,255,0,1);
glyphname = X;
lastChange = "2017-09-01 11:03:00 +0000";
layers = (
{
background = {
paths = (
{
closed = 1;
nodes = (
"128 653 LINE",
"100 649 OFFCURVE",
"93 649 OFFCURVE",
"91 649 CURVE SMOOTH",
"88 650 OFFCURVE",
"75 648 OFFCURVE",
"65 642 CURVE",
"57 624 OFFCURVE",
"57 621 OFFCURVE",
"57 612 CURVE",
"63 591 OFFCURVE",
"59 583 OFFCURVE",
"59 583 CURVE",
"84 553 OFFCURVE",
"88 544 OFFCURVE",
"88 542 CURVE SMOOTH",
"94 525 OFFCURVE",
"95 521 OFFCURVE",
"96 520 CURVE SMOOTH",
"118 484 OFFCURVE",
"125 467 OFFCURVE",
"135 454 CURVE",
"143 429 OFFCURVE",
"149 433 OFFCURVE",
"149 432 CURVE",
"161 406 LINE",
"176 363 OFFCURVE",
"180 358 OFFCURVE",
"180 355 CURVE SMOOTH",
"181 348 OFFCURVE",
"174 324 OFFCURVE",
"167 316 CURVE SMOOTH",
"149 295 OFFCURVE",
"139 272 OFFCURVE",
"123 250 CURVE",
"105 229 OFFCURVE",
"105 229 OFFCURVE",
"93 194 CURVE",
"79 173 LINE",
"71 152 OFFCURVE",
"70 151 OFFCURVE",
"70 151 CURVE",
"54 124 OFFCURVE",
"51 112 OFFCURVE",
"50 108 CURVE",
"46 103 OFFCURVE",
"42 95 OFFCURVE",
"40 89 CURVE SMOOTH",
"28 63 OFFCURVE",
"29 55 OFFCURVE",
"31 48 CURVE",
"46 35 OFFCURVE",
"46 31 OFFCURVE",
"46 29 CURVE",
"54 17 OFFCURVE",
"66 1 OFFCURVE",
"72 -6 CURVE",
"91 -15 OFFCURVE",
"115 -14 OFFCURVE",
"120 -4 CURVE SMOOTH",
"126 10 OFFCURVE",
"134 28 OFFCURVE",
"144 42 CURVE",
"149 56 OFFCURVE",
"151 60 OFFCURVE",
"151 62 CURVE",
"172 95 LINE",
"181 114 OFFCURVE",
"181 115 OFFCURVE",
"181 115 CURVE",
"193 130 OFFCURVE",
"199 140 OFFCURVE",
"201 145 CURVE SMOOTH",
"215 173 LINE",
"246 210 LINE",
"260 187 LINE",
"273 160 LINE SMOOTH",
"278 149 OFFCURVE",
"284 140 OFFCURVE",
"287 137 CURVE",
"295 116 LINE",
"300 96 LINE",
"306 86 OFFCURVE",
"310 80 OFFCURVE",
"313 78 CURVE",
"324 62 OFFCURVE",
"324 62 OFFCURVE",
"324 61 CURVE SMOOTH",
"331 45 OFFCURVE",
"340 39 OFFCURVE",
"341 38 CURVE SMOOTH",
"351 24 OFFCURVE",
"351 21 OFFCURVE",
"356 16 CURVE",
"374 -7 OFFCURVE",
"376 1 OFFCURVE",
"397 -8 CURVE",
"409 -18 OFFCURVE",
"432 -3 OFFCURVE",
"437 4 CURVE",
"444 8 OFFCURVE",
"449 23 OFFCURVE",
"443 43 CURVE",
"440 47 OFFCURVE",
"438 53 OFFCURVE",
"433 65 CURVE SMOOTH",
"425 84 OFFCURVE",
"420 89 OFFCURVE",
"418 92 CURVE SMOOTH",
"413 102 OFFCURVE",
"410 107 OFFCURVE",
"403 124 CURVE SMOOTH",
"388 163 LINE",
"383 173 OFFCURVE",
"375 185 OFFCURVE",
"373 187 CURVE",
"354 225 LINE",
"325 278 OFFCURVE",
"310 305 OFFCURVE",
"308 310 CURVE",
"336 343 OFFCURVE",
"363 372 OFFCURVE",
"387 403 CURVE",
"434 473 LINE",
"460 520 LINE",
"472 533 OFFCURVE",
"474 536 OFFCURVE",
"477 540 CURVE SMOOTH",
"481 546 OFFCURVE",
"487 557 OFFCURVE",
"492 567 CURVE SMOOTH",
"496 576 OFFCURVE",
"500 583 OFFCURVE",
"503 587 CURVE SMOOTH",
"515 604 OFFCURVE",
"514 606 OFFCURVE",
"507 610 CURVE",
"500 616 OFFCURVE",
"493 624 OFFCURVE",
"490 626 CURVE SMOOTH",
"478 635 OFFCURVE",
"472 638 OFFCURVE",
"471 638 CURVE SMOOTH",
"461 641 OFFCURVE",
"447 644 OFFCURVE",
"442 643 CURVE",
"430 643 OFFCURVE",
"411 635 OFFCURVE",
"408 633 CURVE",
"391 610 OFFCURVE",
"392 611 OFFCURVE",
"393 612 CURVE SMOOTH",
"382 588 OFFCURVE",
"378 585 OFFCURVE",
"375 583 CURVE SMOOTH",
"363 571 OFFCURVE",
"359 569 OFFCURVE",
"359 569 CURVE",
"347 552 OFFCURVE",
"343 548 OFFCURVE",
"341 544 CURVE SMOOTH",
"332 528 OFFCURVE",
"331 527 OFFCURVE",
"330 527 CURVE",
"315 513 LINE SMOOTH",
"299 497 OFFCURVE",
"292 482 OFFCURVE",
"295 485 CURVE",
"290 476 OFFCURVE",
"282 474 OFFCURVE",
"256 423 CURVE",
"229 482 OFFCURVE",
"212 501 OFFCURVE",
"207 512 CURVE SMOOTH",
"202 521 OFFCURVE",
"199 530 OFFCURVE",
"195 540 CURVE",
"174 577 LINE",
"161 598 LINE",
"144 630 LINE",
"141 639 OFFCURVE",
"135 650 OFFCURVE",
"134 652 CURVE"
);
}
);
};
layerId = UUID0;
paths = (
{
closed = 1;
nodes = (
"66 652 OFFCURVE",
"50 635 OFFCURVE",
"50 608 CURVE",
"49 576 OFFCURVE",
"72 555 OFFCURVE",
"85 525 CURVE",
"86 521 OFFCURVE",
"88 518 OFFCURVE",
"89 517 CURVE",
"112 479 LINE",
"118 465 OFFCURVE",
"123 457 OFFCURVE",
"127 452 CURVE",
"132 438 OFFCURVE",
"138 432 OFFCURVE",
"142 429 CURVE",
"154 404 LINE",
"160 384 OFFCURVE",
"166 370 OFFCURVE",
"171 361 CURVE",
"181 340 LINE",
"161 318 LINE",
"147 301 OFFCURVE",
"140 290 OFFCURVE",
"134 280 CURVE",
"128 273 OFFCURVE",
"123 261 OFFCURVE",
"117 253 CURVE",
"97 230 OFFCURVE",
"96 229 OFFCURVE",
"85 196 CURVE",
"73 175 LINE",
"65 155 OFFCURVE",
"63 153 OFFCURVE",
"63 153 CURVE",
"47 125 OFFCURVE",
"44 114 OFFCURVE",
"43 111 CURVE",
"39 105 OFFCURVE",
"35 97 OFFCURVE",
"33 92 CURVE SMOOTH",
"24 69 OFFCURVE",
"26 48 OFFCURVE",
"35 30 CURVE",
"41 21 OFFCURVE",
"54 0 OFFCURVE",
"66 -4 CURVE SMOOTH",
"107 -18 OFFCURVE",
"127 12 OFFCURVE",
"152 45 CURVE",
"153 49 OFFCURVE",
"156 52 OFFCURVE",
"157 55 CURVE",
"158 61 OFFCURVE",
"159 63 OFFCURVE",
"159 64 CURVE",
"177 91 LINE",
"189 116 OFFCURVE",
"189 117 OFFCURVE",
"189 117 CURVE",
"199 131 OFFCURVE",
"205 141 OFFCURVE",
"207 146 CURVE",
"221 173 LINE",
"227 181 OFFCURVE",
"240 211 OFFCURVE",
"245 220 CURVE",
"264 174 OFFCURVE",
"277 140 OFFCURVE",
"280 137 CURVE",
"297 89 OFFCURVE",
"301 83 OFFCURVE",
"307 78 CURVE",
"314 63 OFFCURVE",
"314 63 OFFCURVE",
"314 64 CURVE",
"320 50 OFFCURVE",
"330 42 OFFCURVE",
"332 40 CURVE",
"341 25 LINE",
"348 17 LINE",
"359 2 OFFCURVE",
"366 0 OFFCURVE",
"378 -3 CURVE",
"381 -4 OFFCURVE",
"383 -4 OFFCURVE",
"390 -7 CURVE",
"406 -19 OFFCURVE",
"435 -4 OFFCURVE",
"441 5 CURVE",
"447 9 OFFCURVE",
"454 24 OFFCURVE",
"449 42 CURVE",
"440 60 LINE",
"439 61 OFFCURVE",
"438 66 OFFCURVE",
"437 68 CURVE",
"430 84 OFFCURVE",
"425 90 OFFCURVE",
"423 93 CURVE",
"419 101 LINE",
"408 127 LINE",
"393 165 LINE",
"389 173 OFFCURVE",
"381 185 OFFCURVE",
"378 189 CURVE",
"359 227 LINE",
"342 257 LINE SMOOTH",
"325 286 OFFCURVE",
"316 303 OFFCURVE",
"313 309 CURVE",
"341 341 LINE SMOOTH",
"359 361 OFFCURVE",
"381 387 OFFCURVE",
"397 407 CURVE",
"435 466 LINE",
"464 517 LINE",
"474 528 OFFCURVE",
"476 531 OFFCURVE",
"479 535 CURVE",
"485 544 OFFCURVE",
"491 555 OFFCURVE",
"496 564 CURVE",
"500 574 OFFCURVE",
"512 602 OFFCURVE",
"496 622 CURVE",
"481 633 OFFCURVE",
"473 638 OFFCURVE",
"470 638 CURVE",
"459 641 OFFCURVE",
"444 644 OFFCURVE",
"437 643 CURVE",
"423 642 OFFCURVE",
"402 632 OFFCURVE",
"398 629 CURVE",
"375 599 OFFCURVE",
"365 584 OFFCURVE",
"364 579 CURVE",
"355 571 OFFCURVE",
"351 569 OFFCURVE",
"351 569 CURVE",
"339 552 LINE",
"332 543 LINE",
"325 529 OFFCURVE",
"324 528 OFFCURVE",
"324 528 CURVE",
"303 509 LINE",
"286 485 OFFCURVE",
"285 481 OFFCURVE",
"283 479 CURVE",
"278 472 OFFCURVE",
"268 462 OFFCURVE",
"255 438 CURVE",
"238 474 OFFCURVE",
"228 489 OFFCURVE",
"221 499 CURVE SMOOTH",
"213 511 LINE",
"201 539 LINE",
"181 577 LINE",
"168 597 LINE",
"140 660 OFFCURVE",
"119 649 OFFCURVE",
"94 649 CURVE"
);
}
);
width = 507;
}
);
unicode = 0058;
},
{
color = (31,255,0,1);
glyphname = Y;
lastChange = "2017-09-01 11:03:00 +0000";
layers = (
{
background = {
paths = (
{
closed = 1;
nodes = (
"315 640 OFFCURVE",
"307 623 OFFCURVE",
"304 618 CURVE",
"298 610 OFFCURVE",
"296 599 OFFCURVE",
"296 591 CURVE SMOOTH",
"293 576 OFFCURVE",
"292 522 OFFCURVE",
"292 521 CURVE SMOOTH",
"292 521 OFFCURVE",
"291 507 OFFCURVE",
"290 493 CURVE SMOOTH",
"288 474 OFFCURVE",
"286 471 OFFCURVE",
"286 471 CURVE",
"287 470 OFFCURVE",
"286 461 OFFCURVE",
"286 451 CURVE",
"286 442 OFFCURVE",
"286 431 OFFCURVE",
"286 428 CURVE SMOOTH",
"286 421 OFFCURVE",
"282 407 OFFCURVE",
"280 396 CURVE SMOOTH",
"278 375 OFFCURVE",
"275 367 OFFCURVE",
"276 354 CURVE",
"274 337 OFFCURVE",
"274 332 OFFCURVE",
"274 326 CURVE SMOOTH",
"275 319 OFFCURVE",
"275 311 OFFCURVE",
"273 309 CURVE",
"268 292 OFFCURVE",
"268 284 OFFCURVE",
"269 284 CURVE",
"268 267 OFFCURVE",
"248 271 OFFCURVE",
"248 271 CURVE",
"222 269 OFFCURVE",
"211 290 OFFCURVE",
"206 319 CURVE",
"197 337 OFFCURVE",
"196 343 OFFCURVE",
"196 346 CURVE",
"191 360 OFFCURVE",
"192 369 OFFCURVE",
"192 373 CURVE",
"186 393 OFFCURVE",
"183 438 OFFCURVE",
"181 455 CURVE",
"181 469 OFFCURVE",
"182 480 OFFCURVE",
"181 482 CURVE",
"179 506 OFFCURVE",
"179 515 OFFCURVE",
"177 517 CURVE",
"178 550 OFFCURVE",
"178 607 OFFCURVE",
"181 616 CURVE",
"165 629 OFFCURVE",
"163 630 OFFCURVE",
"161 630 CURVE",
"144 642 OFFCURVE",
"137 637 OFFCURVE",
"119 636 CURVE SMOOTH",
"102 636 OFFCURVE",
"99 635 OFFCURVE",
"95 633 CURVE",
"86 628 OFFCURVE",
"85 623 OFFCURVE",
"85 608 CURVE",
"84 592 OFFCURVE",
"82 582 OFFCURVE",
"82 573 CURVE",
"81 564 OFFCURVE",
"81 555 OFFCURVE",
"80 553 CURVE",
"80 551 OFFCURVE",
"81 542 OFFCURVE",
"80 532 CURVE",
"80 522 OFFCURVE",
"79 515 OFFCURVE",
"79 511 CURVE SMOOTH",
"79 495 OFFCURVE",
"80 487 OFFCURVE",
"79 478 CURVE SMOOTH",
"77 460 OFFCURVE",
"77 449 OFFCURVE",
"78 447 CURVE",
"78 430 OFFCURVE",
"77 421 OFFCURVE",
"77 409 CURVE SMOOTH",
"77 391 OFFCURVE",
"79 385 OFFCURVE",
"79 384 CURVE",
"81 370 OFFCURVE",
"82 364 OFFCURVE",
"83 362 CURVE",
"86 332 OFFCURVE",
"87 328 OFFCURVE",
"88 325 CURVE",
"94 319 OFFCURVE",
"95 311 OFFCURVE",
"95 306 CURVE",
"98 297 OFFCURVE",
"99 290 OFFCURVE",
"105 276 CURVE",
"110 265 OFFCURVE",
"114 259 OFFCURVE",
"115 256 CURVE",
"125 242 OFFCURVE",
"129 239 OFFCURVE",
"130 237 CURVE SMOOTH",
"137 227 OFFCURVE",
"155 213 OFFCURVE",
"158 213 CURVE",
"173 205 OFFCURVE",
"184 203 OFFCURVE",
"187 204 CURVE",
"201 204 OFFCURVE",
"243 194 OFFCURVE",
"243 186 CURVE",
"248 167 OFFCURVE",
"249 161 OFFCURVE",
"247 159 CURVE",
"245 145 OFFCURVE",
"244 139 OFFCURVE",
"244 136 CURVE",
"240 117 OFFCURVE",
"234 117 OFFCURVE",
"231 94 CURVE",
"222 80 OFFCURVE",
"222 79 OFFCURVE",
"220 77 CURVE",
"207 60 OFFCURVE",
"207 49 OFFCURVE",
"207 49 CURVE",
"199 34 OFFCURVE",
"181 33 OFFCURVE",
"179 31 CURVE",
"144 19 OFFCURVE",
"121 46 OFFCURVE",
"100 69 CURVE",
"88 84 OFFCURVE",
"81 90 OFFCURVE",
"80 90 CURVE",
"77 93 OFFCURVE",
"71 98 OFFCURVE",
"65 104 CURVE",
"44 113 OFFCURVE",
"30 92 OFFCURVE",
"36 92 CURVE",
"22 76 OFFCURVE",
"33 59 OFFCURVE",
"36 52 CURVE",
"43 37 OFFCURVE",
"44 35 OFFCURVE",
"44 34 CURVE",
"54 17 OFFCURVE",
"55 15 OFFCURVE",
"56 14 CURVE",
"66 0 OFFCURVE",
"68 -1 OFFCURVE",
"69 -2 CURVE SMOOTH",
"83 -12 OFFCURVE",
"87 -15 OFFCURVE",
"90 -16 CURVE",
"107 -26 OFFCURVE",
"109 -27 OFFCURVE",
"112 -30 CURVE",
"130 -39 OFFCURVE",
"134 -39 OFFCURVE",
"136 -40 CURVE",
"163 -48 OFFCURVE",
"193 -49 OFFCURVE",
"218 -43 CURVE SMOOTH",
"237 -38 OFFCURVE",
"239 -37 OFFCURVE",
"241 -36 CURVE",
"257 -28 OFFCURVE",
"263 -25 OFFCURVE",
"268 -22 CURVE SMOOTH",
"289 -12 OFFCURVE",
"293 -9 OFFCURVE",
"294 -7 CURVE",
"306 6 OFFCURVE",
"309 9 OFFCURVE",
"310 9 CURVE",
"331 29 OFFCURVE",
"335 32 OFFCURVE",
"335 35 CURVE",
"352 71 LINE",
"362 102 OFFCURVE",
"359 91 OFFCURVE",
"370 115 CURVE",
"377 129 OFFCURVE",
"376 139 OFFCURVE",
"377 143 CURVE",
"385 162 OFFCURVE",
"386 168 OFFCURVE",
"384 172 CURVE",
"387 180 OFFCURVE",
"388 186 OFFCURVE",
"389 190 CURVE",
"394 201 OFFCURVE",
"394 202 OFFCURVE",
"394 210 CURVE",
"393 220 OFFCURVE",
"393 226 OFFCURVE",
"398 244 CURVE",
"400 253 OFFCURVE",
"402 263 OFFCURVE",
"402 268 CURVE SMOOTH",
"404 282 OFFCURVE",
"405 286 OFFCURVE",
"405 291 CURVE",
"407 306 OFFCURVE",
"407 310 OFFCURVE",
"407 312 CURVE",
"411 325 OFFCURVE",
"410 332 OFFCURVE",
"410 347 CURVE SMOOTH",
"410 352 OFFCURVE",
"411 365 OFFCURVE",
"412 374 CURVE SMOOTH",
"413 406 OFFCURVE",
"414 425 OFFCURVE",
"412 456 CURVE SMOOTH",
"412 472 OFFCURVE",
"411 491 OFFCURVE",
"410 495 CURVE SMOOTH",
"410 519 OFFCURVE",
"406 589 OFFCURVE",
"404 594 CURVE",
"402 607 OFFCURVE",
"401 613 OFFCURVE",
"400 618 CURVE",
"396 636 OFFCURVE",
"396 637 OFFCURVE",
"396 638 CURVE",
"381 648 LINE",
"362 647 OFFCURVE",
"358 646 OFFCURVE",
"357 647 CURVE",
"341 651 OFFCURVE",
"336 650 OFFCURVE",
"333 649 CURVE SMOOTH"
);
}
);
};
layerId = UUID0;
paths = (
{
closed = 1;
nodes = (
"327 649 LINE",
"308 640 OFFCURVE",
"300 625 OFFCURVE",
"296 618 CURVE SMOOTH",
"289 609 OFFCURVE",
"286 598 OFFCURVE",
"286 590 CURVE",
"283 573 OFFCURVE",
"282 520 OFFCURVE",
"282 519 CURVE",
"280 492 LINE SMOOTH",
"278 473 OFFCURVE",
"276 470 OFFCURVE",
"276 470 CURVE",
"276 427 LINE SMOOTH",
"276 423 OFFCURVE",
"275 416 OFFCURVE",
"274 408 CURVE",
"271 396 LINE",
"271 390 OFFCURVE",
"269 383 OFFCURVE",
"269 377 CURVE SMOOTH",
"268 371 OFFCURVE",
"267 360 OFFCURVE",
"267 354 CURVE",
"265 340 OFFCURVE",
"265 332 OFFCURVE",
"265 326 CURVE SMOOTH",
"266 319 OFFCURVE",
"266 311 OFFCURVE",
"264 309 CURVE",
"261 294 OFFCURVE",
"260 278 OFFCURVE",
"248 275 CURVE",
"228 273 OFFCURVE",
"219 291 OFFCURVE",
"214 317 CURVE",
"204 337 OFFCURVE",
"203 344 OFFCURVE",
"203 347 CURVE",
"199 359 OFFCURVE",
"199 367 OFFCURVE",
"199 372 CURVE",
"194 388 OFFCURVE",
"192 417 OFFCURVE",
"190 438 CURVE SMOOTH",
"189 444 OFFCURVE",
"188 450 OFFCURVE",
"188 454 CURVE SMOOTH",
"188 469 LINE SMOOTH",
"188 476 OFFCURVE",
"186 483 OFFCURVE",
"186 483 CURVE",
"187 487 OFFCURVE",
"187 493 OFFCURVE",
"187 496 CURVE SMOOTH",
"186 506 OFFCURVE",
"184 513 OFFCURVE",
"183 516 CURVE",
"184 522 OFFCURVE",
"185 538 OFFCURVE",
"185 546 CURVE SMOOTH",
"187 587 OFFCURVE",
"185 612 OFFCURVE",
"165 629 CURVE SMOOTH",
"151 641 OFFCURVE",
"142 638 OFFCURVE",
"129 637 CURVE SMOOTH",
"126 637 OFFCURVE",
"122 636 OFFCURVE",
"119 636 CURVE SMOOTH",
"100 633 OFFCURVE",
"83 622 OFFCURVE",
"77 605 CURVE SMOOTH",
"75 598 OFFCURVE",
"76 592 OFFCURVE",
"75 587 CURVE SMOOTH",
"74 581 OFFCURVE",
"74 576 OFFCURVE",
"74 571 CURVE SMOOTH",
"74 567 OFFCURVE",
"73 564 OFFCURVE",
"73 561 CURVE SMOOTH",
"73 556 OFFCURVE",
"73 552 OFFCURVE",
"72 551 CURVE",
"72 530 LINE SMOOTH",
"72 524 OFFCURVE",
"71 519 OFFCURVE",
"71 515 CURVE SMOOTH",
"71 477 LINE",
"69 461 OFFCURVE",
"69 449 OFFCURVE",
"70 445 CURVE",
"70 437 OFFCURVE",
"69 430 OFFCURVE",
"69 424 CURVE SMOOTH",
"69 408 LINE SMOOTH",
"69 393 OFFCURVE",
"71 387 OFFCURVE",
"71 385 CURVE SMOOTH",
"73 371 OFFCURVE",
"75 365 OFFCURVE",
"76 361 CURVE",
"79 327 OFFCURVE",
"79 325 OFFCURVE",
"79 325 CURVE",
"86 318 OFFCURVE",
"87 311 OFFCURVE",
"87 307 CURVE",
"91 297 LINE",
"91 293 OFFCURVE",
"89 294 OFFCURVE",
"98 275 CURVE SMOOTH",
"105 262 LINE SMOOTH",
"113 248 OFFCURVE",
"117 245 OFFCURVE",
"119 242 CURVE SMOOTH",
"128 227 OFFCURVE",
"149 213 OFFCURVE",
"156 211 CURVE",
"169 202 OFFCURVE",
"183 201 OFFCURVE",
"189 202 CURVE",
"204 201 OFFCURVE",
"234 192 OFFCURVE",
"234 186 CURVE",
"239 168 OFFCURVE",
"240 163 OFFCURVE",
"238 161 CURVE",
"238 158 OFFCURVE",
"237 155 OFFCURVE",
"237 153 CURVE SMOOTH",
"235 139 LINE",
"231 125 OFFCURVE",
"230 122 OFFCURVE",
"230 121 CURVE SMOOTH",
"227 115 OFFCURVE",
"224 107 OFFCURVE",
"222 96 CURVE SMOOTH",
"221 93 OFFCURVE",
"217 89 OFFCURVE",
"215 85 CURVE SMOOTH",
"198 61 OFFCURVE",
"198 52 OFFCURVE",
"198 52 CURVE",
"193 43 OFFCURVE",
"184 41 OFFCURVE",
"179 39 CURVE SMOOTH",
"147 28 OFFCURVE",
"125 53 OFFCURVE",
"106 73 CURVE SMOOTH",
"96 85 OFFCURVE",
"86 92 OFFCURVE",
"82 94 CURVE SMOOTH",
"71 100 OFFCURVE",
"60 103 OFFCURVE",
"50 103 CURVE SMOOTH",
"43 103 OFFCURVE",
"37 101 OFFCURVE",
"31 96 CURVE",
"17 80 OFFCURVE",
"25 44 OFFCURVE",
"29 36 CURVE SMOOTH",
"30 33 OFFCURVE",
"32 29 OFFCURVE",
"32 28 CURVE SMOOTH",
"36 20 OFFCURVE",
"37 16 OFFCURVE",
"37 16 CURVE",
"44 5 LINE SMOOTH",
"57 -15 OFFCURVE",
"61 -20 OFFCURVE",
"63 -21 CURVE SMOOTH",
"78 -32 OFFCURVE",
"82 -35 OFFCURVE",
"86 -36 CURVE SMOOTH",
"87 -37 OFFCURVE",
"91 -39 OFFCURVE",
"92 -39 CURVE SMOOTH",
"99 -43 OFFCURVE",
"103 -46 OFFCURVE",
"106 -49 CURVE",
"118 -56 OFFCURVE",
"127 -58 OFFCURVE",
"131 -59 CURVE SMOOTH",
"148 -65 OFFCURVE",
"165 -67 OFFCURVE",
"183 -67 CURVE SMOOTH",
"196 -67 OFFCURVE",
"208 -66 OFFCURVE",
"219 -63 CURVE SMOOTH",
"236 -59 OFFCURVE",
"243 -57 OFFCURVE",
"244 -56 CURVE SMOOTH",
"270 -42 LINE SMOOTH",
"292 -31 OFFCURVE",
"298 -27 OFFCURVE",
"299 -25 CURVE SMOOTH",
"307 -17 OFFCURVE",
"310 -12 OFFCURVE",
"309 -11 CURVE",
"325 5 LINE",
"339 24 OFFCURVE",
"352 44 OFFCURVE",
"357 72 CURVE",
"363 91 OFFCURVE",
"366 95 OFFCURVE",
"368 100 CURVE SMOOTH",
"370 103 OFFCURVE",
"372 109 OFFCURVE",
"375 116 CURVE SMOOTH",
"381 128 OFFCURVE",
"382 136 OFFCURVE",
"382 141 CURVE",
"389 163 OFFCURVE",
"391 167 OFFCURVE",
"389 172 CURVE",
"393 187 LINE",
"399 203 OFFCURVE",
"399 204 OFFCURVE",
"399 211 CURVE SMOOTH",
"398 221 OFFCURVE",
"398 227 OFFCURVE",
"403 244 CURVE SMOOTH",
"405 252 OFFCURVE",
"407 262 OFFCURVE",
"407 268 CURVE",
"408 272 OFFCURVE",
"409 275 OFFCURVE",
"409 279 CURVE",
"410 282 OFFCURVE",
"410 288 OFFCURVE",
"410 291 CURVE SMOOTH",
"411 298 OFFCURVE",
"412 307 OFFCURVE",
"412 311 CURVE",
"415 321 OFFCURVE",
"415 329 OFFCURVE",
"415 340 CURVE SMOOTH",
"415 347 LINE SMOOTH",
"415 352 OFFCURVE",
"416 365 OFFCURVE",
"417 374 CURVE",
"417 384 LINE SMOOTH",
"418 398 OFFCURVE",
"418 410 OFFCURVE",
"418 423 CURVE SMOOTH",
"418 432 OFFCURVE",
"418 445 OFFCURVE",
"417 455 CURVE",
"417 467 OFFCURVE",
"416 489 OFFCURVE",
"415 495 CURVE",
"414 522 OFFCURVE",
"410 588 OFFCURVE",
"408 593 CURVE",
"405 617 LINE",
"400 636 OFFCURVE",
"386 639 OFFCURVE",
"363 647 CURVE",
"338 652 OFFCURVE",
"332 650 OFFCURVE",
"328 649 CURVE"
);
}
);
width = 457;
}
);
unicode = 0059;
},
{
color = (31,255,0,1);
glyphname = Z;
lastChange = "2017-09-01 11:03:00 +0000";
layers = (
{
background = {
paths = (
{
closed = 1;
nodes = (
"426 641 OFFCURVE",
"423 641 OFFCURVE",
"422 641 CURVE SMOOTH",
"412 636 OFFCURVE",
"407 633 OFFCURVE",
"401 632 CURVE",
"393 622 OFFCURVE",
"379 628 OFFCURVE",
"373 628 CURVE SMOOTH",
"334 631 OFFCURVE",
"297 639 OFFCURVE",
"266 639 CURVE SMOOTH",
"228 638 OFFCURVE",
"193 635 OFFCURVE",
"156 633 CURVE SMOOTH",
"133 632 OFFCURVE",
"108 631 OFFCURVE",
"86 631 CURVE SMOOTH",
"68 631 OFFCURVE",
"51 623 OFFCURVE",
"47 613 CURVE",
"44 593 OFFCURVE",
"45 583 OFFCURVE",
"47 573 CURVE",
"55 557 OFFCURVE",
"56 555 OFFCURVE",
"57 553 CURVE SMOOTH",
"67 539 OFFCURVE",
"68 538 OFFCURVE",
"69 536 CURVE SMOOTH",
"83 522 OFFCURVE",
"85 520 OFFCURVE",
"87 519 CURVE",
"105 518 OFFCURVE",
"105 518 OFFCURVE",
"120 519 CURVE SMOOTH",
"126 520 OFFCURVE",
"135 522 OFFCURVE",
"143 522 CURVE",
"148 523 OFFCURVE",
"156 524 OFFCURVE",
"160 524 CURVE",
"172 528 OFFCURVE",
"180 528 OFFCURVE",
"188 530 CURVE",
"199 531 OFFCURVE",
"236 538 OFFCURVE",
"244 540 CURVE SMOOTH",
"268 544 OFFCURVE",
"276 546 OFFCURVE",
"277 547 CURVE SMOOTH",
"280 548 OFFCURVE",
"292 551 OFFCURVE",
"299 551 CURVE SMOOTH",
"307 552 OFFCURVE",
"363 558 OFFCURVE",
"368 559 CURVE",
"354 577 LINE",
"342 562 OFFCURVE",
"311 514 OFFCURVE",
"309 512 CURVE SMOOTH",
"296 493 OFFCURVE",
"296 493 OFFCURVE",
"292 487 CURVE SMOOTH",
"278 464 OFFCURVE",
"271 453 OFFCURVE",
"271 452 CURVE SMOOTH",
"261 440 OFFCURVE",
"259 435 OFFCURVE",
"259 434 CURVE SMOOTH",
"253 426 OFFCURVE",
"248 420 OFFCURVE",
"243 413 CURVE",
"243 408 OFFCURVE",
"237 397 OFFCURVE",
"235 395 CURVE SMOOTH",
"226 380 OFFCURVE",
"222 377 OFFCURVE",
"221 377 CURVE",
"211 361 OFFCURVE",
"210 360 OFFCURVE",
"210 360 CURVE",
"200 343 OFFCURVE",
"200 343 OFFCURVE",
"199 343 CURVE",
"193 327 OFFCURVE",
"191 323 OFFCURVE",
"190 321 CURVE SMOOTH",
"180 309 OFFCURVE",
"175 300 OFFCURVE",
"174 296 CURVE",
"161 282 OFFCURVE",
"160 281 OFFCURVE",
"160 280 CURVE SMOOTH",
"149 266 OFFCURVE",
"147 261 OFFCURVE",
"147 259 CURVE",
"138 248 OFFCURVE",
"135 244 OFFCURVE",
"133 241 CURVE SMOOTH",
"123 227 OFFCURVE",
"121 225 OFFCURVE",
"120 222 CURVE",
"107 211 OFFCURVE",
"107 211 OFFCURVE",
"101 201 CURVE SMOOTH",
"92 187 OFFCURVE",
"91 186 OFFCURVE",
"90 183 CURVE",
"87 180 OFFCURVE",
"80 169 OFFCURVE",
"78 164 CURVE",
"68 149 OFFCURVE",
"68 148 OFFCURVE",
"68 146 CURVE SMOOTH",
"64 130 OFFCURVE",
"63 127 OFFCURVE",
"62 126 CURVE SMOOTH",
"56 110 OFFCURVE",
"55 108 OFFCURVE",
"54 106 CURVE SMOOTH",
"47 89 OFFCURVE",
"47 87 OFFCURVE",
"45 85 CURVE",
"40 70 OFFCURVE",
"34 63 OFFCURVE",
"34 59 CURVE",
"30 55 OFFCURVE",
"26 43 OFFCURVE",
"27 33 CURVE",
"35 20 OFFCURVE",
"35 20 OFFCURVE",
"38 11 CURVE",
"36 -6 OFFCURVE",
"38 -10 OFFCURVE",
"42 -12 CURVE",
"47 -17 OFFCURVE",
"55 -27 OFFCURVE",
"55 -27 CURVE",
"64 -41 OFFCURVE",
"66 -43 OFFCURVE",
"68 -46 CURVE",
"87 -47 OFFCURVE",
"90 -44 OFFCURVE",
"90 -42 CURVE SMOOTH",
"90 -40 OFFCURVE",
"96 -38 OFFCURVE",
"104 -36 CURVE SMOOTH",
"110 -35 OFFCURVE",
"120 -34 OFFCURVE",
"125 -32 CURVE SMOOTH",
"139 -28 OFFCURVE",
"142 -27 OFFCURVE",
"152 -25 CURVE SMOOTH",
"177 -18 OFFCURVE",
"193 -13 OFFCURVE",
"193 -13 CURVE",
"201 -10 OFFCURVE",
"206 -9 OFFCURVE",
"210 -8 CURVE SMOOTH",
"225 -3 OFFCURVE",
"227 -2 OFFCURVE",
"230 -2 CURVE SMOOTH",
"239 0 OFFCURVE",
"251 5 OFFCURVE",
"254 4 CURVE",
"273 10 OFFCURVE",
"276 11 OFFCURVE",
"279 12 CURVE SMOOTH",
"287 15 OFFCURVE",
"292 17 OFFCURVE",
"293 18 CURVE SMOOTH",
"309 24 OFFCURVE",
"312 25 OFFCURVE",
"314 25 CURVE",
"330 33 OFFCURVE",
"331 33 OFFCURVE",
"333 31 CURVE",
"347 36 OFFCURVE",
"351 36 OFFCURVE",
"352 36 CURVE SMOOTH",
"368 40 OFFCURVE",
"376 43 OFFCURVE",
"378 44 CURVE SMOOTH",
"391 48 OFFCURVE",
"394 49 OFFCURVE",
"398 51 CURVE",
"409 54 OFFCURVE",
"416 54 OFFCURVE",
"417 56 CURVE",
"433 64 OFFCURVE",
"433 65 OFFCURVE",
"433 65 CURVE",
"451 80 OFFCURVE",
"448 92 OFFCURVE",
"437 104 CURVE",
"427 106 OFFCURVE",
"419 109 OFFCURVE",
"414 108 CURVE",
"410 104 OFFCURVE",
"394 105 OFFCURVE",
"392 109 CURVE",
"379 107 OFFCURVE",
"377 107 OFFCURVE",
"377 107 CURVE",
"358 105 OFFCURVE",
"357 105 OFFCURVE",
"354 105 CURVE SMOOTH",
"348 105 OFFCURVE",
"335 103 OFFCURVE",
"335 103 CURVE",
"319 100 OFFCURVE",
"316 99 OFFCURVE",
"315 99 CURVE SMOOTH",
"301 97 OFFCURVE",
"300 96 OFFCURVE",
"299 95 CURVE",
"288 94 OFFCURVE",
"283 94 OFFCURVE",
"281 93 CURVE SMOOTH",
"269 91 OFFCURVE",
"265 91 OFFCURVE",
"262 91 CURVE",
"251 88 OFFCURVE",
"246 87 OFFCURVE",
"243 85 CURVE",
"232 83 OFFCURVE",
"226 82 OFFCURVE",
"222 82 CURVE",
"210 79 OFFCURVE",
"197 76 OFFCURVE",
"195 75 CURVE SMOOTH",
"188 73 OFFCURVE",
"178 70 OFFCURVE",
"176 70 CURVE SMOOTH",
"165 68 OFFCURVE",
"128 62 OFFCURVE",
"123 61 CURVE",
"122 31 LINE",
"129 41 OFFCURVE",
"174 122 OFFCURVE",
"176 126 CURVE SMOOTH",
"187 143 OFFCURVE",
"188 145 OFFCURVE",
"188 147 CURVE",
"195 159 OFFCURVE",
"196 161 OFFCURVE",
"197 163 CURVE SMOOTH",
"202 170 OFFCURVE",
"207 176 OFFCURVE",
"208 179 CURVE",
"216 188 OFFCURVE",
"220 194 OFFCURVE",
"223 197 CURVE SMOOTH",
"235 214 OFFCURVE",
"245 229 OFFCURVE",
"247 233 CURVE SMOOTH",
"260 251 OFFCURVE",
"268 261 OFFCURVE",
"268 262 CURVE SMOOTH",
"281 278 OFFCURVE",
"282 280 OFFCURVE",
"283 280 CURVE",
"292 295 OFFCURVE",
"292 296 OFFCURVE",
"292 299 CURVE",
"304 313 OFFCURVE",
"310 319 OFFCURVE",
"310 321 CURVE",
"320 331 OFFCURVE",
"323 336 OFFCURVE",
"326 341 CURVE SMOOTH",
"334 352 OFFCURVE",
"337 357 OFFCURVE",
"341 365 CURVE SMOOTH",
"350 379 OFFCURVE",
"352 380 OFFCURVE",
"353 382 CURVE SMOOTH",
"359 388 OFFCURVE",
"377 415 OFFCURVE",
"378 419 CURVE",
"388 432 OFFCURVE",
"390 434 OFFCURVE",
"390 435 CURVE SMOOTH",
"404 456 OFFCURVE",
"406 458 OFFCURVE",
"412 465 CURVE SMOOTH",
"417 472 OFFCURVE",
"430 488 OFFCURVE",
"439 502 CURVE SMOOTH",
"443 509 OFFCURVE",
"450 519 OFFCURVE",
"454 522 CURVE SMOOTH",
"473 538 OFFCURVE",
"484 552 OFFCURVE",
"509 569 CURVE",
"501 593 OFFCURVE",
"488 609 OFFCURVE",
"480 631 CURVE",
"471 642 OFFCURVE",
"458 648 OFFCURVE",
"447 646 CURVE SMOOTH"
);
}
);
};
layerId = UUID0;
paths = (
{
closed = 1;
nodes = (
"374 647 OFFCURVE",
"287 639 OFFCURVE",
"265 639 CURVE SMOOTH",
"241 638 OFFCURVE",
"214 637 OFFCURVE",
"191 635 CURVE SMOOTH",
"156 633 LINE SMOOTH",
"133 632 OFFCURVE",
"108 631 OFFCURVE",
"86 631 CURVE SMOOTH",
"66 631 OFFCURVE",
"45 621 OFFCURVE",
"40 608 CURVE",
"37 589 OFFCURVE",
"37 581 OFFCURVE",
"39 573 CURVE",
"53 546 LINE",
"59 538 LINE",
"63 533 LINE",
"79 514 OFFCURVE",
"96 517 OFFCURVE",
"121 514 CURVE",
"131 516 OFFCURVE",
"138 517 OFFCURVE",
"145 517 CURVE",
"150 518 OFFCURVE",
"158 519 OFFCURVE",
"163 519 CURVE",
"174 525 OFFCURVE",
"177 524 OFFCURVE",
"179 523 CURVE",
"182 523 OFFCURVE",
"188 524 OFFCURVE",
"190 525 CURVE",
"204 527 OFFCURVE",
"238 533 OFFCURVE",
"245 535 CURVE",
"271 540 OFFCURVE",
"280 542 OFFCURVE",
"282 543 CURVE",
"286 544 OFFCURVE",
"293 546 OFFCURVE",
"298 546 CURVE",
"298 546 OFFCURVE",
"308 547 OFFCURVE",
"318 548 CURVE",
"326 548 LINE",
"320 541 OFFCURVE",
"315 533 OFFCURVE",
"312 529 CURVE",
"297 506 LINE",
"284 488 LINE",
"273 471 LINE SMOOTH",
"268 464 OFFCURVE",
"263 453 OFFCURVE",
"262 451 CURVE",
"252 439 OFFCURVE",
"250 434 OFFCURVE",
"250 433 CURVE",
"234 411 LINE",
"234 406 OFFCURVE",
"227 395 OFFCURVE",
"225 393 CURVE",
"218 382 OFFCURVE",
"215 380 OFFCURVE",
"214 380 CURVE",
"202 361 OFFCURVE",
"201 360 OFFCURVE",
"201 360 CURVE",
"193 346 OFFCURVE",
"193 346 OFFCURVE",
"192 346 CURVE",
"187 330 OFFCURVE",
"184 325 OFFCURVE",
"183 322 CURVE",
"173 309 OFFCURVE",
"167 300 OFFCURVE",
"166 297 CURVE",
"152 282 OFFCURVE",
"152 281 OFFCURVE",
"152 280 CURVE",
"143 268 OFFCURVE",
"139 262 OFFCURVE",
"139 260 CURVE",
"126 244 LINE",
"119 234 LINE",
"113 224 LINE",
"99 212 OFFCURVE",
"99 212 OFFCURVE",
"94 203 CURVE",
"88 194 LINE",
"88 193 OFFCURVE",
"85 188 OFFCURVE",
"83 185 CURVE",
"80 181 OFFCURVE",
"74 171 OFFCURVE",
"72 166 CURVE",
"63 155 OFFCURVE",
"61 151 OFFCURVE",
"61 149 CURVE",
"57 134 OFFCURVE",
"56 129 OFFCURVE",
"57 130 CURVE",
"47 109 LINE",
"42 95 LINE",
"41 90 OFFCURVE",
"40 89 OFFCURVE",
"39 88 CURVE",
"36 80 OFFCURVE",
"33 74 OFFCURVE",
"31 70 CURVE",
"28 65 OFFCURVE",
"27 62 OFFCURVE",
"27 61 CURVE",
"12 38 OFFCURVE",
"13 16 OFFCURVE",
"30 -8 CURVE",
"30 -8 OFFCURVE",
"42 -26 OFFCURVE",
"42 -26 CURVE",
"45 -32 OFFCURVE",
"57 -38 OFFCURVE",
"60 -41 CURVE",
"78 -54 OFFCURVE",
"92 -55 OFFCURVE",
"110 -53 CURVE SMOOTH",
"122 -52 OFFCURVE",
"133 -49 OFFCURVE",
"133 -49 CURVE",
"158 -42 LINE SMOOTH",
"183 -35 OFFCURVE",
"198 -30 OFFCURVE",
"198 -30 CURVE",
"205 -27 OFFCURVE",
"209 -26 OFFCURVE",
"213 -25 CURVE SMOOTH",
"225 -22 LINE",
"231 -20 OFFCURVE",
"232 -19 OFFCURVE",
"236 -19 CURVE",
"247 -16 LINE SMOOTH",
"251 -15 OFFCURVE",
"254 -14 OFFCURVE",
"255 -14 CURVE",
"287 -4 LINE SMOOTH",
"296 -1 OFFCURVE",
"301 1 OFFCURVE",
"302 2 CURVE",
"314 7 OFFCURVE",
"317 8 OFFCURVE",
"320 8 CURVE",
"330 13 OFFCURVE",
"331 13 OFFCURVE",
"332 12 CURVE",
"352 19 OFFCURVE",
"355 19 OFFCURVE",
"356 19 CURVE",
"375 24 OFFCURVE",
"383 26 OFFCURVE",
"384 27 CURVE",
"399 32 OFFCURVE",
"403 33 OFFCURVE",
"404 34 CURVE",
"413 37 LINE",
"418 38 OFFCURVE",
"423 39 OFFCURVE",
"424 39 CURVE",
"440 47 OFFCURVE",
"440 49 OFFCURVE",
"440 49 CURVE",
"446 64 OFFCURVE",
"453 88 OFFCURVE",
"432 109 CURVE SMOOTH",
"425 116 OFFCURVE",
"411 116 OFFCURVE",
"396 115 CURVE",
"376 112 OFFCURVE",
"374 112 OFFCURVE",
"374 112 CURVE",
"355 110 OFFCURVE",
"354 110 OFFCURVE",
"352 110 CURVE SMOOTH",
"344 110 OFFCURVE",
"331 108 OFFCURVE",
"331 108 CURVE",
"314 105 LINE SMOOTH",
"298 102 OFFCURVE",
"295 101 OFFCURVE",
"293 100 CURVE",
"281 99 OFFCURVE",
"276 99 OFFCURVE",
"274 97 CURVE",
"267 96 OFFCURVE",
"261 96 OFFCURVE",
"257 96 CURVE",
"245 91 OFFCURVE",
"239 89 OFFCURVE",
"237 89 CURVE",
"228 87 OFFCURVE",
"223 87 OFFCURVE",
"221 87 CURVE",
"210 85 LINE",
"199 82 OFFCURVE",
"189 80 OFFCURVE",
"188 79 CURVE",
"182 77 OFFCURVE",
"176 75 OFFCURVE",
"175 75 CURVE",
"150 71 LINE",
"166 97 OFFCURVE",
"180 122 OFFCURVE",
"183 126 CURVE",
"192 142 OFFCURVE",
"195 146 OFFCURVE",
"195 149 CURVE",
"207 169 LINE",
"214 178 LINE",
"225 192 LINE",
"229 197 LINE",
"253 233 LINE",
"266 251 LINE",
"273 261 LINE",
"283 274 LINE",
"289 278 LINE",
"297 292 OFFCURVE",
"298 297 OFFCURVE",
"298 299 CURVE",
"305 307 LINE",
"316 321 LINE",
"326 331 OFFCURVE",
"329 335 OFFCURVE",
"331 339 CURVE",
"339 351 OFFCURVE",
"342 357 OFFCURVE",
"346 364 CURVE",
"353 374 OFFCURVE",
"355 378 OFFCURVE",
"355 378 CURVE",
"364 386 OFFCURVE",
"383 413 OFFCURVE",
"384 417 CURVE",
"391 426 LINE",
"394 431 OFFCURVE",
"396 433 OFFCURVE",
"396 433 CURVE",
"410 455 OFFCURVE",
"417 464 OFFCURVE",
"417 464 CURVE",
"423 471 LINE",
"430 482 OFFCURVE",
"443 498 OFFCURVE",
"443 498 CURVE",
"448 506 OFFCURVE",
"454 517 OFFCURVE",
"456 518 CURVE",
"480 539 LINE",
"496 558 OFFCURVE",
"508 578 OFFCURVE",
"498 603 CURVE",
"493 610 OFFCURVE",
"488 619 OFFCURVE",
"484 629 CURVE",
"474 642 OFFCURVE",
"451 659 OFFCURVE",
"436 657 CURVE"
);
}
);
width = 496;
}
);
unicode = 005A;
},
{
color = (31,255,0,1);
glyphname = c;
lastChange = "2017-09-01 11:03:00 +0000";
layers = (
{
background = {
paths = (
{
closed = 1;
nodes = (
"158 418 OFFCURVE",
"156 417 OFFCURVE",
"152 418 CURVE",
"152 417 OFFCURVE",
"149 416 OFFCURVE",
"147 414 CURVE",
"145 416 OFFCURVE",
"141 416 OFFCURVE",
"139 414 CURVE SMOOTH",
"132 411 LINE",
"126 406 LINE",
"125 404 OFFCURVE",
"122 401 OFFCURVE",
"119 398 CURVE SMOOTH",
"115 392 OFFCURVE",
"101 373 OFFCURVE",
"95 364 CURVE SMOOTH",
"94 360 OFFCURVE",
"92 355 OFFCURVE",
"90 355 CURVE",
"88 354 OFFCURVE",
"84 350 OFFCURVE",
"83 346 CURVE SMOOTH",
"82 339 OFFCURVE",
"80 336 OFFCURVE",
"80 335 CURVE SMOOTH",
"77 332 OFFCURVE",
"73 324 OFFCURVE",
"73 322 CURVE SMOOTH",
"74 321 OFFCURVE",
"73 318 OFFCURVE",
"72 314 CURVE SMOOTH",
"69 307 OFFCURVE",
"68 298 OFFCURVE",
"68 296 CURVE SMOOTH",
"67 294 OFFCURVE",
"66 293 OFFCURVE",
"65 293 CURVE SMOOTH",
"62 291 OFFCURVE",
"56 273 OFFCURVE",
"57 257 CURVE",
"56 254 OFFCURVE",
"56 251 OFFCURVE",
"55 249 CURVE",
"48 221 LINE",
"48 216 OFFCURVE",
"48 210 OFFCURVE",
"48 208 CURVE SMOOTH",
"47 201 OFFCURVE",
"56 165 OFFCURVE",
"60 129 CURVE",
"61 117 LINE",
"61 115 OFFCURVE",
"61 111 OFFCURVE",
"60 110 CURVE SMOOTH",
"59 108 OFFCURVE",
"58 106 OFFCURVE",
"59 104 CURVE SMOOTH",
"64 93 LINE",
"69 78 LINE",
"74 65 LINE",
"78 58 OFFCURVE",
"81 50 OFFCURVE",
"81 46 CURVE",
"87 38 LINE SMOOTH",
"88 36 OFFCURVE",
"102 37 OFFCURVE",
"105 34 CURVE",
"108 30 OFFCURVE",
"103 22 OFFCURVE",
"104 22 CURVE",
"109 14 LINE SMOOTH",
"111 12 OFFCURVE",
"115 10 OFFCURVE",
"117 10 CURVE",
"123 7 LINE SMOOTH",
"123 6 OFFCURVE",
"124 4 OFFCURVE",
"125 4 CURVE SMOOTH",
"130 4 OFFCURVE",
"153 -4 OFFCURVE",
"158 -7 CURVE SMOOTH",
"161 -9 OFFCURVE",
"163 -9 OFFCURVE",
"165 -9 CURVE",
"168 -6 OFFCURVE",
"181 -6 OFFCURVE",
"188 -9 CURVE SMOOTH",
"190 -9 OFFCURVE",
"193 -10 OFFCURVE",
"196 -10 CURVE SMOOTH",
"204 -13 OFFCURVE",
"217 -15 OFFCURVE",
"220 -17 CURVE",
"222 -17 OFFCURVE",
"238 -12 OFFCURVE",
"243 -12 CURVE SMOOTH",
"252 -12 OFFCURVE",
"253 -12 OFFCURVE",
"254 -10 CURVE SMOOTH",
"255 -8 OFFCURVE",
"256 -8 OFFCURVE",
"258 -8 CURVE SMOOTH",
"260 -10 OFFCURVE",
"262 -7 OFFCURVE",
"268 0 CURVE",
"268 4 OFFCURVE",
"272 7 OFFCURVE",
"273 7 CURVE SMOOTH",
"274 7 OFFCURVE",
"274 8 OFFCURVE",
"274 9 CURVE SMOOTH",
"274 11 OFFCURVE",
"275 9 OFFCURVE",
"276 11 CURVE",
"276 11 OFFCURVE",
"277 12 OFFCURVE",
"277 14 CURVE SMOOTH",
"277 15 OFFCURVE",
"279 15 OFFCURVE",
"280 17 CURVE",
"280 17 OFFCURVE",
"281 17 OFFCURVE",
"281 18 CURVE SMOOTH",
"281 19 OFFCURVE",
"282 20 OFFCURVE",
"283 20 CURVE",
"283 21 OFFCURVE",
"284 23 OFFCURVE",
"285 24 CURVE",
"284 27 OFFCURVE",
"285 29 OFFCURVE",
"286 30 CURVE SMOOTH",
"290 37 LINE",
"290 41 OFFCURVE",
"292 44 OFFCURVE",
"292 46 CURVE",
"294 50 OFFCURVE",
"299 57 OFFCURVE",
"300 58 CURVE",
"300 58 OFFCURVE",
"300 60 OFFCURVE",
"301 64 CURVE SMOOTH",
"306 89 OFFCURVE",
"307 95 OFFCURVE",
"306 103 CURVE SMOOTH",
"306 113 OFFCURVE",
"304 116 OFFCURVE",
"300 116 CURVE SMOOTH",
"276 120 OFFCURVE",
"268 110 OFFCURVE",
"261 100 CURVE SMOOTH",
"257 95 OFFCURVE",
"257 93 OFFCURVE",
"253 87 CURVE SMOOTH",
"251 84 OFFCURVE",
"249 82 OFFCURVE",
"250 80 CURVE SMOOTH",
"250 79 OFFCURVE",
"248 76 OFFCURVE",
"246 74 CURVE SMOOTH",
"234 58 OFFCURVE",
"220 48 OFFCURVE",
"208 48 CURVE SMOOTH",
"200 48 OFFCURVE",
"189 55 OFFCURVE",
"184 64 CURVE",
"175 77 OFFCURVE",
"158 98 OFFCURVE",
"157 120 CURVE",
"155 125 OFFCURVE",
"153 132 OFFCURVE",
"153 133 CURVE SMOOTH",
"150 137 OFFCURVE",
"146 158 OFFCURVE",
"145 177 CURVE",
"145 223 LINE",
"150 273 LINE",
"151 275 OFFCURVE",
"151 280 OFFCURVE",
"151 285 CURVE SMOOTH",
"154 299 OFFCURVE",
"165 333 OFFCURVE",
"169 342 CURVE SMOOTH",
"177 351 OFFCURVE",
"184 354 OFFCURVE",
"191 355 CURVE SMOOTH",
"197 355 OFFCURVE",
"202 352 OFFCURVE",
"204 346 CURVE SMOOTH",
"205 344 OFFCURVE",
"208 340 OFFCURVE",
"209 338 CURVE SMOOTH",
"213 332 OFFCURVE",
"215 326 OFFCURVE",
"217 322 CURVE SMOOTH",
"218 315 OFFCURVE",
"218 307 OFFCURVE",
"218 306 CURVE SMOOTH",
"219 305 OFFCURVE",
"217 288 OFFCURVE",
"216 284 CURVE SMOOTH",
"215 282 OFFCURVE",
"218 271 OFFCURVE",
"220 266 CURVE SMOOTH",
"221 263 OFFCURVE",
"222 261 OFFCURVE",
"222 260 CURVE SMOOTH",
"222 260 OFFCURVE",
"225 257 OFFCURVE",
"227 253 CURVE SMOOTH",
"230 250 OFFCURVE",
"232 247 OFFCURVE",
"232 246 CURVE SMOOTH",
"232 245 OFFCURVE",
"233 244 OFFCURVE",
"234 243 CURVE",
"234 243 OFFCURVE",
"236 242 OFFCURVE",
"237 239 CURVE",
"235 235 OFFCURVE",
"245 225 OFFCURVE",
"246 225 CURVE SMOOTH",
"247 225 OFFCURVE",
"249 224 OFFCURVE",
"251 222 CURVE SMOOTH",
"253 219 OFFCURVE",
"263 216 OFFCURVE",
"267 216 CURVE SMOOTH",
"276 216 OFFCURVE",
"279 223 OFFCURVE",
"285 226 CURVE SMOOTH",
"288 226 OFFCURVE",
"293 227 OFFCURVE",
"294 227 CURVE SMOOTH",
"296 226 OFFCURVE",
"297 227 OFFCURVE",
"299 229 CURVE",
"300 229 OFFCURVE",
"300 231 OFFCURVE",
"301 231 CURVE SMOOTH",
"303 231 OFFCURVE",
"303 232 OFFCURVE",
"303 235 CURVE SMOOTH",
"303 238 OFFCURVE",
"304 241 OFFCURVE",
"304 246 CURVE",
"308 258 OFFCURVE",
"305 287 OFFCURVE",
"303 293 CURVE",
"303 294 OFFCURVE",
"302 301 OFFCURVE",
"301 305 CURVE",
"301 321 OFFCURVE",
"288 364 OFFCURVE",
"276 384 CURVE SMOOTH",
"267 401 OFFCURVE",
"240 414 OFFCURVE",
"217 419 CURVE SMOOTH",
"212 420 OFFCURVE",
"196 421 OFFCURVE",
"181 420 CURVE SMOOTH",
"172 420 OFFCURVE",
"162 418 OFFCURVE",
"160 418 CURVE SMOOTH"
);
}
);
};
layerId = UUID0;
paths = (
{
closed = 1;
nodes = (
"157 418 LINE SMOOTH",
"154 418 OFFCURVE",
"146 420 OFFCURVE",
"146 420 CURVE",
"138 418 OFFCURVE",
"133 415 OFFCURVE",
"130 413 CURVE SMOOTH",
"117 405 LINE",
"115 401 OFFCURVE",
"113 399 OFFCURVE",
"111 397 CURVE",
"100 384 LINE",
"85 362 LINE",
"84 359 OFFCURVE",
"83 356 OFFCURVE",
"84 356 CURVE",
"81 354 OFFCURVE",
"74 349 OFFCURVE",
"73 345 CURVE SMOOTH",
"72 341 OFFCURVE",
"71 336 OFFCURVE",
"71 334 CURVE",
"67 328 OFFCURVE",
"63 322 OFFCURVE",
"63 320 CURVE",
"59 307 OFFCURVE",
"58 297 OFFCURVE",
"58 295 CURVE",
"56 292 OFFCURVE",
"47 272 OFFCURVE",
"48 256 CURVE",
"47 250 OFFCURVE",
"47 249 OFFCURVE",
"46 248 CURVE",
"39 222 LINE",
"39 208 LINE SMOOTH",
"39 205 OFFCURVE",
"40 193 OFFCURVE",
"43 180 CURVE SMOOTH",
"46 166 OFFCURVE",
"49 149 OFFCURVE",
"51 130 CURVE",
"51 118 LINE",
"51 112 LINE",
"50 109 OFFCURVE",
"49 107 OFFCURVE",
"51 105 CURVE",
"54 94 LINE",
"59 79 LINE",
"63 69 LINE",
"68 61 OFFCURVE",
"71 52 OFFCURVE",
"71 48 CURVE",
"77 40 LINE",
"78 37 OFFCURVE",
"83 35 OFFCURVE",
"92 35 CURVE",
"96 34 OFFCURVE",
"95 30 OFFCURVE",
"94 27 CURVE",
"98 17 LINE",
"100 15 OFFCURVE",
"107 11 OFFCURVE",
"111 10 CURVE",
"116 6 OFFCURVE",
"120 4 OFFCURVE",
"122 4 CURVE SMOOTH",
"126 4 OFFCURVE",
"140 -8 OFFCURVE",
"145 -11 CURVE",
"149 -13 OFFCURVE",
"155 -13 OFFCURVE",
"161 -13 CURVE",
"163 -11 OFFCURVE",
"169 -15 OFFCURVE",
"174 -17 CURVE",
"178 -17 OFFCURVE",
"181 -18 OFFCURVE",
"183 -18 CURVE",
"194 -22 LINE",
"211 -21 LINE",
"215 -21 OFFCURVE",
"219 -20 OFFCURVE",
"223 -19 CURVE SMOOTH",
"227 -18 OFFCURVE",
"239 -13 OFFCURVE",
"239 -13 CURVE",
"248 -13 OFFCURVE",
"253 -12 OFFCURVE",
"255 -10 CURVE",
"259 -10 OFFCURVE",
"263 -5 OFFCURVE",
"270 3 CURVE",
"271 6 OFFCURVE",
"274 7 OFFCURVE",
"275 7 CURVE",
"280 17 LINE",
"282 19 OFFCURVE",
"284 20 OFFCURVE",
"286 20 CURVE",
"286 22 OFFCURVE",
"287 26 OFFCURVE",
"288 27 CURVE",
"293 40 LINE",
"293 42 OFFCURVE",
"293 44 OFFCURVE",
"294 46 CURVE",
"296 51 OFFCURVE",
"302 59 OFFCURVE",
"303 60 CURVE",
"309 91 OFFCURVE",
"310 97 OFFCURVE",
"309 105 CURVE",
"309 115 OFFCURVE",
"304 119 OFFCURVE",
"296 120 CURVE SMOOTH",
"269 124 OFFCURVE",
"259 115 OFFCURVE",
"252 105 CURVE SMOOTH",
"246 96 LINE",
"242 90 LINE",
"239 86 OFFCURVE",
"238 84 OFFCURVE",
"239 81 CURVE",
"224 62 OFFCURVE",
"212 53 OFFCURVE",
"204 53 CURVE SMOOTH",
"199 53 OFFCURVE",
"191 59 OFFCURVE",
"188 67 CURVE",
"183 73 LINE",
"175 86 OFFCURVE",
"163 104 OFFCURVE",
"162 119 CURVE",
"160 124 OFFCURVE",
"158 132 OFFCURVE",
"158 133 CURVE",
"155 137 OFFCURVE",
"151 158 OFFCURVE",
"150 177 CURVE",
"150 223 LINE",
"151 239 OFFCURVE",
"154 256 OFFCURVE",
"155 272 CURVE",
"156 275 OFFCURVE",
"156 279 OFFCURVE",
"156 284 CURVE",
"159 300 OFFCURVE",
"170 328 OFFCURVE",
"173 336 CURVE",
"178 342 OFFCURVE",
"184 346 OFFCURVE",
"188 347 CURVE",
"190 347 OFFCURVE",
"191 343 OFFCURVE",
"192 340 CURVE",
"192 339 OFFCURVE",
"200 339 OFFCURVE",
"202 337 CURVE",
"206 331 OFFCURVE",
"212 319 OFFCURVE",
"210 322 CURVE",
"212 313 OFFCURVE",
"212 308 OFFCURVE",
"212 307 CURVE",
"213 306 OFFCURVE",
"211 290 OFFCURVE",
"210 286 CURVE",
"207 270 OFFCURVE",
"209 265 OFFCURVE",
"216 251 CURVE",
"218 249 OFFCURVE",
"220 246 OFFCURVE",
"220 245 CURVE",
"225 238 LINE",
"225 234 OFFCURVE",
"238 223 OFFCURVE",
"241 222 CURVE",
"242 216 OFFCURVE",
"257 213 OFFCURVE",
"262 213 CURVE SMOOTH",
"273 213 OFFCURVE",
"276 216 OFFCURVE",
"280 220 CURVE",
"282 223 OFFCURVE",
"284 224 OFFCURVE",
"285 224 CURVE",
"294 223 OFFCURVE",
"297 224 OFFCURVE",
"300 227 CURVE",
"305 230 OFFCURVE",
"306 231 OFFCURVE",
"306 235 CURVE SMOOTH",
"306 241 OFFCURVE",
"307 243 OFFCURVE",
"307 245 CURVE",
"310 257 OFFCURVE",
"308 285 OFFCURVE",
"306 293 CURVE",
"306 295 OFFCURVE",
"305 302 OFFCURVE",
"304 305 CURVE",
"303 322 OFFCURVE",
"289 364 OFFCURVE",
"278 384 CURVE",
"268 400 OFFCURVE",
"240 413 OFFCURVE",
"215 419 CURVE SMOOTH",
"210 420 OFFCURVE",
"192 421 OFFCURVE",
"177 420 CURVE",
"171 420 OFFCURVE",
"163 419 OFFCURVE",
"159 418 CURVE"
);
}
);
width = 360;
}
);
unicode = 0063;
},
{
glyphname = c.ss01;
lastChange = "2017-09-01 11:03:00 +0000";
layers = (
{
background = {
paths = (
{
closed = 1;
nodes = (
"159 427 OFFCURVE",
"157 426 OFFCURVE",
"153 423 CURVE",
"131 415 OFFCURVE",
"128 409 OFFCURVE",
"121 400 CURVE SMOOTH",
"110 380 LINE",
"100 369 LINE SMOOTH",
"94 362 OFFCURVE",
"93 360 OFFCURVE",
"91 358 CURVE",
"83 344 OFFCURVE",
"80 340 OFFCURVE",
"79 329 CURVE",
"74 313 OFFCURVE",
"65 304 OFFCURVE",
"61 280 CURVE SMOOTH",
"59 271 OFFCURVE",
"52 257 OFFCURVE",
"52 237 CURVE SMOOTH",
"52 224 OFFCURVE",
"53 198 OFFCURVE",
"52 198 CURVE",
"54 185 OFFCURVE",
"54 180 OFFCURVE",
"51 180 CURVE",
"50 179 OFFCURVE",
"47 165 OFFCURVE",
"48 161 CURVE",
"47 158 OFFCURVE",
"49 155 OFFCURVE",
"49 148 CURVE SMOOTH",
"50 141 OFFCURVE",
"50 132 OFFCURVE",
"50 127 CURVE",
"51 119 OFFCURVE",
"51 115 OFFCURVE",
"51 114 CURVE SMOOTH",
"54 105 OFFCURVE",
"54 103 OFFCURVE",
"54 100 CURVE SMOOTH",
"57 95 OFFCURVE",
"57 89 OFFCURVE",
"58 81 CURVE",
"61 72 OFFCURVE",
"61 71 OFFCURVE",
"62 65 CURVE",
"63 61 OFFCURVE",
"67 49 OFFCURVE",
"70 46 CURVE",
"75 37 OFFCURVE",
"74 35 OFFCURVE",
"75 33 CURVE SMOOTH",
"78 27 OFFCURVE",
"91 14 OFFCURVE",
"92 14 CURVE SMOOTH",
"101 9 OFFCURVE",
"103 6 OFFCURVE",
"103 6 CURVE",
"111 0 OFFCURVE",
"112 -2 OFFCURVE",
"114 -3 CURVE SMOOTH",
"126 -12 OFFCURVE",
"135 -13 OFFCURVE",
"136 -13 CURVE SMOOTH",
"144 -17 OFFCURVE",
"150 -19 OFFCURVE",
"154 -20 CURVE SMOOTH",
"168 -25 OFFCURVE",
"171 -26 OFFCURVE",
"171 -26 CURVE",
"180 -26 OFFCURVE",
"183 -26 OFFCURVE",
"184 -26 CURVE SMOOTH",
"195 -28 OFFCURVE",
"197 -29 OFFCURVE",
"198 -29 CURVE SMOOTH",
"212 -30 OFFCURVE",
"216 -31 OFFCURVE",
"217 -31 CURVE SMOOTH",
"228 -30 OFFCURVE",
"229 -33 OFFCURVE",
"231 -33 CURVE SMOOTH",
"241 -33 OFFCURVE",
"259 -25 OFFCURVE",
"259 -23 CURVE",
"261 -22 OFFCURVE",
"272 -17 OFFCURVE",
"276 -17 CURVE",
"282 -7 OFFCURVE",
"295 14 OFFCURVE",
"295 15 CURVE SMOOTH",
"302 25 OFFCURVE",
"302 26 OFFCURVE",
"301 27 CURVE",
"303 27 OFFCURVE",
"304 30 OFFCURVE",
"308 41 CURVE",
"316 51 OFFCURVE",
"315 56 OFFCURVE",
"314 62 CURVE",
"313 82 OFFCURVE",
"308 93 OFFCURVE",
"288 91 CURVE",
"281 84 OFFCURVE",
"278 83 OFFCURVE",
"276 81 CURVE SMOOTH",
"266 77 OFFCURVE",
"265 76 OFFCURVE",
"265 74 CURVE SMOOTH",
"257 63 OFFCURVE",
"245 51 OFFCURVE",
"234 43 CURVE",
"203 28 OFFCURVE",
"178 35 OFFCURVE",
"169 42 CURVE SMOOTH",
"163 46 OFFCURVE",
"159 54 OFFCURVE",
"155 63 CURVE SMOOTH",
"148 82 OFFCURVE",
"148 83 OFFCURVE",
"145 109 CURVE",
"142 123 OFFCURVE",
"141 148 OFFCURVE",
"141 171 CURVE",
"142 183 OFFCURVE",
"143 186 OFFCURVE",
"143 188 CURVE SMOOTH",
"144 199 OFFCURVE",
"149 229 OFFCURVE",
"153 247 CURVE SMOOTH",
"162 281 OFFCURVE",
"170 318 OFFCURVE",
"177 331 CURVE SMOOTH",
"184 344 LINE SMOOTH",
"186 348 OFFCURVE",
"188 354 OFFCURVE",
"197 355 CURVE SMOOTH",
"204 355 OFFCURVE",
"215 353 OFFCURVE",
"217 345 CURVE SMOOTH",
"218 343 OFFCURVE",
"221 334 OFFCURVE",
"222 319 CURVE",
"223 308 OFFCURVE",
"220 299 OFFCURVE",
"219 288 CURVE",
"218 281 OFFCURVE",
"219 276 OFFCURVE",
"224 267 CURVE SMOOTH",
"227 260 OFFCURVE",
"235 255 OFFCURVE",
"242 256 CURVE",
"281 263 OFFCURVE",
"287 288 OFFCURVE",
"291 333 CURVE SMOOTH",
"293 354 OFFCURVE",
"290 395 OFFCURVE",
"280 407 CURVE SMOOTH",
"264 427 OFFCURVE",
"259 428 OFFCURVE",
"248 432 CURVE SMOOTH",
"231 436 LINE SMOOTH",
"218 439 OFFCURVE",
"211 439 OFFCURVE",
"204 439 CURVE SMOOTH",
"189 438 OFFCURVE",
"176 436 OFFCURVE",
"166 430 CURVE"
);
}
);
};
layerId = UUID0;
paths = (
{
closed = 1;
nodes = (
"162 430 LINE",
"155 427 OFFCURVE",
"151 425 OFFCURVE",
"147 422 CURVE",
"125 414 OFFCURVE",
"122 408 OFFCURVE",
"115 399 CURVE",
"103 379 LINE",
"94 369 LINE",
"88 361 LINE",
"81 353 LINE",
"74 340 OFFCURVE",
"72 336 OFFCURVE",
"71 328 CURVE",
"66 315 LINE",
"61 305 OFFCURVE",
"55 293 OFFCURVE",
"54 280 CURVE",
"51 271 LINE SMOOTH",
"48 262 OFFCURVE",
"45 252 OFFCURVE",
"45 237 CURVE SMOOTH",
"45 201 LINE",
"47 188 OFFCURVE",
"48 183 OFFCURVE",
"47 183 CURVE",
"45 181 OFFCURVE",
"40 165 OFFCURVE",
"41 161 CURVE",
"41 155 OFFCURVE",
"42 152 OFFCURVE",
"42 149 CURVE",
"43 142 OFFCURVE",
"43 133 OFFCURVE",
"43 128 CURVE",
"44 120 OFFCURVE",
"44 115 OFFCURVE",
"44 114 CURVE",
"47 105 OFFCURVE",
"47 105 OFFCURVE",
"47 103 CURVE",
"48 102 OFFCURVE",
"50 92 OFFCURVE",
"50 88 CURVE",
"55 68 LINE",
"55 63 OFFCURVE",
"60 52 OFFCURVE",
"63 47 CURVE",
"64 45 OFFCURVE",
"66 39 OFFCURVE",
"66 38 CURVE",
"70 29 OFFCURVE",
"88 15 OFFCURVE",
"91 14 CURVE",
"105 0 LINE",
"121 -10 OFFCURVE",
"129 -12 OFFCURVE",
"133 -13 CURVE",
"137 -16 OFFCURVE",
"144 -19 OFFCURVE",
"150 -20 CURVE",
"164 -25 OFFCURVE",
"168 -26 OFFCURVE",
"168 -26 CURVE",
"182 -26 LINE",
"188 -27 OFFCURVE",
"195 -29 OFFCURVE",
"195 -29 CURVE",
"204 -30 OFFCURVE",
"215 -31 OFFCURVE",
"213 -31 CURVE",
"219 -31 OFFCURVE",
"220 -32 OFFCURVE",
"222 -32 CURVE",
"237 -34 OFFCURVE",
"260 -25 OFFCURVE",
"265 -21 CURVE",
"267 -19 OFFCURVE",
"276 -17 OFFCURVE",
"279 -17 CURVE",
"286 -6 LINE",
"300 17 LINE",
"304 22 OFFCURVE",
"306 26 OFFCURVE",
"306 29 CURVE",
"310 31 OFFCURVE",
"309 33 OFFCURVE",
"313 42 CURVE",
"320 52 OFFCURVE",
"320 59 OFFCURVE",
"319 64 CURVE",
"318 85 OFFCURVE",
"310 99 OFFCURVE",
"280 96 CURVE",
"272 88 LINE",
"256 80 OFFCURVE",
"255 79 OFFCURVE",
"255 76 CURVE",
"248 66 OFFCURVE",
"237 54 OFFCURVE",
"227 47 CURVE",
"214 41 OFFCURVE",
"204 39 OFFCURVE",
"196 39 CURVE SMOOTH",
"187 39 OFFCURVE",
"180 40 OFFCURVE",
"178 42 CURVE",
"170 47 OFFCURVE",
"165 56 OFFCURVE",
"161 66 CURVE",
"155 84 OFFCURVE",
"155 85 OFFCURVE",
"152 112 CURVE",
"149 126 OFFCURVE",
"148 150 OFFCURVE",
"148 172 CURVE",
"149 178 OFFCURVE",
"150 184 OFFCURVE",
"150 185 CURVE",
"151 199 OFFCURVE",
"156 229 OFFCURVE",
"160 245 CURVE SMOOTH",
"167 271 LINE SMOOTH",
"174 298 OFFCURVE",
"180 321 OFFCURVE",
"183 328 CURVE",
"190 341 LINE",
"195 350 LINE",
"199 350 OFFCURVE",
"204 349 OFFCURVE",
"205 348 CURVE",
"206 345 OFFCURVE",
"211 334 OFFCURVE",
"212 317 CURVE",
"213 311 OFFCURVE",
"212 305 OFFCURVE",
"211 298 CURVE",
"210 295 OFFCURVE",
"209 292 OFFCURVE",
"209 287 CURVE",
"208 281 OFFCURVE",
"210 275 OFFCURVE",
"215 265 CURVE",
"218 257 OFFCURVE",
"232 252 OFFCURVE",
"241 252 CURVE",
"282 261 OFFCURVE",
"292 287 OFFCURVE",
"296 331 CURVE SMOOTH",
"298 351 OFFCURVE",
"293 391 OFFCURVE",
"283 406 CURVE",
"270 421 OFFCURVE",
"263 425 OFFCURVE",
"252 430 CURVE",
"246 431 OFFCURVE",
"237 435 OFFCURVE",
"231 436 CURVE",
"219 439 OFFCURVE",
"209 439 OFFCURVE",
"201 439 CURVE",
"185 438 OFFCURVE",
"171 436 OFFCURVE",
"161 430 CURVE"
);
}
);
width = 348;
}
);
},
{
color = (31,255,0,1);
glyphname = c.ss02;
lastChange = "2017-09-01 11:03:00 +0000";
layers = (
{
background = {
paths = (
{
closed = 1;
nodes = (
"193 397 LINE SMOOTH",
"191 397 OFFCURVE",
"179 393 OFFCURVE",
"169 390 CURVE SMOOTH",
"147 382 OFFCURVE",
"141 375 OFFCURVE",
"139 374 CURVE SMOOTH",
"130 368 OFFCURVE",
"128 366 OFFCURVE",
"126 366 CURVE",
"109 351 OFFCURVE",
"108 350 OFFCURVE",
"108 349 CURVE",
"95 335 LINE",
"91 325 OFFCURVE",
"90 322 OFFCURVE",
"90 321 CURVE SMOOTH",
"88 318 OFFCURVE",
"83 307 OFFCURVE",
"82 305 CURVE SMOOTH",
"77 297 OFFCURVE",
"75 295 OFFCURVE",
"76 293 CURVE",
"71 280 OFFCURVE",
"70 275 OFFCURVE",
"70 261 CURVE SMOOTH",
"69 249 OFFCURVE",
"55 226 OFFCURVE",
"54 207 CURVE",
"55 192 LINE SMOOTH",
"56 188 OFFCURVE",
"53 173 OFFCURVE",
"55 171 CURVE",
"56 161 OFFCURVE",
"56 158 OFFCURVE",
"58 157 CURVE",
"59 145 OFFCURVE",
"49 145 OFFCURVE",
"50 143 CURVE SMOOTH",
"53 123 OFFCURVE",
"54 120 OFFCURVE",
"55 119 CURVE",
"56 107 OFFCURVE",
"58 103 OFFCURVE",
"58 101 CURVE SMOOTH",
"62 82 OFFCURVE",
"64 72 OFFCURVE",
"63 69 CURVE",
"72 55 OFFCURVE",
"73 54 OFFCURVE",
"73 54 CURVE",
"77 42 OFFCURVE",
"78 41 OFFCURVE",
"79 41 CURVE",
"85 32 OFFCURVE",
"86 31 OFFCURVE",
"86 28 CURVE",
"89 19 OFFCURVE",
"93 17 OFFCURVE",
"94 13 CURVE",
"107 -1 LINE",
"112 -10 OFFCURVE",
"114 -2 OFFCURVE",
"129 -14 CURVE SMOOTH",
"134 -18 OFFCURVE",
"143 -19 OFFCURVE",
"146 -20 CURVE SMOOTH",
"153 -24 OFFCURVE",
"166 -26 OFFCURVE",
"166 -25 CURVE",
"184 -32 OFFCURVE",
"184 -33 OFFCURVE",
"194 -32 CURVE SMOOTH",
"209 -32 OFFCURVE",
"212 -33 OFFCURVE",
"219 -33 CURVE SMOOTH",
"221 -33 OFFCURVE",
"237 -32 OFFCURVE",
"243 -31 CURVE SMOOTH",
"277 -25 OFFCURVE",
"297 -8 OFFCURVE",
"307 16 CURVE SMOOTH",
"312 26 OFFCURVE",
"315 34 OFFCURVE",
"316 39 CURVE SMOOTH",
"318 53 OFFCURVE",
"315 60 OFFCURVE",
"310 61 CURVE SMOOTH",
"304 61 OFFCURVE",
"302 70 OFFCURVE",
"297 69 CURVE SMOOTH",
"288 65 OFFCURVE",
"288 55 OFFCURVE",
"268 41 CURVE SMOOTH",
"254 33 OFFCURVE",
"229 24 OFFCURVE",
"214 25 CURVE SMOOTH",
"209 26 OFFCURVE",
"202 28 OFFCURVE",
"196 32 CURVE",
"188 33 OFFCURVE",
"174 43 OFFCURVE",
"169 52 CURVE SMOOTH",
"164 59 OFFCURVE",
"163 67 OFFCURVE",
"162 75 CURVE",
"148 110 OFFCURVE",
"150 145 OFFCURVE",
"160 193 CURVE SMOOTH",
"163 205 OFFCURVE",
"170 225 OFFCURVE",
"170 229 CURVE SMOOTH",
"170 230 OFFCURVE",
"170 236 OFFCURVE",
"171 243 CURVE",
"177 254 OFFCURVE",
"186 267 OFFCURVE",
"190 277 CURVE SMOOTH",
"192 282 OFFCURVE",
"193 284 OFFCURVE",
"197 290 CURVE SMOOTH",
"211 309 OFFCURVE",
"229 322 OFFCURVE",
"246 321 CURVE SMOOTH",
"258 320 OFFCURVE",
"268 312 OFFCURVE",
"272 298 CURVE",
"273 270 OFFCURVE",
"269 259 OFFCURVE",
"261 238 CURVE",
"260 230 OFFCURVE",
"255 225 OFFCURVE",
"256 218 CURVE SMOOTH",
"256 211 OFFCURVE",
"271 206 OFFCURVE",
"279 204 CURVE SMOOTH",
"290 203 OFFCURVE",
"306 205 OFFCURVE",
"326 220 CURVE SMOOTH",
"334 226 OFFCURVE",
"335 228 OFFCURVE",
"337 233 CURVE SMOOTH",
"339 238 OFFCURVE",
"342 248 OFFCURVE",
"343 253 CURVE SMOOTH",
"348 270 OFFCURVE",
"343 307 OFFCURVE",
"341 325 CURVE",
"337 333 OFFCURVE",
"328 356 OFFCURVE",
"308 375 CURVE",
"297 380 OFFCURVE",
"294 380 OFFCURVE",
"292 381 CURVE SMOOTH",
"279 387 OFFCURVE",
"276 387 OFFCURVE",
"275 388 CURVE",
"254 392 OFFCURVE",
"242 391 OFFCURVE",
"227 395 CURVE",
"224 396 OFFCURVE",
"219 397 OFFCURVE",
"214 397 CURVE SMOOTH"
);
}
);
};
layerId = UUID0;
paths = (
{
closed = 1;
nodes = (
"192 397 LINE SMOOTH",
"188 397 OFFCURVE",
"181 395 OFFCURVE",
"174 393 CURVE SMOOTH",
"165 390 LINE SMOOTH",
"144 383 OFFCURVE",
"137 378 OFFCURVE",
"134 375 CURVE",
"129 371 LINE SMOOTH",
"125 368 OFFCURVE",
"123 367 OFFCURVE",
"122 367 CURVE",
"102 350 OFFCURVE",
"100 348 OFFCURVE",
"100 347 CURVE",
"88 334 LINE",
"83 323 OFFCURVE",
"82 319 OFFCURVE",
"82 319 CURVE",
"76 308 LINE",
"73 301 LINE",
"69 297 OFFCURVE",
"69 295 OFFCURVE",
"69 293 CURVE",
"65 282 OFFCURVE",
"63 271 OFFCURVE",
"63 260 CURVE SMOOTH",
"63 256 OFFCURVE",
"60 249 OFFCURVE",
"57 242 CURVE",
"53 231 OFFCURVE",
"48 219 OFFCURVE",
"47 207 CURVE",
"48 192 LINE",
"48 182 LINE SMOOTH",
"48 177 OFFCURVE",
"50 170 OFFCURVE",
"50 170 CURVE",
"49 162 OFFCURVE",
"48 159 OFFCURVE",
"51 157 CURVE",
"51 155 OFFCURVE",
"51 149 OFFCURVE",
"45 149 CURVE",
"46 132 OFFCURVE",
"47 124 OFFCURVE",
"48 120 CURVE",
"49 112 OFFCURVE",
"49 107 OFFCURVE",
"50 105 CURVE",
"55 84 OFFCURVE",
"57 74 OFFCURVE",
"56 71 CURVE",
"64 57 OFFCURVE",
"67 54 OFFCURVE",
"67 54 CURVE",
"66 51 OFFCURVE",
"70 45 OFFCURVE",
"71 43 CURVE",
"77 34 OFFCURVE",
"78 32 OFFCURVE",
"78 32 CURVE",
"84 20 LINE",
"100 1 LINE",
"102 -3 OFFCURVE",
"106 -4 OFFCURVE",
"111 -6 CURVE",
"114 -7 OFFCURVE",
"117 -7 OFFCURVE",
"124 -13 CURVE",
"130 -17 OFFCURVE",
"135 -18 OFFCURVE",
"140 -19 CURVE",
"147 -23 OFFCURVE",
"156 -24 OFFCURVE",
"163 -24 CURVE",
"180 -32 OFFCURVE",
"181 -33 OFFCURVE",
"194 -32 CURVE",
"202 -32 OFFCURVE",
"205 -33 OFFCURVE",
"209 -33 CURVE SMOOTH",
"217 -33 LINE SMOOTH",
"219 -33 OFFCURVE",
"236 -32 OFFCURVE",
"242 -31 CURVE SMOOTH",
"278 -25 OFFCURVE",
"301 -6 OFFCURVE",
"311 18 CURVE",
"317 29 OFFCURVE",
"320 37 OFFCURVE",
"321 39 CURVE",
"323 56 OFFCURVE",
"317 64 OFFCURVE",
"309 66 CURVE",
"303 71 OFFCURVE",
"301 74 OFFCURVE",
"290 74 CURVE",
"284 71 OFFCURVE",
"282 68 OFFCURVE",
"279 64 CURVE SMOOTH",
"275 59 OFFCURVE",
"269 51 OFFCURVE",
"261 45 CURVE",
"249 38 OFFCURVE",
"225 30 OFFCURVE",
"213 31 CURVE",
"209 32 OFFCURVE",
"204 34 OFFCURVE",
"198 37 CURVE",
"191 38 OFFCURVE",
"178 49 OFFCURVE",
"173 59 CURVE",
"171 62 OFFCURVE",
"170 68 OFFCURVE",
"169 75 CURVE",
"162 92 OFFCURVE",
"159 110 OFFCURVE",
"159 130 CURVE SMOOTH",
"159 148 OFFCURVE",
"162 169 OFFCURVE",
"167 192 CURVE SMOOTH",
"168 198 OFFCURVE",
"171 205 OFFCURVE",
"172 211 CURVE",
"175 220 OFFCURVE",
"177 228 OFFCURVE",
"177 229 CURVE SMOOTH",
"177 230 OFFCURVE",
"177 236 OFFCURVE",
"178 243 CURVE",
"179 245 OFFCURVE",
"181 250 OFFCURVE",
"188 259 CURVE",
"187 259 OFFCURVE",
"192 268 OFFCURVE",
"196 275 CURVE",
"197 278 OFFCURVE",
"198 280 OFFCURVE",
"203 287 CURVE SMOOTH",
"215 305 OFFCURVE",
"230 317 OFFCURVE",
"244 316 CURVE",
"251 315 OFFCURVE",
"258 307 OFFCURVE",
"262 296 CURVE",
"262 274 OFFCURVE",
"258 252 OFFCURVE",
"251 236 CURVE",
"251 236 OFFCURVE",
"249 233 OFFCURVE",
"248 230 CURVE",
"247 226 OFFCURVE",
"244 223 OFFCURVE",
"246 217 CURVE",
"247 207 OFFCURVE",
"264 203 OFFCURVE",
"274 201 CURVE",
"287 200 OFFCURVE",
"306 201 OFFCURVE",
"328 218 CURVE SMOOTH",
"339 226 OFFCURVE",
"340 228 OFFCURVE",
"341 232 CURVE",
"347 251 LINE SMOOTH",
"352 266 OFFCURVE",
"348 299 OFFCURVE",
"346 317 CURVE",
"346 319 OFFCURVE",
"345 321 OFFCURVE",
"345 323 CURVE",
"339 336 OFFCURVE",
"330 356 OFFCURVE",
"310 375 CURVE",
"294 381 LINE",
"281 386 LINE",
"280 387 OFFCURVE",
"274 388 OFFCURVE",
"274 388 CURVE",
"264 390 OFFCURVE",
"256 390 OFFCURVE",
"249 391 CURVE SMOOTH",
"242 392 OFFCURVE",
"236 392 OFFCURVE",
"227 395 CURVE",
"225 396 OFFCURVE",
"219 397 OFFCURVE",
"212 397 CURVE SMOOTH"
);
}
);
width = 382;
}
);
},
{
glyphname = comma;
lastChange = "2017-09-01 11:03:00 +0000";
layers = (
{
background = {
paths = (
{
closed = 1;
nodes = (
"46 104 OFFCURVE",
"41 76 OFFCURVE",
"43 75 CURVE",
"45 67 OFFCURVE",
"47 41 OFFCURVE",
"57 34 CURVE SMOOTH",
"70 24 OFFCURVE",
"77 11 OFFCURVE",
"77 -18 CURVE SMOOTH",
"77 -32 OFFCURVE",
"77 -34 OFFCURVE",
"77 -36 CURVE",
"77 -46 OFFCURVE",
"77 -52 OFFCURVE",
"77 -57 CURVE SMOOTH",
"74 -73 OFFCURVE",
"73 -74 OFFCURVE",
"70 -79 CURVE SMOOTH",
"63 -95 OFFCURVE",
"59 -100 OFFCURVE",
"57 -103 CURVE SMOOTH",
"46 -118 OFFCURVE",
"43 -124 OFFCURVE",
"43 -129 CURVE",
"37 -137 OFFCURVE",
"58 -143 OFFCURVE",
"71 -140 CURVE SMOOTH",
"77 -138 OFFCURVE",
"83 -135 OFFCURVE",
"86 -133 CURVE SMOOTH",
"99 -125 OFFCURVE",
"112 -115 OFFCURVE",
"115 -111 CURVE SMOOTH",
"126 -95 OFFCURVE",
"128 -83 OFFCURVE",
"131 -77 CURVE SMOOTH",
"138 -63 OFFCURVE",
"138 -60 OFFCURVE",
"138 -59 CURVE SMOOTH",
"142 -55 OFFCURVE",
"145 -48 OFFCURVE",
"149 -35 CURVE SMOOTH",
"163 8 OFFCURVE",
"167 47 OFFCURVE",
"162 81 CURVE SMOOTH",
"161 89 OFFCURVE",
"157 93 OFFCURVE",
"151 93 CURVE",
"141 97 OFFCURVE",
"137 98 OFFCURVE",
"136 99 CURVE SMOOTH",
"126 108 OFFCURVE",
"126 108 OFFCURVE",
"126 108 CURVE SMOOTH",
"112 111 OFFCURVE",
"109 112 OFFCURVE",
"107 113 CURVE SMOOTH",
"99 116 OFFCURVE",
"91 116 OFFCURVE",
"77 115 CURVE SMOOTH",
"75 115 OFFCURVE",
"68 116 OFFCURVE",
"65 116 CURVE SMOOTH"
);
}
);
};
layerId = UUID0;
paths = (
{
closed = 1;
nodes = (
"61 121 LINE",
"40 108 OFFCURVE",
"37 75 OFFCURVE",
"39 74 CURVE",
"38 58 OFFCURVE",
"42 43 OFFCURVE",
"52 35 CURVE",
"62 26 OFFCURVE",
"69 12 OFFCURVE",
"69 -15 CURVE SMOOTH",
"69 -53 LINE",
"66 -65 OFFCURVE",
"67 -67 OFFCURVE",
"61 -78 CURVE",
"58 -86 OFFCURVE",
"53 -93 OFFCURVE",
"51 -96 CURVE SMOOTH",
"38 -114 OFFCURVE",
"35 -121 OFFCURVE",
"35 -125 CURVE",
"29 -134 OFFCURVE",
"58 -142 OFFCURVE",
"76 -138 CURVE SMOOTH",
"81 -137 OFFCURVE",
"86 -134 OFFCURVE",
"90 -131 CURVE",
"105 -123 OFFCURVE",
"117 -113 OFFCURVE",
"120 -109 CURVE SMOOTH",
"131 -94 OFFCURVE",
"134 -87 OFFCURVE",
"135 -81 CURVE",
"137 -74 LINE",
"144 -60 OFFCURVE",
"145 -56 OFFCURVE",
"145 -55 CURVE",
"149 -51 OFFCURVE",
"154 -42 OFFCURVE",
"156 -33 CURVE",
"166 -3 OFFCURVE",
"171 27 OFFCURVE",
"171 55 CURVE SMOOTH",
"171 64 OFFCURVE",
"170 74 OFFCURVE",
"169 83 CURVE SMOOTH",
"168 92 OFFCURVE",
"162 97 OFFCURVE",
"153 98 CURVE",
"143 102 LINE",
"130 112 OFFCURVE",
"129 112 OFFCURVE",
"129 112 CURVE",
"117 115 OFFCURVE",
"114 115 OFFCURVE",
"113 116 CURVE",
"102 120 OFFCURVE",
"87 121 OFFCURVE",
"76 120 CURVE",
"69 120 OFFCURVE",
"67 121 OFFCURVE",
"65 121 CURVE SMOOTH"
);
}
);
width = 203;
}
);
unicode = 002C;
},
